<svg xmlns="http://www.w3.org/2000/svg" width="849.122" height="626.533" viewBox="0 0 849.122 626.533"><defs><style>.a{fill:#ff1e00;}.b,.c,.f{fill:none;}.b,.d{stroke:#ff2b2b;}.b{stroke-linecap:round;}.b,.c{stroke-miterlimit:10;}.c{stroke:red;stroke-width:1.34px;}.d{fill:#fff;}.e{stroke:none;}</style></defs><g transform="translate(1.538 1.537)"><g transform="translate(81.905 8.634)"><path class="a" d="M279.425,124.636a4.384,4.384,0,1,1,4.384,4.345A4.369,4.369,0,0,1,279.425,124.636Zm1.539,0a2.845,2.845,0,1,0,2.845-2.821A2.835,2.835,0,0,0,280.964,124.636Z" transform="translate(-279.425 -120.291)"/></g><g transform="translate(203.417 190.026)"><rect width="3.078" height="3.051"/></g><g transform="translate(456.91 178.983)"><rect class="a" width="3.078" height="3.051"/></g><g transform="translate(16.824 87.778)"><rect width="3.078" height="3.051"/></g><g transform="translate(359.645 307.804)"><rect class="a" width="3.078" height="3.051"/></g><g transform="translate(303.082 284.073)"><rect class="a" width="3.078" height="3.051"/></g><g transform="translate(431.256 5.323)"><rect class="a" width="3.078" height="3.051"/></g><g transform="translate(367.256 26.024)"><rect class="a" width="3.078" height="3.051" transform="translate(0)"/></g><g transform="translate(359.645 247.843)"><rect class="a" width="3.078" height="3.051"/></g><g transform="translate(87.618 311.013)"><rect class="a" width="3.078" height="3.051"/></g><g transform="translate(346.149 212.727)"><rect class="a" width="3.078" height="3.051"/></g><g transform="translate(286.961 184.843)"><rect class="a" width="3.078" height="3.051"/></g><g transform="translate(135.276 383.288)"><rect class="a" width="3.078" height="3.051"/></g><g transform="translate(129.736 243.003)"><rect class="a" width="3.078" height="3.051"/></g><g transform="translate(131.705 106.696)"><rect class="a" width="3.078" height="3.051" transform="translate(0 0)"/></g><g transform="translate(38.236 223.645)"><rect class="a" width="3.078" height="3.051" transform="translate(0 0)"/></g><g transform="translate(577.665 109.185)"><rect width="3.078" height="3.051"/></g><g transform="translate(605.979 39.151)"><rect class="a" width="3.078" height="3.051"/></g><g transform="translate(208.746 125.29)"><rect class="a" width="3.078" height="3.051" transform="translate(0 0)"/></g><g transform="translate(217.795 295.458)"><rect class="a" width="3.078" height="3.051"/></g><g transform="translate(367.673 168.333)"><rect class="a" width="3.078" height="3.051"/></g><g transform="translate(349.632 48.393)"><ellipse class="a" cx="0.606" cy="0.606" rx="0.606" ry="0.606" transform="translate(28.358)"/><path class="a" d="M376.331,76.841a.592.592,0,0,0-.687-.481.868.868,0,0,1-1-.7.593.593,0,0,0-1.023-.3.619.619,0,0,0-.146.5.865.865,0,0,1-.7,1,.593.593,0,0,0,.207,1.168.865.865,0,0,1,1,.7.592.592,0,0,0,1.024.3l0,0a.593.593,0,0,0,.14-.5.868.868,0,0,1,.7-1A.6.6,0,0,0,376.331,76.841Zm-2.005.354-.013.02-.009-.007-.011-.008.013-.019.011.007Z" transform="translate(-340.049 -71.167)"/><path class="a" d="M356.285,99.613c1.227-.044,2.554-.16,3.946-.33a.576.576,0,0,0,.067.123,13.451,13.451,0,0,0,20.362.327,13.535,13.535,0,0,0,1.713-2.427,13.349,13.349,0,0,0,1.575-4.857c1.222-.575,2.363-1.161,3.391-1.755a18.863,18.863,0,0,0,4.493-3.376,3.239,3.239,0,0,0,1.056-2.956c-.877-3.057-7.807-2.654-11.92-2.129a13.434,13.434,0,0,0-23.669,6.8c-3.8,1.746-9.959,5.1-9.078,8.162C348.858,99.41,352.958,99.733,356.285,99.613Zm-1.225-5.951c-.131-.455.388-1.352,2.128-2.548a13.407,13.407,0,0,0,.562,3.535C356.152,94.528,355.2,94.17,355.059,93.662Zm27.455-5.755a54.535,54.535,0,0,1-23.5,6.782,12.24,12.24,0,1,1,23.5-6.782ZM385.22,85c.143.5-.441,1.275-1.661,2.189a13.435,13.435,0,0,0-1.375-3.223C384.209,84.071,385.092,84.551,385.22,85Zm-23.6,14.1a82.608,82.608,0,0,0,10.65-2.344,82.171,82.171,0,0,0,10.383-3.715A12.226,12.226,0,0,1,361.622,99.1Zm-12.26-2.235c-.282-.977,1.06-2.846,5.379-5.225a2.514,2.514,0,0,0-.821,2.35c.355,1.232,2.088,1.8,4.575,1.873a.526.526,0,0,0,.138,0,47.066,47.066,0,0,0,12.789-2.077c6.077-1.746,11.961-4.377,14.128-6.822a2.5,2.5,0,0,0,.812-2.295,2.537,2.537,0,0,0-1.968-1.569c4.939-.275,7.075.606,7.357,1.586.25.868-.935,2.631-5,4.978a68.954,68.954,0,0,1-14.8,5.947,68.95,68.95,0,0,1-15.7,2.813C351.548,98.6,349.61,97.732,349.361,96.864Z" transform="translate(-348.136 -70.434)"/><path class="a" d="M374.262,86.054a.6.6,0,0,1-.943-.072,13.217,13.217,0,0,0-6.577-5.254.593.593,0,1,1,.4-1.115,14.4,14.4,0,0,1,7.17,5.728A.591.591,0,0,1,374.262,86.054Z" transform="translate(-342.035 -69.689)"/><path class="a" d="M365.018,80.147a.6.6,0,0,1-.462.2l-.491-.016a.592.592,0,0,1,.036-1.184l.491.015a.593.593,0,0,1,.426.985Z" transform="translate(-342.993 -69.834)"/></g><ellipse class="a" cx="3.44" cy="3.44" rx="3.44" ry="3.44" transform="translate(245.896 230.897)"/><ellipse cx="3.44" cy="3.44" rx="3.44" ry="3.44" transform="translate(46.484 166.532)"/><ellipse class="a" cx="3.44" cy="3.44" rx="3.44" ry="3.44" transform="translate(193.125 86.911)"/><ellipse class="a" cx="1.523" cy="1.523" rx="1.523" ry="1.523" transform="translate(394.87 110.69)"/><ellipse class="a" cx="1.523" cy="1.523" rx="1.523" ry="1.523" transform="translate(324.297 58.528)"/><ellipse cx="3.44" cy="3.44" rx="3.44" ry="3.44" transform="translate(189.874 8.681)"/><ellipse class="a" cx="1.72" cy="1.72" rx="1.72" ry="1.72" transform="translate(340.106 100.245)"/><ellipse class="a" cx="1.72" cy="1.72" rx="1.72" ry="1.72" transform="translate(78.528 122.489)"/><ellipse class="a" cx="1.72" cy="1.72" rx="1.72" ry="1.72" transform="translate(171.04 272.618)"/><ellipse cx="1.72" cy="1.72" rx="1.72" ry="1.72" transform="translate(106.819 177.239)"/><ellipse class="a" cx="5.148" cy="5.148" rx="5.148" ry="5.148" transform="translate(261.123 148.726)"/><ellipse class="a" cx="5.148" cy="5.148" rx="5.148" ry="5.148" transform="translate(540.035 27.327)"/><ellipse cx="2.574" cy="2.574" rx="2.574" ry="2.574" transform="translate(248.952 44.669)"/><g transform="translate(150.283 149.171)"><g transform="translate(0 3.628)"><path class="a" d="M358.06,191.894c3.923,0,6.406-.957,7.122-2.8.869-2.232-.973-5.181-5.328-8.53a76.967,76.967,0,0,0-34.277-13.348c-5.474-.485-8.825.448-9.694,2.679-1.157,2.973,2.623,6.553,6,9.032l.864-1.18c-4.066-2.986-6.122-5.724-5.5-7.321.582-1.5,3.654-2.157,8.2-1.753a75.548,75.548,0,0,1,33.514,13.05c3.624,2.787,5.44,5.343,4.857,6.839-.642,1.648-4.315,2.265-9.588,1.607l-.181,1.451A32.751,32.751,0,0,0,358.06,191.894Z" transform="translate(-315.67 -167.092)"/></g><g transform="translate(17.772)"><path class="a" d="M353.99,173.908l1.371-.509A15.322,15.322,0,0,0,333.7,165.26l.7,1.284a13.859,13.859,0,0,1,19.591,7.364Z" transform="translate(-333.701 -163.411)"/></g><g transform="translate(9.759 7.521)"><path class="a" d="M340.884,194.144a15.369,15.369,0,0,0,14.989-12.167l-1.431-.3a13.852,13.852,0,1,1-25.485-9.891l-1.258-.745a15.315,15.315,0,0,0,13.185,23.1Z" transform="translate(-325.571 -171.042)"/></g><g transform="translate(12.683 15.312)"><path class="a" d="M340.927,191.334v-1.462A10.938,10.938,0,0,1,330,178.946h-1.463A12.4,12.4,0,0,0,340.927,191.334Z" transform="translate(-328.538 -178.946)"/></g><g transform="translate(32.689 37.395)"><rect class="a" width="1.462" height="1.462"/></g></g><path class="b" d="M10.414.226,9.545,4.62,12.61,7.838l-4.375.518-2.061,3.96L4.339,8.242,0,7.472,3.24,4.436,2.62,0,6.458,2.2Z" transform="matrix(0.966, 0.259, -0.259, 0.966, 124.224, 81.64)"/><path class="b" d="M10.414.226,9.545,4.62,12.61,7.838l-4.375.518-2.061,3.96L4.339,8.242,0,7.472,3.24,4.437,2.62,0,6.458,2.2Z" transform="translate(327.482 125.493) rotate(72)"/><path class="b" d="M7.031.153,6.445,3.119,8.514,5.292l-2.954.349L4.169,8.316,2.929,5.565,0,5.045,2.188,3,1.769,0,4.361,1.484Z" transform="translate(119.291 223.88) rotate(72)"/><path class="b" d="M10.167.221,9.32,4.511l2.992,3.142-4.271.505L6.028,12.024,4.236,8.047,0,7.295,3.164,4.332,2.558,0,6.306,2.146Z" transform="translate(455.891 49.251) rotate(72)"/><path class="b" d="M7.031.153,6.445,3.119,8.514,5.292l-2.954.349L4.169,8.316l-1.24-2.75L0,5.045,2.188,3,1.769,0,4.361,1.484Z" transform="matrix(-0.777, 0.629, -0.629, -0.777, 11.85, 48.962)"/><path class="b" d="M7.031.153,6.445,3.119,8.514,5.292l-2.954.349L4.169,8.316,2.929,5.565,0,5.045,2.188,3,1.769,0,4.361,1.484Z" transform="matrix(-0.998, 0.07, -0.07, -0.998, 416.552, 179.747)"/><path class="b" d="M7.031.153,6.445,3.119,8.514,5.292l-2.954.349L4.169,8.316,2.929,5.565,0,5.045,2.188,3,1.769,0,4.361,1.484Z" transform="translate(293.637 11.655) rotate(-146)"/><g transform="translate(-106.788 151.177)"><g transform="translate(531.445 117.623)"><g transform="translate(0 0)"><rect class="c" width="84.252" height="164.107" transform="matrix(0.505, -0.863, 0.863, 0.505, 0, 72.709)"/><line class="c" y1="75.871" x2="44.415" transform="translate(15.328 8.358)"/><path class="a" d="M694.748,195.924l-34.509,58.951-17.416-10.338,34.509-58.95Z" transform="translate(-496.558 -96.333)"/><path class="c" d="M793.946,260.508,766.41,307.546l-107.1-63.054,27.536-47.039Z" transform="translate(-491.394 -92.617)"/><rect class="c" width="29.537" height="122.262" transform="matrix(0.505, -0.863, 0.863, 0.505, 281.825, 203.469)"/><path class="a" d="M827.219,323.951l9.061,19.29,25.445-43.468-21.635,2.2Z" transform="translate(-438.798 -60.567)"/></g></g><path class="c" d="M675.1,243.463l27.848,55.7,34.037-20.113" transform="translate(44.997 39.418)"/><path class="c" d="M705.782,256.423,702.688,295.1v123l-26.759,11.6" transform="translate(45.257 43.477)"/><line class="c" x2="7.584" y2="11.579" transform="translate(747.945 461.575)"/><line class="c" x2="32.575" y2="11.579" transform="translate(748.12 461.581)"/><line class="c" x2="68.285" transform="translate(716.715 473.149)"/></g><g class="d" transform="translate(474.146 96.706)"><circle class="e" cx="6" cy="6" r="6"/><circle class="f" cx="6" cy="6" r="5.5"/></g><g class="d" transform="translate(619.146 165.706)"><circle class="e" cx="6" cy="6" r="6"/><circle class="f" cx="6" cy="6" r="5.5"/></g></g></svg>