<?xml version="1.0" encoding="utf-8"?>
<!-- Generator: Adobe Illustrator 24.2.1, SVG Export Plug-In . SVG Version: 6.00 Build 0)  -->
<svg version="1.1" id="Layer_1" xmlns="http://www.w3.org/2000/svg" xmlns:xlink="http://www.w3.org/1999/xlink" x="0px" y="0px"
	 viewBox="0 0 479.8 715" style="enable-background:new 0 0 479.8 715;" xml:space="preserve">
<style type="text/css">
	.st0{fill:none;stroke:#323232;stroke-width:0.7;}
	.st1{fill:#FF2B2B;}
	.st2{fill:none;stroke:#FF2B2B;stroke-width:0.7;stroke-miterlimit:10;}
	.st3{fill:none;stroke:#323232;stroke-width:0.7001;stroke-miterlimit:4.0006;}
	.st4{fill:none;stroke:#323232;stroke-width:0.5;}
</style>
<g id="Component_4_1" transform="translate(0.35 0.35)">
	<g id="Group_27446" transform="translate(-1159.774 -194.045)">
		<g id="Group_26296" transform="translate(1329.672 551.813)">
			<path id="Path_28046" class="st0" d="M2.5,168.6c-1.4-6.6-2.3-13.3-2.5-20c-0.5-21.5,5.8-38.6,9.5-48.3
				c11.8-31.1,12-26.2,14.5-47.4C26,35,19.5,9.5,13.6,0"/>
		</g>
		<g id="Group_26297" transform="translate(1303.595 664.416)">
			<path id="Path_28047" class="st0" d="M44.5,57c0,0-6.2-24.4-6.9-29.5c-1.1-8.2-2.1-15.4,2.5-21c3.3-3.9,9.5-7.4,15-6.2
				c11.4,2.5,9,23,20,40.8c15.5,25.1,49.1,31.3,73.8,35.8c7.2,1.4,14.4,2.2,21.7,2.5c16.1,0.5,32.3,0.1,48.3-1.2
				c0,0,63.5-4.4,116.4-28.4"/>
			<path id="Rectangle_9532" class="st0" d="M16.6,57.2h32.9c5.5,0,10,4.5,10,10v5.8c0,5.5-4.5,10-10,10H16.6c-5.5,0-10-4.5-10-10
				v-5.8C6.6,61.7,11.1,57.2,16.6,57.2z"/>
			<path id="Rectangle_9533" class="st0" d="M8.5,85.6h49.2c4.4,0,8,3.6,8,8v7.5c0,4.4-3.6,8-8,8H8.5c-4.4,0-8-3.6-8-8v-7.5
				C0.5,89.2,4.1,85.6,8.5,85.6z"/>
			<path id="Rectangle_9534" class="st0" d="M7,111.5h51.2c3.9,0,7,3.1,7,7v9.5c0,3.9-3.1,7-7,7H7c-3.9,0-7-3.1-7-7v-9.5
				C0,114.6,3.1,111.5,7,111.5z"/>
			<path id="Rectangle_9535" class="st0" d="M16.3,137.4h35.2c5,0,9,4,9,9v4.9c0,5-4,9-9,9H16.3c-5,0-9-4-9-9v-4.9
				C7.3,141.4,11.4,137.4,16.3,137.4z"/>
		</g>
		<path id="Path_28232" class="st1" d="M1308.7,386.8c0.5-0.9,1-2,1.6-3.1c0.6-1.1,1.2-2.3,1.9-3.4c0.7-1.2,1.4-2.3,2.2-3.5
			c0.8-1.1,1.6-2.2,2.4-3.3c0.7-0.9,1.5-1.6,2.5-2.2c0.7-0.4,1.5-0.6,2.4-0.7c1.3-0.1,2.6,0.5,3.3,1.6c0.8,1.2,1.1,2.6,1.1,4
			c0,0.4,0,0.8-0.1,1.4c0,0.5-0.1,1.1-0.1,1.7c0,0.6-0.1,1.2-0.1,1.8c0,0.6-0.1,1.2-0.1,1.7c0,0.7,0,1.3,0.1,2
			c0.1,0.6,0.2,1.1,0.4,1.7c0.2,0.4,0.5,0.8,0.9,1.1c0.4,0.3,0.9,0.4,1.5,0.4c1.2,0,2.3-0.5,3.2-1.3c1.1-0.9,2-1.9,2.9-3
			c0.8-1.1,1.6-2.3,2.3-3.5c0.6-1.2,1.1-2.2,1.4-2.9c0.1-0.3,0.3-0.6,0.6-0.7c0.3-0.2,0.6-0.3,0.9-0.3c0.5,0,0.9,0.2,1.2,0.5
			c0.3,0.3,0.4,0.7,0.5,1.1c0,0.2,0,0.4-0.1,0.6c-0.1,0.2-0.3,0.7-0.7,1.4s-0.8,1.5-1.4,2.5c-0.6,0.9-1.2,1.9-2,3
			c-0.7,1-1.6,2-2.5,2.9c-0.9,0.8-1.9,1.6-2.9,2.2c-1,0.6-2.1,0.9-3.3,0.9c-1.1,0-2.2-0.2-3.1-0.8c-0.8-0.5-1.4-1.2-1.9-2
			c-0.5-0.8-0.8-1.8-0.9-2.7c-0.2-1-0.2-2-0.2-3c0-0.4,0-0.9,0.1-1.5c0-0.5,0.1-1.1,0.2-1.7c0.1-0.6,0.1-1.2,0.2-1.8
			s0.1-1.2,0.1-1.7c0.1-0.7-0.1-1.3-0.4-1.9c-0.2-0.3-0.5-0.4-0.8-0.5c-0.6,0.1-1.2,0.4-1.6,0.8c-0.7,0.6-1.3,1.3-1.8,2.1
			c-0.6,0.9-1.3,1.8-2,2.9c-0.7,1.1-1.3,2.1-1.9,3.2c-0.6,1.1-1.1,2.1-1.6,3c-0.5,1-0.9,1.8-1.2,2.4c-0.4,0.9-1,1.8-1.7,2.4
			c-0.5,0.4-1.1,0.6-1.8,0.6c-0.7,0-1.5-0.2-2-0.8c-0.5-0.6-0.8-1.3-0.8-2.1c0-0.2,0-0.6,0.1-1.2c0.1-0.6,0.1-1.3,0.2-2.1
			c0.1-0.8,0.2-1.7,0.3-2.6c0.1-0.9,0.2-1.9,0.3-2.8c0.1-0.9,0.2-1.8,0.2-2.6c0.1-0.8,0.1-1.5,0.1-2c0-0.7,0-1.4-0.1-2.1
			c0-0.4-0.1-0.8-0.3-1.2c-0.3,0.1-0.7,0.6-1.4,1.6c-1,1.7-1.8,3.4-2.5,5.2c-0.1,0.3-0.4,0.6-0.6,0.7c-0.3,0.2-0.6,0.3-0.9,0.3
			c-0.4,0-0.9-0.2-1.2-0.5c-0.3-0.3-0.4-0.7-0.4-1.1c0-0.2,0-0.4,0.1-0.6c0.9-2.4,2.1-4.7,3.6-6.8c1.1-1.4,2.3-2.2,3.4-2.2
			c0.6,0,1.2,0.2,1.7,0.5c0.5,0.3,0.8,0.8,1.1,1.3c0.3,0.6,0.5,1.2,0.6,1.8c0.1,0.7,0.2,1.3,0.2,2c0,0.5,0,1.3-0.1,2.4
			s-0.2,2.3-0.3,3.5c-0.1,1.2-0.2,2.5-0.3,3.7C1308.9,385,1308.8,386,1308.7,386.8z M1343.1,374.8c-0.2,0.5-0.4,1-0.6,1.5
			c-0.2,0.6-0.5,1.2-0.8,1.8c-0.2,0.4-0.5,0.8-0.8,1.1c-0.3,0.3-0.7,0.4-1.1,0.4c-0.4,0-0.9-0.1-1.2-0.5c-0.3-0.3-0.4-0.7-0.4-1.1
			c0-0.1,0-0.2,0-0.4c0.1-0.2,0.1-0.3,0.2-0.5c0.6-1.2,1.2-2.5,1.7-3.8c0.4-1.1,0.7-2.2,0.9-3.4c-0.2-0.6-0.3-1.1-0.4-1.7
			c-0.1-0.5-0.1-0.9-0.1-1.4c0-0.8,0.2-1.6,0.6-2.3c0.4-0.6,1-0.9,1.7-0.9c0.6,0,1.2,0.3,1.6,0.9c0.4,0.6,0.6,1.4,0.6,2.1
			c0,0.5,0,0.9-0.1,1.4c-0.1,0.5-0.2,1-0.3,1.7c0.7,1.6,1.3,3.1,2,4.3c0.7,1.3,1.2,2.4,1.8,3.5c0.5,1,0.9,1.9,1.3,2.9
			c0.3,0.9,0.5,1.8,0.5,2.8c0,1.2-0.2,2.4-0.7,3.4c-0.5,1.1-1.4,2.1-2.4,2.8c0.1,0,0.3,0,0.4,0h0.4c1.6,0,3.1-0.4,4.5-1.1
			c1.4-0.8,2.6-1.7,3.7-2.9c1.1-1.2,2.1-2.5,2.9-4c0.8-1.4,1.6-2.8,2.2-4.3c0.3-0.7,0.7-1,1.2-1c0.4,0,0.9,0.2,1.1,0.5
			c0.3,0.3,0.4,0.7,0.4,1.1c0,0.2,0,0.4-0.1,0.6c-0.3,0.8-0.7,1.7-1.2,2.6c-0.5,1.1-1.1,2.1-1.8,3.1c-0.7,1.1-1.5,2.1-2.4,3.1
			c-0.9,1-2,1.9-3.1,2.7c-1.1,0.8-2.4,1.4-3.7,1.9c-1.4,0.5-2.9,0.7-4.4,0.7c-1.8,0-3.7-0.3-5.4-1c-1.6-0.7-3.1-1.8-4-3.3
			c-0.2-0.2-0.3-0.5-0.3-0.8c0-0.4,0.2-0.8,0.5-1.1c0.6-0.6,1.6-0.7,2.3,0c0,0,0,0,0,0c0.1,0.1,0.2,0.2,0.3,0.3
			c0.2,0.1,0.4,0.3,0.6,0.4c0.3,0.2,0.6,0.3,0.9,0.4c0.3,0.1,0.7,0.2,1,0.2c0.6,0,1.2-0.1,1.7-0.4c0.5-0.3,0.8-0.6,1.1-1.1
			c0.3-0.4,0.5-0.9,0.6-1.3c0.1-0.4,0.2-0.8,0.2-1.2c0-0.7-0.1-1.5-0.3-2.1c-0.2-0.7-0.5-1.5-0.9-2.1c-0.4-0.7-0.7-1.5-1.2-2.2
			C1343.8,376.4,1343.4,375.6,1343.1,374.8z M1385.1,378.8c-0.3,0.7-0.7,1.4-1.2,2.3c-0.5,0.9-1,1.8-1.6,2.8c-0.6,1-1.3,2-2,2.9
			c-0.7,0.9-1.5,1.8-2.4,2.6c-0.8,0.7-1.8,1.4-2.8,1.8c-1,0.5-2.1,0.7-3.2,0.7c-1.6,0-3.2-0.5-4.4-1.6c-1.3-1.2-2.4-2.6-3.1-4.2
			c-0.9-1.9-1.6-3.8-2.1-5.9c-0.5-2.2-0.9-4.4-1.2-6.7c-0.3-2.3-0.5-4.5-0.6-6.6s-0.2-4.1-0.2-5.7c0-2.4,0.1-4.9,0.2-7.5
			c0.2-2.6,0.4-5.1,0.8-7.6c0.3-2.5,0.8-4.8,1.3-7c0.5-2,1.1-3.9,1.9-5.8c0.6-1.5,1.4-2.8,2.5-4c0.8-0.9,2-1.4,3.2-1.5
			c0.9,0,1.8,0.2,2.6,0.7c0.8,0.5,1.5,1.3,1.9,2.2c0.6,1.2,1,2.6,1.2,3.9c0.3,1.9,0.5,3.9,0.4,5.9c0,3-0.3,6-0.9,8.9
			c-0.6,3.1-1.4,6.2-2.4,9.2c-1.1,3.2-2.3,6.2-3.7,9.3c-1.4,3.1-2.9,6.1-4.5,9c0.5,3,1.5,5.9,2.9,8.6c1.2,2.1,2.7,3.1,4.3,3.1
			c1.2,0,2.4-0.5,3.3-1.4c1.1-0.9,2.1-2,2.9-3.2c0.9-1.2,1.7-2.5,2.3-3.8c0.7-1.3,1.2-2.3,1.6-3.1c0.1-0.3,0.3-0.5,0.6-0.7
			c0.3-0.2,0.6-0.2,0.9-0.2c0.5,0,0.9,0.2,1.2,0.5c0.3,0.3,0.5,0.7,0.5,1.2C1385.3,378.3,1385.2,378.6,1385.1,378.8L1385.1,378.8z
			 M1363.6,361.5c0,1.8,0,3.6,0.1,5.3c0.1,1.7,0.2,3.3,0.3,4.9c1.2-2.3,2.4-4.8,3.4-7.4c1.1-2.6,2-5.3,2.9-8c0.8-2.6,1.5-5.3,2-8
			c0.5-2.5,0.7-5,0.8-7.6c0.1-2.4-0.2-4.9-0.8-7.3c-0.5-1.5-1.3-2.2-2.2-2.2c-0.6,0-1.2,0.4-1.7,1.2c-0.7,1.1-1.2,2.2-1.6,3.4
			c-0.5,1.7-1,3.4-1.3,5.1c-0.4,1.9-0.7,4-1,6.3c-0.3,2.2-0.5,4.6-0.6,7C1363.7,356.7,1363.6,359.1,1363.6,361.5z"/>
	</g>
	<g id="Group_27477" transform="translate(-296.362 -112.628)">
		<circle id="Ellipse_496" class="st2" cx="475.4" cy="291.6" r="179"/>
		<path id="Path_30468" class="st2" d="M616.6,391.3c-7.9,9.6-16.8,18.2-26.7,25.7c-3.9,3-15.3,6.8-20,5.3c-3.9-1.2-6.3-5.3-6.7-9.4
			s0.7-8.1,1.9-12c4-12.8,9.2-26.7,4.1-39.1c-4.1-10-13.8-16.5-19.5-25.6c-10.1-16.2-3.9-40.3,12.8-49.7c6.6-3.7,14.3-5.2,21.5-7.7
			c7.2-2.4,14.5-6.3,18.2-12.9c2.3-4.1,2.9-9.6,0-13.4c-3.1-4-9-4.7-14-4s-10,2.5-15.1,2s-10.4-4.4-10-9.4
			c0.4-5.4,6.4-8.3,11.4-10.5s10.5-6.8,8.8-12c-1.7-5.2-10.1-7.8-8.7-13c1-3.5,5.9-4.2,9.3-2.7s6.1,4.2,9.6,5.3s8.4-1.1,8-4.7
			c-0.2-2.2-2.3-3.7-4.1-5.1c-10.4-7.7-18.6-17.9-23.9-29.7c-2-4.5-2.8-11.1,1.7-13.1c3.2-1.4,6.8,0.7,9.6,2.8
			c72.6,55.8,86.8,159.6,31.9,232.8"/>
		<path id="Path_30469" class="st2" d="M450.4,454.9c-2.8-7.7,2.5-9.9,7.4-16.6s11-12.4,14.5-19.8c3.6-7.7,4-16.5,4.3-25.1
			c0.4-11,0.3-23.3-7.3-31.4c-6.9-7.3-17.8-8.6-27.6-10.7c-13.1-2.8-25.6-7.7-37.1-14.6c-4.5-2.7-8.9-5.7-14-7s-11.1-0.6-14.6,3.3
			c-2.7,3-3.4,7.3-4,11.4c-2,14.3-3.6,30.3,5.2,41.7c6.5,8.4,17.3,12.3,24.7,19.9c7.7,7.9,11,18.9,14.7,29.3s8.6,21.2,18,26.9
			c3.3,2,7.4,3.3,11,2.1s6.4-5.6,4.6-9.1"/>
		<path id="Path_30470" class="st2" d="M373.1,334.4c-1.8,2.8-6.4,1.7-8.4-1s-2.5-6.1-4.1-9.1c-2.4-4.6-7-7.4-11.4-10.2
			s-8.9-5.9-10.9-10.6s0.1-11.5,5.2-12.5c4.8-1,10.3,3.4,14.4,0.8c2.3-1.5,3-4.7,2.6-7.4s-1.6-5.3-2.3-8c-2.9-12,6.4-23.8,17.2-29.6
			s23.4-7.6,34.7-12.4c7.3-3.1,14.8-8.1,16.6-15.8c2.1-8.5-3.8-17.5-11.6-21.3s-17.1-3.6-25.7-1.9c-3.7,0.7-7.4,1.7-11.2,1.1
			s-7.5-3-8.2-6.7c-0.9-5.1,4.3-9.4,9.4-10.1s10.2,1,15.3,1.3s11.1-1.2,13.3-5.9c2.2-4.9-0.5-11.6,3.4-15.3
			c3.6-3.5,10.4-1.3,14.2-4.6c1.9-1.6,2.7-4.3,4.8-5.5c3.1-1.8,7.3,0.6,8.7,3.9s1,7.1,0.7,10.6s-0.4,7.5,1.6,10.4
			c3,4.4,9.5,5.1,14.5,3.3s9.2-5.4,13.8-8.1s10.4-4.5,15.3-2.3c3.3,1.5,5.6,4.5,8.2,7.1c4,4.2,9.3,7.6,15.1,7.8
			c5.8,0.2,12-3.9,12.5-9.7c0.3-3.1-1-6.2-2.3-9c-5.9-12.9-13.1-25.5-23.8-34.7s-35.1-17.1-48.8-13.6"/>
		<path id="Path_30471" class="st2" d="M371.7,342.3c-4.4,2.7-10.3,0.8-14.1-2.6s-6.4-8-9.8-11.8c-3.4-3.8-8.4-7-13.5-5.8
			c-6.1,1.3-9.2,8-11.7,13.7c-1.1,2.5-2.9,5.3-5.6,5.1c-3.1-0.3-4.1-4.3-4.5-7.4c-1.7-13.1-7.1-25.4-15.6-35.5"/>
	</g>
	<path id="Path_30972" class="st3" d="M201.3,531.4c0,0-7.5,0.2-7.5,7.9c0,0.6,0,2.5,1.2,4.4c2.3,3.7,6.9,4.1,7.4,4.1"/>
	<path id="Path_30976" class="st0" d="M198.2,470.6c0,0-1.9,1.9,2.9,7.8c4.8,5.9,7.3,4.4,7.3,4.4"/>
	<path id="Path_30975" class="st3" d="M202,610.7c0,0-7.5,0.2-7.5,7.9c0,7.7,8.1,8.2,8.1,8.2"/>
	<path id="Path_30973" class="st0" d="M207.6,558.9c0,0-7.5,0-7.8,8.3c-0.3,8.3,7.8,9.1,7.8,9.1"/>
	<path id="Path_30974" class="st0" d="M207.6,584.9c0,0-7,0-7.4,8.3c-0.5,4.5,2.8,8.6,7.3,9.1"/>
	<path id="Path_30983" class="st0" d="M164.7,553.5v2.4"/>
	<path id="Path_30984" class="st0" d="M164.7,579.5v2.4"/>
	<path id="Path_30985" class="st0" d="M164.7,605.5v2.4"/>
	<path id="Path_31010" class="st4" d="M189,630.7c0,0,11.9,8.4,10.3,22.1s-12.2,25.7-10.3,38.1s10.3,23.6,10.3,23.6"/>
</g>
</svg>
