<svg xmlns="http://www.w3.org/2000/svg" width="653.588" height="465.16" viewBox="0 0 653.588 465.16">
  <g id="Component_2_1" data-name="Component 2 – 1" transform="translate(0.38 0.5)">
    <g id="Group_27832" data-name="Group 27832" transform="translate(-1058.209 -260.109)">
      <g id="Group_27719" data-name="Group 27719" transform="translate(4.616 10.273)">
        <path id="Path_30473" data-name="Path 30473" d="M993.818,543.762s53.413-8.3-273.283,146.816c0,0-15.768,5.546-12.441,15.006s18.718-.12,18.718-.12L989.049,575.1s27.86-12.535,28.8-19.951c0,0-2.729-7-7.248-9.4C1004.5,542.32,993.818,543.762,993.818,543.762Z" transform="translate(652.823 -52.127)" fill="#fff" stroke="#000" stroke-miterlimit="10" stroke-width="0.75" opacity="0.27"/>
        <path id="Path_30474" data-name="Path 30474" d="M382.382,721.97S455.8,671.136,479.773,657.5l23.969-13.64s1.841,2.271,8.147.053,25.961-9.755,29.846-11.747,12.539-5.243,12.894-10.162c0,0,61.177-16.3,77.1-20.233s62.514-10.727,62.514-10.727,42.482-7.228,52.244-7.325,16.749,4.949,23.282,5.152,17.254,1.645,23.637.234,21.569-4.458,26.994-7.409,9.589-10.667,12.591-13.392,11.355-9.2,25.508-14.6,62.565-18.876,62.565-18.876,14.3-3.78,19.955-4.307a87.937,87.937,0,0,1,13.875.332L960.284,545l-2.12,3.455s13.72,53.579,9.144,91.3c0,0,.057,33.316-40.138,47.583l-1.668.65s-48.355,19.039-66.767-9.727l-11.294-25-4.037.377-5.62-16.574-3.153,1.109,4.662,15.036-1.539.958-.506,3.3-3.96,1.184s-7.967-15.541-14.953-20.589c0,0,.732-.882,3.885-1.991a37.28,37.28,0,0,1,11.853,13.55l1.614-.151L827.1,618.523s-3.252-8.653-6.783-11.58-7.642-3.357-12.41-2.1a73.871,73.871,0,0,0-9.461,3.327s-8.729,2.444-9.589,10.668-7.658,48.76-7.658,48.76l-2.271,1.84-3.764,20.71s-2.935,29.589-39.239,41.939l-37.186,11.618s-36.455,10.735-60.242,8.887c0,0-38.393-1.3-55.715-29.809,0,0-7.967-15.542-10.487-25.077l-4.263-2.045-4.21-10.193,9.461-3.327s9.649,42.257,26.194,53.739,28.956,13.58,43.562,13.03,37.209-2.663,59.359-9.619,41.222-12,53.309-22.082,17.035-26.836,18.551-36.749,2.817-30.4,3.041-45.885c.264-18.216-9.068-32.456-21.472-36.778-10.243-3.57-22.932-6.005-37.041-3.206-11.438,2.848-135.575,36.95-135.575,36.95L459.222,716.418l-53.053,7.4-15.013,13.618-4.542,3.682s-6.737,6.33-9.913-1.517S377.916,726.459,382.382,721.97Z" transform="translate(715.651 -49.645)" fill="#fff" stroke="#000" stroke-miterlimit="10" stroke-width="0.75" opacity="0.75"/>
        <path id="Path_30475" data-name="Path 30475" d="M942.521,603.245s-2.409-20.868,13.6-31.078,64.857-32.2,94.587-28.1c0,0,9.716.926,14.058,17.945a244.8,244.8,0,0,1,8.11,52.434c1,20.541-.213,30.437-5.45,46.365,0,0-9.351,16.937-25.855,24.274-13.062,5.806-21.917,7.551-25.07,8.151s-19.1,3.314-27.307.565-15.169-5.307-21.667-19.221-14.672-37.606-14.672-37.606l-7.636-22.825S943.948,611.976,942.521,603.245Z" transform="translate(608.399 -52.144)" fill="#fff" stroke="#000" stroke-miterlimit="10" stroke-width="1" opacity="0.59"/>
        <path id="Path_30476" data-name="Path 30476" d="M692.582,628.368l69.5-18.411s18.472-4.636,35.442.908c21.387,6.986,23.713,22.119,25.692,33.228,0,0,.964,7.439-2.4,47.684,0,0-2.737,29.7-21.986,42.389-18,11.868-57.985,21.827-66.007,23.808s-32.453,5.647-44.024,5.835-44.852-3.741-55.848-29.333c0,0-8.071-14.438-13.742-37.706l77.518-26.135,6.035-11.956Z" transform="translate(669.556 -64.367)" fill="#fff" stroke="#000" stroke-miterlimit="10" stroke-width="0.75" opacity="0.59"/>
        <path id="Path_30477" data-name="Path 30477" d="M418.451,732.216,530.222,664.77s40.317-21.682,60.122-27.605,60.6-16.591,60.6-16.591l12.727,40.34-7.243,12.419-78.511,23.235s-67.413,36-89.617,51.107-37.443,26.3-37.443,26.3l-6.156,3.832-16.8,3.2s-8.729,2.445-13.089-9.363-6.526-26.261-1.63-34.862Z" transform="translate(709.073 -66.719)" fill="#c7c7c7"/>
        <path id="Path_30478" data-name="Path 30478" d="M480.783,754.924s46.828-30.434,81.291-45.054c12.689-5.383,43.117-17.873,59.691-23.494s46-16.013,46-16.013l-6.123,12.4L602.7,702.638s-30.431,9.588-51.654,22.316c0,0-61.791,31.413-76.565,44.3l-25.7,17.976-16.8,3.2S457.7,769.3,480.783,754.924Z" transform="translate(704.985 -76.141)" fill="#ddd"/>
        <g id="Group_27716" data-name="Group 27716" transform="translate(1606.697 303.899)">
          <g id="Group_27715" data-name="Group 27715" transform="translate(0)">
            <g id="Group_27714" data-name="Group 27714">
              <path id="Path_30911" data-name="Path 30911" d="M41.843,178.2H39.674A8.675,8.675,0,0,1,31,169.529v-4.337l2.169-4.337v-4.337a4.336,4.336,0,0,1,4.337-4.337h4.337l9.991-8.742A26.02,26.02,0,0,1,68.97,137H80.424a26.012,26.012,0,0,1,16.256,5.7l14.558,11.645c19.214,3.507,19.517,8.494,19.517,8.494v11.023a4.336,4.336,0,0,1-4.337,4.337h-5.3" transform="translate(-31 -137)" fill="#fff" stroke="#ff2b2b" stroke-miterlimit="10" stroke-width="0.7"/>
              <line id="Line_695" data-name="Line 695" x1="43" transform="translate(28.687 41.828)" fill="none" stroke="#ff2b2b" stroke-miterlimit="10" stroke-width="0.7"/>
              <line id="Line_696" data-name="Line 696" x1="5" transform="translate(52.687 25.828)" fill="none" stroke="#ff2b2b" stroke-miterlimit="10" stroke-width="0.7"/>
              <line id="Line_697" data-name="Line 697" x1="5" transform="translate(2.687 24.828)" fill="none" stroke="#ff2b2b" stroke-miterlimit="10" stroke-width="0.7"/>
              <g id="Group_27712" data-name="Group 27712" transform="translate(72.647 32.529)">
                <circle id="Ellipse_602" data-name="Ellipse 602" cx="8.674" cy="8.674" r="8.674" fill="#fff" stroke="#ff2b2b" stroke-miterlimit="10" stroke-width="0.7"/>
              </g>
              <ellipse id="Ellipse_603" data-name="Ellipse 603" cx="9" cy="8.5" rx="9" ry="8.5" transform="translate(10.687 32.828)" fill="#fff" stroke="#ff2b2b" stroke-miterlimit="10" stroke-width="0.7"/>
              <line id="Line_698" data-name="Line 698" y1="15" transform="translate(46.687 2.828)" fill="none" stroke="#ff2b2b" stroke-linejoin="round" stroke-width="0.7"/>
              <g id="Group_27713" data-name="Group 27713" transform="translate(28.192 6.016)">
                <path id="Path_30910" data-name="Path 30910" d="M96.046,151.107H44l5.524-11.332" transform="translate(-44 -139.774)" fill="#fff" stroke="#ff2b2b" stroke-linejoin="round" stroke-width="0.7"/>
              </g>
            </g>
            <line id="Line_699" data-name="Line 699" x2="7" transform="translate(91.687 28.828)" fill="none" stroke="#ff2b2b" stroke-linejoin="round" stroke-width="0.7"/>
          </g>
        </g>
        <ellipse id="Ellipse_498" data-name="Ellipse 498" cx="13.057" cy="16.071" rx="13.057" ry="16.071" transform="translate(1291.204 581.33) rotate(-22.898)"/>
        <ellipse id="Ellipse_499" data-name="Ellipse 499" cx="2.125" cy="2.225" rx="2.125" ry="2.225" transform="translate(1292.645 597.671) rotate(-22.898)"/>
        <g id="Group_27510" data-name="Group 27510" transform="matrix(0.995, -0.105, 0.105, 0.995, 1283.084, 391.154)">
          <ellipse id="Ellipse_500" data-name="Ellipse 500" cx="14.168" cy="19.178" rx="14.168" ry="19.178" transform="translate(0 178.745) rotate(-23.185)" fill="#fff" stroke="#000" stroke-miterlimit="10" stroke-width="0.75" opacity="0.75"/>
          <ellipse id="Ellipse_501" data-name="Ellipse 501" cx="22.778" cy="29.892" rx="22.778" ry="29.892" transform="translate(9.518 158.391) rotate(-23.185)" fill="#fff" stroke="#000" stroke-miterlimit="10" stroke-width="0.75" opacity="0.75"/>
          <ellipse id="Ellipse_503" data-name="Ellipse 503" cx="34.831" cy="55.295" rx="34.831" ry="55.295" transform="translate(25.718 115.699) rotate(-23.185)" fill="#fff" stroke="#000" stroke-miterlimit="10" stroke-width="0.75" opacity="0.75"/>
        </g>
        <path id="Path_30479" data-name="Path 30479" d="M877.2,687.614l2.033-1.017s2.033-11.179,2.236-11.789,2.845-1.22,2.845-1.22-1.626,12.805-2.033,16.87-.2,10.774-.2,10.774l-4.065.812,1.016-12.2-2.439,1.017" transform="translate(620.851 -76.75)" fill="#fff" stroke="#848484" stroke-miterlimit="10" stroke-width="0.75" opacity="0.75"/>
        <path id="Path_30481" data-name="Path 30481" d="M570.917,640.237c-20.709,16.747-55.568,13.81-82.582,3.938s-51.189-25.44-79.668-31.724c-21.2-4.678-45.165-4.42-62.293-15.859-11.55-7.714-18.035-20.2-17.145-32.279s8.988-23.469,21.055-30.217c14.635-8.185,33.39-9.378,51.222-10.006s36.468-1.111,51.924-8.225,24.28-14.935,24.532-29.587" transform="translate(724.445 -41.305)" fill="none" stroke="#ff2b2b" stroke-miterlimit="10" stroke-width="0.75"/>
        <path id="Path_25592" data-name="Path 25592" d="M506.439,482.324a23.947,23.947,0,0,1-6.7,8.817c-2.656,2.216-6.239,2.9-8.6.37-1.749-1.879-1.836-4.861-.868-7.237a20.606,20.606,0,0,1,4.466-6.6,80.843,80.843,0,0,1,10.4-10.238c.71-.583,1.859-1.46,2.774-1.379,1.035-.028,1.888.216,3.485,1.934l11.363,11.53a12.2,12.2,0,0,1,3.073,5.357c.791,5.732-5.03,8.328-8.352,7.162s-5.7-6.664-7.461-9.711" transform="translate(694.071 -37.478)" fill="none" stroke="#ff2b2b" stroke-linecap="round" stroke-miterlimit="10" stroke-width="0.75"/>
        <ellipse id="Ellipse_507" data-name="Ellipse 507" cx="2.125" cy="2.225" rx="2.125" ry="2.225" transform="translate(1197.576 596.781) rotate(-22.898)" fill="#ff2b2b"/>
        <ellipse id="Ellipse_510" data-name="Ellipse 510" cx="2.125" cy="2.225" rx="2.125" ry="2.225" transform="translate(1199.431 443.484) rotate(-22.898)" fill="#ff2b2b"/>
        <g id="Group_27718" data-name="Group 27718" transform="translate(1456.381 310.603)">
          <path id="Path_30912" data-name="Path 30912" d="M593.286,383.278l13.395,12.88a1.623,1.623,0,0,1,.023,2.314l-2.6,2.6a1.62,1.62,0,0,1-2.238.052l-35.04-31.992a1.62,1.62,0,0,0-2.184,0L529.6,401.121a1.622,1.622,0,0,1-2.24-.052l-2.6-2.6a1.621,1.621,0,0,1,.024-2.314l39.821-38.291a1.622,1.622,0,0,1,2.246,0l13.462,12.944Z" transform="translate(-524.293 -357.415)" fill="none" stroke="#ff2b2b" stroke-linecap="round" stroke-linejoin="round" stroke-width="0.7"/>
          <path id="Path_30913" data-name="Path 30913" d="M563.026,364.377a1.62,1.62,0,0,0-2.184,0l-31.32,28.6v34.238h64.825V392.974Z" transform="translate(-520.492 -352.663)" fill="none" stroke="#ff2b2b" stroke-linecap="round" stroke-linejoin="round" stroke-width="0.7"/>
          <g id="Group_27717" data-name="Group 27717" transform="translate(20.721 42.604)">
            <rect id="Rectangle_9722" data-name="Rectangle 9722" width="17.268" height="25.038" transform="translate(5.18)" stroke-width="0.7" stroke="#ff2b2b" stroke-linecap="round" stroke-linejoin="round" fill="none"/>
            <rect id="Rectangle_9723" data-name="Rectangle 9723" width="27.628" height="6.907" transform="translate(0 25.038)" stroke-width="0.7" stroke="#ff2b2b" stroke-linecap="round" stroke-linejoin="round" fill="none"/>
          </g>
        </g>
        <line id="Line_700" data-name="Line 700" y1="105" x2="85" transform="translate(1372.884 393.227)" fill="none" stroke="#707070" stroke-width="1"/>
        <line id="Line_701" data-name="Line 701" y1="162.621" x2="199.079" transform="translate(1397.805 354.227)" fill="none" stroke="#707070" stroke-width="1"/>
        <line id="Line_702" data-name="Line 702" y1="81" x2="207" transform="translate(1401.884 463.227)" fill="none" stroke="#707070" stroke-width="1"/>
        <g id="Group_27648" data-name="Group 27648" transform="translate(1617.1 393.044)">
          <g id="Group_27536" data-name="Group 27536" transform="translate(0 0)">
            <g id="Group_27534" data-name="Group 27534">
              <rect id="Rectangle_9703" data-name="Rectangle 9703" width="79.375" height="124.235" fill="#fff" stroke="red" stroke-miterlimit="10" stroke-width="0.75"/>
              <g id="Group_27533" data-name="Group 27533" transform="translate(8.982 18.982)">
                <g id="Group_27511" data-name="Group 27511">
                  <line id="Line_534" data-name="Line 534" x2="4.883" fill="none" stroke="#ff2b2b" stroke-miterlimit="10" stroke-width="0.7"/>
                  <line id="Line_535" data-name="Line 535" x2="2.02" transform="translate(6.337)" fill="none" stroke="#ff2b2b" stroke-miterlimit="10" stroke-width="0.7"/>
                  <line id="Line_536" data-name="Line 536" x2="11.198" transform="translate(9.615)" fill="none" stroke="#ff2b2b" stroke-miterlimit="10" stroke-width="0.7"/>
                  <line id="Line_537" data-name="Line 537" x2="5.007" transform="translate(22.07)" fill="none" stroke="#ff2b2b" stroke-miterlimit="10" stroke-width="0.7"/>
                  <line id="Line_538" data-name="Line 538" x2="17.535" transform="translate(28.043)" fill="none" stroke="#ff2b2b" stroke-miterlimit="10" stroke-width="0.7"/>
                  <line id="Line_539" data-name="Line 539" x2="2.967" transform="translate(46.689)" fill="none" stroke="#ff2b2b" stroke-miterlimit="10" stroke-width="0.7"/>
                  <line id="Line_540" data-name="Line 540" x2="11.635" transform="translate(50.768)" fill="none" stroke="#ff2b2b" stroke-miterlimit="10" stroke-width="0.7"/>
                </g>
                <g id="Group_27512" data-name="Group 27512" transform="translate(0 5.069)">
                  <line id="Line_541" data-name="Line 541" x1="4.883" transform="translate(57.52)" fill="none" stroke="#ff2b2b" stroke-miterlimit="10" stroke-width="0.7"/>
                  <line id="Line_542" data-name="Line 542" x1="2.02" transform="translate(54.046)" fill="none" stroke="#ff2b2b" stroke-miterlimit="10" stroke-width="0.7"/>
                  <line id="Line_543" data-name="Line 543" x1="11.198" transform="translate(41.59)" fill="none" stroke="#ff2b2b" stroke-miterlimit="10" stroke-width="0.7"/>
                  <line id="Line_544" data-name="Line 544" x1="5.007" transform="translate(35.326)" fill="none" stroke="#ff2b2b" stroke-miterlimit="10" stroke-width="0.7"/>
                  <line id="Line_545" data-name="Line 545" x1="17.535" transform="translate(16.826)" fill="none" stroke="#ff2b2b" stroke-miterlimit="10" stroke-width="0.7"/>
                  <line id="Line_546" data-name="Line 546" x1="2.967" transform="translate(12.747)" fill="none" stroke="#ff2b2b" stroke-miterlimit="10" stroke-width="0.7"/>
                  <line id="Line_547" data-name="Line 547" x1="11.635" fill="none" stroke="#ff2b2b" stroke-miterlimit="10" stroke-width="0.7"/>
                </g>
                <g id="Group_27513" data-name="Group 27513" transform="translate(0 20.137)">
                  <line id="Line_548" data-name="Line 548" x2="4.883" fill="none" stroke="#ff2b2b" stroke-miterlimit="10" stroke-width="0.7"/>
                  <line id="Line_549" data-name="Line 549" x2="2.02" transform="translate(6.337)" fill="none" stroke="#ff2b2b" stroke-miterlimit="10" stroke-width="0.7"/>
                  <line id="Line_550" data-name="Line 550" x2="11.198" transform="translate(9.615)" fill="none" stroke="#ff2b2b" stroke-miterlimit="10" stroke-width="0.7"/>
                  <line id="Line_551" data-name="Line 551" x2="5.007" transform="translate(22.07)" fill="none" stroke="#ff2b2b" stroke-miterlimit="10" stroke-width="0.7"/>
                  <line id="Line_552" data-name="Line 552" x2="17.535" transform="translate(28.043)" fill="none" stroke="#ff2b2b" stroke-miterlimit="10" stroke-width="0.7"/>
                  <line id="Line_553" data-name="Line 553" x2="2.967" transform="translate(46.689)" fill="none" stroke="#ff2b2b" stroke-miterlimit="10" stroke-width="0.7"/>
                  <line id="Line_554" data-name="Line 554" x2="11.635" transform="translate(50.768)" fill="none" stroke="#ff2b2b" stroke-miterlimit="10" stroke-width="0.7"/>
                </g>
                <g id="Group_27514" data-name="Group 27514" transform="translate(0 25.206)">
                  <line id="Line_555" data-name="Line 555" x1="4.883" transform="translate(57.52)" fill="none" stroke="#ff2b2b" stroke-miterlimit="10" stroke-width="0.7"/>
                  <line id="Line_556" data-name="Line 556" x1="2.02" transform="translate(54.046)" fill="none" stroke="#ff2b2b" stroke-miterlimit="10" stroke-width="0.7"/>
                  <line id="Line_557" data-name="Line 557" x1="11.198" transform="translate(41.59)" fill="none" stroke="#ff2b2b" stroke-miterlimit="10" stroke-width="0.7"/>
                  <line id="Line_558" data-name="Line 558" x1="5.007" transform="translate(35.326)" fill="none" stroke="#ff2b2b" stroke-miterlimit="10" stroke-width="0.7"/>
                  <line id="Line_559" data-name="Line 559" x1="17.535" transform="translate(16.826)" fill="none" stroke="#ff2b2b" stroke-miterlimit="10" stroke-width="0.7"/>
                  <line id="Line_560" data-name="Line 560" x1="2.967" transform="translate(12.747)" fill="none" stroke="#ff2b2b" stroke-miterlimit="10" stroke-width="0.7"/>
                  <line id="Line_561" data-name="Line 561" x1="11.635" fill="none" stroke="#ff2b2b" stroke-miterlimit="10" stroke-width="0.7"/>
                </g>
                <g id="Group_27515" data-name="Group 27515" transform="translate(0 10.307)">
                  <line id="Line_562" data-name="Line 562" x1="2.675" transform="translate(59.728)" fill="none" stroke="#ff2b2b" stroke-miterlimit="10" stroke-width="0.7"/>
                  <line id="Line_563" data-name="Line 563" x1="3.902" transform="translate(54.046)" fill="none" stroke="#ff2b2b" stroke-miterlimit="10" stroke-width="0.7"/>
                  <line id="Line_564" data-name="Line 564" x1="5.989" transform="translate(46.799)" fill="none" stroke="#ff2b2b" stroke-miterlimit="10" stroke-width="0.7"/>
                  <line id="Line_565" data-name="Line 565" x1="9.305" transform="translate(35.326)" fill="none" stroke="#ff2b2b" stroke-miterlimit="10" stroke-width="0.7"/>
                  <line id="Line_566" data-name="Line 566" x1="11.715" transform="translate(22.645)" fill="none" stroke="#ff2b2b" stroke-miterlimit="10" stroke-width="0.7"/>
                  <line id="Line_567" data-name="Line 567" x1="21.174" fill="none" stroke="#ff2b2b" stroke-miterlimit="10" stroke-width="0.7"/>
                </g>
                <g id="Group_27516" data-name="Group 27516" transform="translate(0 15.087)">
                  <line id="Line_568" data-name="Line 568" x2="2.675" fill="none" stroke="#ff2b2b" stroke-miterlimit="10" stroke-width="0.7"/>
                  <line id="Line_569" data-name="Line 569" x2="3.902" transform="translate(4.456)" fill="none" stroke="#ff2b2b" stroke-miterlimit="10" stroke-width="0.7"/>
                  <line id="Line_570" data-name="Line 570" x2="5.989" transform="translate(9.615)" fill="none" stroke="#ff2b2b" stroke-miterlimit="10" stroke-width="0.7"/>
                  <line id="Line_571" data-name="Line 571" x2="9.305" transform="translate(17.771)" fill="none" stroke="#ff2b2b" stroke-miterlimit="10" stroke-width="0.7"/>
                  <line id="Line_572" data-name="Line 572" x2="11.715" transform="translate(28.043)" fill="none" stroke="#ff2b2b" stroke-miterlimit="10" stroke-width="0.7"/>
                  <line id="Line_573" data-name="Line 573" x2="21.174" transform="translate(41.229)" fill="none" stroke="#ff2b2b" stroke-miterlimit="10" stroke-width="0.7"/>
                </g>
                <g id="Group_27517" data-name="Group 27517" transform="translate(0 30.162)">
                  <line id="Line_574" data-name="Line 574" x2="4.883" fill="none" stroke="#ff2b2b" stroke-miterlimit="10" stroke-width="0.7"/>
                  <line id="Line_575" data-name="Line 575" x2="2.02" transform="translate(6.337)" fill="none" stroke="#ff2b2b" stroke-miterlimit="10" stroke-width="0.7"/>
                  <line id="Line_576" data-name="Line 576" x2="11.198" transform="translate(9.615)" fill="none" stroke="#ff2b2b" stroke-miterlimit="10" stroke-width="0.7"/>
                  <line id="Line_577" data-name="Line 577" x2="5.007" transform="translate(22.07)" fill="none" stroke="#ff2b2b" stroke-miterlimit="10" stroke-width="0.7"/>
                  <line id="Line_578" data-name="Line 578" x2="17.535" transform="translate(28.043)" fill="none" stroke="#ff2b2b" stroke-miterlimit="10" stroke-width="0.7"/>
                  <line id="Line_579" data-name="Line 579" x2="2.967" transform="translate(46.689)" fill="none" stroke="#ff2b2b" stroke-miterlimit="10" stroke-width="0.7"/>
                  <line id="Line_580" data-name="Line 580" x2="11.635" transform="translate(50.768)" fill="none" stroke="#ff2b2b" stroke-miterlimit="10" stroke-width="0.7"/>
                </g>
                <g id="Group_27518" data-name="Group 27518" transform="translate(0 35.231)">
                  <line id="Line_581" data-name="Line 581" x1="4.883" transform="translate(57.52)" fill="none" stroke="#ff2b2b" stroke-miterlimit="10" stroke-width="0.7"/>
                  <line id="Line_582" data-name="Line 582" x1="2.02" transform="translate(54.046)" fill="none" stroke="#ff2b2b" stroke-miterlimit="10" stroke-width="0.7"/>
                  <line id="Line_583" data-name="Line 583" x1="11.198" transform="translate(41.59)" fill="none" stroke="#ff2b2b" stroke-miterlimit="10" stroke-width="0.7"/>
                  <line id="Line_584" data-name="Line 584" x1="5.007" transform="translate(35.326)" fill="none" stroke="#ff2b2b" stroke-miterlimit="10" stroke-width="0.7"/>
                  <line id="Line_585" data-name="Line 585" x1="17.535" transform="translate(16.826)" fill="none" stroke="#ff2b2b" stroke-miterlimit="10" stroke-width="0.7"/>
                  <line id="Line_586" data-name="Line 586" x1="2.967" transform="translate(12.747)" fill="none" stroke="#ff2b2b" stroke-miterlimit="10" stroke-width="0.7"/>
                  <line id="Line_587" data-name="Line 587" x1="11.635" fill="none" stroke="#ff2b2b" stroke-miterlimit="10" stroke-width="0.7"/>
                </g>
                <g id="Group_27519" data-name="Group 27519" transform="translate(0 50.299)">
                  <line id="Line_588" data-name="Line 588" x2="4.883" fill="none" stroke="#ff2b2b" stroke-miterlimit="10" stroke-width="0.7"/>
                  <line id="Line_589" data-name="Line 589" x2="2.02" transform="translate(6.337)" fill="none" stroke="#ff2b2b" stroke-miterlimit="10" stroke-width="0.7"/>
                  <line id="Line_590" data-name="Line 590" x2="11.198" transform="translate(9.615)" fill="none" stroke="#ff2b2b" stroke-miterlimit="10" stroke-width="0.7"/>
                  <line id="Line_591" data-name="Line 591" x2="5.007" transform="translate(22.07)" fill="none" stroke="#ff2b2b" stroke-miterlimit="10" stroke-width="0.7"/>
                  <line id="Line_592" data-name="Line 592" x2="17.535" transform="translate(28.043)" fill="none" stroke="#ff2b2b" stroke-miterlimit="10" stroke-width="0.7"/>
                  <line id="Line_593" data-name="Line 593" x2="2.967" transform="translate(46.689)" fill="none" stroke="#ff2b2b" stroke-miterlimit="10" stroke-width="0.7"/>
                  <line id="Line_594" data-name="Line 594" x2="11.635" transform="translate(50.768)" fill="none" stroke="#ff2b2b" stroke-miterlimit="10" stroke-width="0.7"/>
                </g>
                <g id="Group_27520" data-name="Group 27520" transform="translate(0 55.368)">
                  <line id="Line_595" data-name="Line 595" x1="4.883" transform="translate(57.52)" fill="none" stroke="#ff2b2b" stroke-miterlimit="10" stroke-width="0.7"/>
                  <line id="Line_596" data-name="Line 596" x1="2.02" transform="translate(54.046)" fill="none" stroke="#ff2b2b" stroke-miterlimit="10" stroke-width="0.7"/>
                  <line id="Line_597" data-name="Line 597" x1="11.198" transform="translate(41.59)" fill="none" stroke="#ff2b2b" stroke-miterlimit="10" stroke-width="0.7"/>
                  <line id="Line_598" data-name="Line 598" x1="5.007" transform="translate(35.326)" fill="none" stroke="#ff2b2b" stroke-miterlimit="10" stroke-width="0.7"/>
                  <line id="Line_599" data-name="Line 599" x1="17.535" transform="translate(16.826)" fill="none" stroke="#ff2b2b" stroke-miterlimit="10" stroke-width="0.7"/>
                  <line id="Line_600" data-name="Line 600" x1="2.967" transform="translate(12.747)" fill="none" stroke="#ff2b2b" stroke-miterlimit="10" stroke-width="0.7"/>
                  <line id="Line_601" data-name="Line 601" x1="11.635" fill="none" stroke="#ff2b2b" stroke-miterlimit="10" stroke-width="0.7"/>
                </g>
                <g id="Group_27521" data-name="Group 27521" transform="translate(0 40.469)">
                  <line id="Line_602" data-name="Line 602" x1="2.675" transform="translate(59.728)" fill="none" stroke="#ff2b2b" stroke-miterlimit="10" stroke-width="0.7"/>
                  <line id="Line_603" data-name="Line 603" x1="3.902" transform="translate(54.046)" fill="none" stroke="#ff2b2b" stroke-miterlimit="10" stroke-width="0.7"/>
                  <line id="Line_604" data-name="Line 604" x1="5.989" transform="translate(46.799)" fill="none" stroke="#ff2b2b" stroke-miterlimit="10" stroke-width="0.7"/>
                  <line id="Line_605" data-name="Line 605" x1="9.305" transform="translate(35.326)" fill="none" stroke="#ff2b2b" stroke-miterlimit="10" stroke-width="0.7"/>
                  <line id="Line_606" data-name="Line 606" x1="11.715" transform="translate(22.645)" fill="none" stroke="#ff2b2b" stroke-miterlimit="10" stroke-width="0.7"/>
                  <line id="Line_607" data-name="Line 607" x1="21.174" fill="none" stroke="#ff2b2b" stroke-miterlimit="10" stroke-width="0.7"/>
                </g>
                <g id="Group_27522" data-name="Group 27522" transform="translate(0 45.249)">
                  <line id="Line_608" data-name="Line 608" x2="2.675" fill="none" stroke="#ff2b2b" stroke-miterlimit="10" stroke-width="0.7"/>
                  <line id="Line_609" data-name="Line 609" x2="3.902" transform="translate(4.456)" fill="none" stroke="#ff2b2b" stroke-miterlimit="10" stroke-width="0.7"/>
                  <line id="Line_610" data-name="Line 610" x2="5.989" transform="translate(9.615)" fill="none" stroke="#ff2b2b" stroke-miterlimit="10" stroke-width="0.7"/>
                  <line id="Line_611" data-name="Line 611" x2="9.305" transform="translate(17.771)" fill="none" stroke="#ff2b2b" stroke-miterlimit="10" stroke-width="0.7"/>
                  <line id="Line_612" data-name="Line 612" x2="11.715" transform="translate(28.043)" fill="none" stroke="#ff2b2b" stroke-miterlimit="10" stroke-width="0.7"/>
                  <line id="Line_613" data-name="Line 613" x2="21.174" transform="translate(41.229)" fill="none" stroke="#ff2b2b" stroke-miterlimit="10" stroke-width="0.7"/>
                </g>
                <g id="Group_27523" data-name="Group 27523" transform="translate(0 60.324)">
                  <line id="Line_614" data-name="Line 614" x2="4.883" fill="none" stroke="#ff2b2b" stroke-miterlimit="10" stroke-width="0.7"/>
                  <line id="Line_615" data-name="Line 615" x2="2.02" transform="translate(6.337)" fill="none" stroke="#ff2b2b" stroke-miterlimit="10" stroke-width="0.7"/>
                  <line id="Line_616" data-name="Line 616" x2="11.198" transform="translate(9.615)" fill="none" stroke="#ff2b2b" stroke-miterlimit="10" stroke-width="0.7"/>
                  <line id="Line_617" data-name="Line 617" x2="5.007" transform="translate(22.07)" fill="none" stroke="#ff2b2b" stroke-miterlimit="10" stroke-width="0.7"/>
                  <line id="Line_618" data-name="Line 618" x2="17.535" transform="translate(28.043)" fill="none" stroke="#ff2b2b" stroke-miterlimit="10" stroke-width="0.7"/>
                  <line id="Line_619" data-name="Line 619" x2="2.967" transform="translate(46.689)" fill="none" stroke="#ff2b2b" stroke-miterlimit="10" stroke-width="0.7"/>
                  <line id="Line_620" data-name="Line 620" x2="11.635" transform="translate(50.768)" fill="none" stroke="#ff2b2b" stroke-miterlimit="10" stroke-width="0.7"/>
                </g>
                <g id="Group_27524" data-name="Group 27524" transform="translate(0 65.394)">
                  <line id="Line_621" data-name="Line 621" x1="4.883" transform="translate(57.52)" fill="none" stroke="#ff2b2b" stroke-miterlimit="10" stroke-width="0.7"/>
                  <line id="Line_622" data-name="Line 622" x1="2.02" transform="translate(54.046)" fill="none" stroke="#ff2b2b" stroke-miterlimit="10" stroke-width="0.7"/>
                  <line id="Line_623" data-name="Line 623" x1="11.198" transform="translate(41.59)" fill="none" stroke="#ff2b2b" stroke-miterlimit="10" stroke-width="0.7"/>
                  <line id="Line_624" data-name="Line 624" x1="5.007" transform="translate(35.326)" fill="none" stroke="#ff2b2b" stroke-miterlimit="10" stroke-width="0.7"/>
                  <line id="Line_625" data-name="Line 625" x1="17.535" transform="translate(16.826)" fill="none" stroke="#ff2b2b" stroke-miterlimit="10" stroke-width="0.7"/>
                  <line id="Line_626" data-name="Line 626" x1="2.967" transform="translate(12.747)" fill="none" stroke="#ff2b2b" stroke-miterlimit="10" stroke-width="0.7"/>
                  <line id="Line_627" data-name="Line 627" x1="11.635" fill="none" stroke="#ff2b2b" stroke-miterlimit="10" stroke-width="0.7"/>
                </g>
                <g id="Group_27525" data-name="Group 27525" transform="translate(0 80.461)">
                  <line id="Line_628" data-name="Line 628" x2="4.883" fill="none" stroke="#ff2b2b" stroke-miterlimit="10" stroke-width="0.7"/>
                  <line id="Line_629" data-name="Line 629" x2="2.02" transform="translate(6.337)" fill="none" stroke="#ff2b2b" stroke-miterlimit="10" stroke-width="0.7"/>
                  <line id="Line_630" data-name="Line 630" x2="11.198" transform="translate(9.615)" fill="none" stroke="#ff2b2b" stroke-miterlimit="10" stroke-width="0.7"/>
                  <line id="Line_631" data-name="Line 631" x2="5.007" transform="translate(22.07)" fill="none" stroke="#ff2b2b" stroke-miterlimit="10" stroke-width="0.7"/>
                  <line id="Line_632" data-name="Line 632" x2="17.535" transform="translate(28.043)" fill="none" stroke="#ff2b2b" stroke-miterlimit="10" stroke-width="0.7"/>
                  <line id="Line_633" data-name="Line 633" x2="2.967" transform="translate(46.689)" fill="none" stroke="#ff2b2b" stroke-miterlimit="10" stroke-width="0.7"/>
                  <line id="Line_634" data-name="Line 634" x2="11.635" transform="translate(50.768)" fill="none" stroke="#ff2b2b" stroke-miterlimit="10" stroke-width="0.7"/>
                </g>
                <g id="Group_27526" data-name="Group 27526" transform="translate(0 85.53)">
                  <line id="Line_635" data-name="Line 635" x1="4.883" transform="translate(57.52)" fill="none" stroke="#ff2b2b" stroke-miterlimit="10" stroke-width="0.7"/>
                  <line id="Line_636" data-name="Line 636" x1="2.02" transform="translate(54.046)" fill="none" stroke="#ff2b2b" stroke-miterlimit="10" stroke-width="0.7"/>
                  <line id="Line_637" data-name="Line 637" x1="11.198" transform="translate(41.59)" fill="none" stroke="#ff2b2b" stroke-miterlimit="10" stroke-width="0.7"/>
                  <line id="Line_638" data-name="Line 638" x1="5.007" transform="translate(35.326)" fill="none" stroke="#ff2b2b" stroke-miterlimit="10" stroke-width="0.7"/>
                  <line id="Line_639" data-name="Line 639" x1="17.535" transform="translate(16.826)" fill="none" stroke="#ff2b2b" stroke-miterlimit="10" stroke-width="0.7"/>
                  <line id="Line_640" data-name="Line 640" x1="2.967" transform="translate(12.747)" fill="none" stroke="#ff2b2b" stroke-miterlimit="10" stroke-width="0.7"/>
                  <line id="Line_641" data-name="Line 641" x1="11.635" fill="none" stroke="#ff2b2b" stroke-miterlimit="10" stroke-width="0.7"/>
                </g>
                <g id="Group_27527" data-name="Group 27527" transform="translate(0 70.632)">
                  <line id="Line_642" data-name="Line 642" x1="2.675" transform="translate(59.728)" fill="none" stroke="#ff2b2b" stroke-miterlimit="10" stroke-width="0.7"/>
                  <line id="Line_643" data-name="Line 643" x1="3.902" transform="translate(54.046)" fill="none" stroke="#ff2b2b" stroke-miterlimit="10" stroke-width="0.7"/>
                  <line id="Line_644" data-name="Line 644" x1="5.989" transform="translate(46.799)" fill="none" stroke="#ff2b2b" stroke-miterlimit="10" stroke-width="0.7"/>
                  <line id="Line_645" data-name="Line 645" x1="9.305" transform="translate(35.326)" fill="none" stroke="#ff2b2b" stroke-miterlimit="10" stroke-width="0.7"/>
                  <line id="Line_646" data-name="Line 646" x1="11.715" transform="translate(22.645)" fill="none" stroke="#ff2b2b" stroke-miterlimit="10" stroke-width="0.7"/>
                  <line id="Line_647" data-name="Line 647" x1="21.174" fill="none" stroke="#ff2b2b" stroke-miterlimit="10" stroke-width="0.7"/>
                </g>
                <g id="Group_27528" data-name="Group 27528" transform="translate(0 75.411)">
                  <line id="Line_648" data-name="Line 648" x2="2.675" fill="none" stroke="#ff2b2b" stroke-miterlimit="10" stroke-width="0.7"/>
                  <line id="Line_649" data-name="Line 649" x2="3.902" transform="translate(4.456)" fill="none" stroke="#ff2b2b" stroke-miterlimit="10" stroke-width="0.7"/>
                  <line id="Line_650" data-name="Line 650" x2="5.989" transform="translate(9.615)" fill="none" stroke="#ff2b2b" stroke-miterlimit="10" stroke-width="0.7"/>
                  <line id="Line_651" data-name="Line 651" x2="9.305" transform="translate(17.771)" fill="none" stroke="#ff2b2b" stroke-miterlimit="10" stroke-width="0.7"/>
                  <line id="Line_652" data-name="Line 652" x2="11.715" transform="translate(28.043)" fill="none" stroke="#ff2b2b" stroke-miterlimit="10" stroke-width="0.7"/>
                  <line id="Line_653" data-name="Line 653" x2="21.174" transform="translate(41.229)" fill="none" stroke="#ff2b2b" stroke-miterlimit="10" stroke-width="0.7"/>
                </g>
                <g id="Group_27529" data-name="Group 27529" transform="translate(0 90.487)">
                  <line id="Line_654" data-name="Line 654" x2="4.883" fill="none" stroke="#ff2b2b" stroke-miterlimit="10" stroke-width="0.7"/>
                  <line id="Line_655" data-name="Line 655" x2="2.02" transform="translate(6.337)" fill="none" stroke="#ff2b2b" stroke-miterlimit="10" stroke-width="0.7"/>
                  <line id="Line_656" data-name="Line 656" x2="11.198" transform="translate(9.615)" fill="none" stroke="#ff2b2b" stroke-miterlimit="10" stroke-width="0.7"/>
                  <line id="Line_657" data-name="Line 657" x2="5.007" transform="translate(22.07)" fill="none" stroke="#ff2b2b" stroke-miterlimit="10" stroke-width="0.7"/>
                </g>
              </g>
              <line id="Line_680" data-name="Line 680" x2="6.848" transform="translate(8.759 10.274)" fill="none" stroke="#ff2b2b" stroke-miterlimit="10" stroke-width="1"/>
              <line id="Line_681" data-name="Line 681" x1="4.965" transform="translate(66.408 4.627)" fill="none" stroke="#ff2b2b" stroke-miterlimit="10" stroke-width="1"/>
              <line id="Line_682" data-name="Line 682" x1="3.364" transform="translate(61.472 4.627)" fill="none" stroke="#ff2b2b" stroke-miterlimit="10" stroke-width="1"/>
              <line id="Line_683" data-name="Line 683" x2="4.557" transform="translate(8.857 12.448)" fill="none" stroke="#ff2b2b" stroke-miterlimit="10" stroke-width="1"/>
            </g>
          </g>
        </g>
        <g id="Group_27750" data-name="Group 27750" transform="translate(162.416 -63.506)">
          <g id="Group_27751" data-name="Group 27751" transform="translate(990.384 313.342)">
            <path id="Path_30942" data-name="Path 30942" d="M709.006,649.364V511.227a17.6,17.6,0,0,1,17.6-17.6h60.86a17.6,17.6,0,0,1,17.6,17.6V649.364a17.6,17.6,0,0,1-17.6,17.6H726.605A17.6,17.6,0,0,1,709.006,649.364Z" transform="translate(-709.006 -493.627)" fill="none" stroke="#555" stroke-miterlimit="10" stroke-width="1"/>
            <circle id="Ellipse_604" data-name="Ellipse 604" cx="8.235" cy="8.235" r="8.235" transform="matrix(0.905, -0.426, 0.426, 0.905, 37.071, 154.876)" fill="none" stroke="#555" stroke-miterlimit="10" stroke-width="1"/>
            <line id="Line_706" data-name="Line 706" x2="96.06" transform="translate(0 144.3)" fill="none" stroke="#555" stroke-miterlimit="10" stroke-width="1"/>
            <g id="Group_27750-2" data-name="Group 27750" transform="translate(34.087 9.577)">
              <line id="Line_707" data-name="Line 707" x1="20.427" transform="translate(7.459)" fill="none" stroke="#555" stroke-miterlimit="10" stroke-width="1"/>
              <line id="Line_708" data-name="Line 708" x1="4.941" transform="translate(0)" fill="none" stroke="#555" stroke-miterlimit="10" stroke-width="1"/>
            </g>
          </g>
        </g>
      </g>
    </g>
  </g>
</svg>
