<svg id="Component_20_1" data-name="Component 20 – 1" xmlns="http://www.w3.org/2000/svg" width="740.646" height="426.923" viewBox="0 0 740.646 426.923">
  <path id="Path_30982" data-name="Path 30982" d="M2.771-12.364H1.642V0H2.771ZM6.906-5.8A2.43,2.43,0,0,1,9.43-8.409,2.248,2.248,0,0,1,11.772-5.94V0h1.075V-6.007c0-2.2-1.274-3.387-3.145-3.387A2.808,2.808,0,0,0,6.973-7.818h-.1V-9.273H5.832V0H6.906ZM19.5-9.273H17.447v-1.135a1.348,1.348,0,0,1,1.461-1.515,2.075,2.075,0,0,1,.737.133l.314-.942a2.9,2.9,0,0,0-1.147-.205,2.292,2.292,0,0,0-2.445,2.306v1.358H14.941v.936h1.425V0h1.075l.006-8.337H19.5ZM25.011.193A3.578,3.578,0,0,0,28.543-1.98l-1.02-.332A2.583,2.583,0,0,1,25.011-.791c-1.9,0-3.1-1.382-3.145-3.526h6.906v-.531c0-3.1-1.914-4.552-3.924-4.552-2.4,0-4.063,2.01-4.063,4.817S22.415.193,25.011.193ZM21.872-5.264a3.123,3.123,0,0,1,2.976-3.157,2.916,2.916,0,0,1,2.825,3.157ZM31.132,0h1.075V-5.989a2.362,2.362,0,0,1,2.505-2.373,4.554,4.554,0,0,1,.646.06V-9.393c-.145-.006-.392-.018-.567-.018a2.664,2.664,0,0,0-2.536,1.564h-.078V-9.273H31.132Zm9.52.193A3.578,3.578,0,0,0,44.184-1.98l-1.02-.332A2.583,2.583,0,0,1,40.653-.791c-1.9,0-3.1-1.382-3.145-3.526h6.906v-.531c0-3.1-1.914-4.552-3.924-4.552-2.4,0-4.063,2.01-4.063,4.817S38.057.193,40.653.193ZM37.513-5.264A3.123,3.123,0,0,1,40.49-8.422a2.916,2.916,0,0,1,2.825,3.157ZM47.849-5.8a2.43,2.43,0,0,1,2.523-2.614A2.248,2.248,0,0,1,52.714-5.94V0h1.075V-6.007c0-2.2-1.274-3.387-3.145-3.387a2.808,2.808,0,0,0-2.729,1.576h-.1V-9.273H46.774V0h1.075ZM60.249.193a3.387,3.387,0,0,0,3.538-2.9H62.7A2.384,2.384,0,0,1,60.249-.791c-1.817,0-3.018-1.582-3.018-3.839s1.238-3.791,3.018-3.791a2.409,2.409,0,0,1,2.445,1.9H63.78A3.4,3.4,0,0,0,60.23-9.4C57.8-9.4,56.15-7.383,56.15-4.594,56.15-1.829,57.755.193,60.249.193Zm9.587,0A3.578,3.578,0,0,0,73.367-1.98l-1.02-.332A2.583,2.583,0,0,1,69.835-.791c-1.9,0-3.1-1.382-3.145-3.526H73.6v-.531c0-3.1-1.914-4.552-3.924-4.552-2.4,0-4.063,2.01-4.063,4.817S67.239.193,69.835.193ZM66.7-5.264a3.123,3.123,0,0,1,2.976-3.157A2.916,2.916,0,0,1,72.5-5.264ZM80.961,0h7.293V-1.014H82.09V-5.681h5.663V-6.695H82.09v-4.654h6.043v-1.014H80.961ZM91.9-5.8a2.43,2.43,0,0,1,2.523-2.614A2.248,2.248,0,0,1,96.766-5.94V0h1.075V-6.007c0-2.2-1.274-3.387-3.145-3.387a2.808,2.808,0,0,0-2.729,1.576h-.1V-9.273H90.826V0H91.9ZM104.216,3.67c2.2,0,3.827-1.075,3.827-3.429V-9.273h-1.05V-7.5h-.109a2.961,2.961,0,0,0-2.849-1.9c-2.294,0-3.833,1.92-3.833,4.739,0,2.843,1.594,4.564,3.815,4.564a2.911,2.911,0,0,0,2.849-1.817h.1V.175c0,1.727-1.1,2.529-2.747,2.529a2.87,2.87,0,0,1-2.741-1.473l-.881.58A3.777,3.777,0,0,0,104.216,3.67Zm-.072-4.751c-1.841,0-2.862-1.473-2.862-3.6,0-2.089,1-3.743,2.862-3.743,1.817,0,2.837,1.57,2.837,3.743C106.98-2.439,105.93-1.081,104.143-1.081ZM110.9,0h1.081V-9.273H110.9Zm.549-10.866a.8.8,0,0,0,.809-.773.8.8,0,0,0-.809-.773.793.793,0,0,0-.8.773A.793.793,0,0,0,111.454-10.866ZM115.909-5.8a2.43,2.43,0,0,1,2.523-2.614,2.248,2.248,0,0,1,2.342,2.469V0h1.075V-6.007c0-2.2-1.274-3.387-3.145-3.387a2.808,2.808,0,0,0-2.729,1.576h-.1V-9.273h-1.044V0h1.075ZM128.436.193a3.578,3.578,0,0,0,3.532-2.173l-1.02-.332a2.583,2.583,0,0,1-2.511,1.521c-1.9,0-3.1-1.382-3.145-3.526H132.2v-.531c0-3.1-1.914-4.552-3.924-4.552-2.4,0-4.063,2.01-4.063,4.817S125.84.193,128.436.193ZM125.3-5.264a3.123,3.123,0,0,1,2.976-3.157A2.916,2.916,0,0,1,131.1-5.264Z" transform="translate(526.23 80.983)" fill="red"/>
  <path id="Path_30981" data-name="Path 30981" d="M1.66,0,2.982-3.725H8.174L9.5,0h1.183l-4.5-12.364H4.974L.477,0ZM3.344-4.739,5.536-10.9H5.62L7.812-4.739ZM13.65-5.8a2.43,2.43,0,0,1,2.523-2.614A2.248,2.248,0,0,1,18.515-5.94V0H19.59V-6.007c0-2.2-1.274-3.387-3.145-3.387a2.808,2.808,0,0,0-2.729,1.576h-.1V-9.273H12.575V0H13.65ZM25.017.211a3.054,3.054,0,0,0,2.874-1.678h.066V0h1.075V-6.3c0-2.487-1.871-3.1-3.29-3.1a3.564,3.564,0,0,0-3.507,2.077l1.02.368a2.575,2.575,0,0,1,2.517-1.479,1.932,1.932,0,0,1,2.185,2.04v.217c0,.7-.869.712-2.427.906-2.095.26-3.562.845-3.562,2.68A2.787,2.787,0,0,0,25.017.211Zm.145-.984c-1.213,0-2.119-.646-2.119-1.769s.918-1.594,2.487-1.787A6.579,6.579,0,0,0,27.957-4.9v1.34A2.7,2.7,0,0,1,25.162-.773Zm7.8-11.591H31.887V0h1.075ZM36.548,3.477a2.611,2.611,0,0,0,2.505-2.01l3.93-10.722-1.171-.018L39.059-1.419h-.085L36.222-9.273H35.056L38.467.091l-.338.942c-.513,1.4-1.238,1.648-2.33,1.3l-.29.948A2.667,2.667,0,0,0,36.548,3.477ZM48.73-9.273H46.768v-2.222H45.687v2.222H44.305v.936h1.382v6.17A2.271,2.271,0,0,0,48.072.139a2.588,2.588,0,0,0,.954-.163L48.8-1a2.206,2.206,0,0,1-.628.085c-.73,0-1.4-.344-1.4-1.509V-8.337H48.73ZM51.181,0h1.081V-9.273H51.181Zm.549-10.866a.8.8,0,0,0,.809-.773.8.8,0,0,0-.809-.773.793.793,0,0,0-.8.773A.793.793,0,0,0,51.73-10.866Zm7,11.06a3.387,3.387,0,0,0,3.538-2.9H61.184A2.384,2.384,0,0,1,58.733-.791c-1.817,0-3.018-1.582-3.018-3.839s1.238-3.791,3.018-3.791a2.409,2.409,0,0,1,2.445,1.9h1.087a3.4,3.4,0,0,0-3.55-2.88c-2.427,0-4.081,2.016-4.081,4.805C54.634-1.829,56.24.193,58.733.193Zm8.428.018a3.054,3.054,0,0,0,2.874-1.678H70.1V0h1.075V-6.3c0-2.487-1.871-3.1-3.29-3.1a3.564,3.564,0,0,0-3.507,2.077l1.02.368a2.575,2.575,0,0,1,2.517-1.479A1.932,1.932,0,0,1,70.1-6.393v.217c0,.7-.869.712-2.427.906-2.095.26-3.562.845-3.562,2.68A2.787,2.787,0,0,0,67.161.211Zm.145-.984c-1.213,0-2.119-.646-2.119-1.769s.918-1.594,2.487-1.787A6.579,6.579,0,0,0,70.1-4.9v1.34A2.7,2.7,0,0,1,67.306-.773Zm7.8-11.591H74.031V0h1.075ZM82.947,0H90.24V-1.014H84.076V-5.681h5.663V-6.695H84.076v-4.654h6.043v-1.014H82.947ZM93.886-5.8A2.43,2.43,0,0,1,96.41-8.409,2.248,2.248,0,0,1,98.752-5.94V0h1.075V-6.007c0-2.2-1.274-3.387-3.145-3.387a2.808,2.808,0,0,0-2.729,1.576h-.1V-9.273H92.812V0h1.075ZM106.2,3.67c2.2,0,3.827-1.075,3.827-3.429V-9.273h-1.05V-7.5h-.109a2.961,2.961,0,0,0-2.849-1.9c-2.294,0-3.833,1.92-3.833,4.739C102.187-1.817,103.781-.1,106-.1a2.911,2.911,0,0,0,2.849-1.817h.1V.175c0,1.727-1.1,2.529-2.747,2.529a2.87,2.87,0,0,1-2.741-1.473l-.881.58A3.777,3.777,0,0,0,106.2,3.67Zm-.072-4.751c-1.841,0-2.862-1.473-2.862-3.6,0-2.089,1-3.743,2.862-3.743,1.817,0,2.837,1.57,2.837,3.743C108.967-2.439,107.916-1.081,106.129-1.081ZM112.891,0h1.081V-9.273h-1.081Zm.549-10.866a.8.8,0,0,0,.809-.773.8.8,0,0,0-.809-.773.793.793,0,0,0-.8.773A.793.793,0,0,0,113.44-10.866ZM117.9-5.8a2.43,2.43,0,0,1,2.523-2.614,2.248,2.248,0,0,1,2.342,2.469V0h1.075V-6.007c0-2.2-1.274-3.387-3.145-3.387a2.808,2.808,0,0,0-2.729,1.576h-.1V-9.273h-1.044V0H117.9ZM130.422.193a3.578,3.578,0,0,0,3.532-2.173l-1.02-.332a2.583,2.583,0,0,1-2.511,1.521c-1.9,0-3.1-1.382-3.145-3.526h6.906v-.531c0-3.1-1.914-4.552-3.924-4.552-2.4,0-4.063,2.01-4.063,4.817S127.826.193,130.422.193Zm-3.139-5.457a3.123,3.123,0,0,1,2.976-3.157,2.916,2.916,0,0,1,2.825,3.157Z" transform="translate(-0.477 206.754)" fill="red"/>
  <path id="Path_30980" data-name="Path 30980" d="M8.355-9.273H9.448c-.085-1.877-1.708-3.266-4.009-3.266-2.282,0-4.039,1.37-4.039,3.363,0,1.588,1.123,2.584,3.061,3.157l1.479.435c1.533.447,2.584,1.02,2.584,2.282,0,1.485-1.346,2.481-3.194,2.481-1.666,0-2.97-.8-3.091-2.27H1.081c.133,1.956,1.727,3.3,4.25,3.3,2.68,0,4.286-1.515,4.286-3.5C9.617-5.337,7.83-6.158,6.26-6.6l-1.3-.374c-1.2-.338-2.463-.948-2.463-2.252,0-1.328,1.189-2.3,2.916-2.3C7.045-11.525,8.216-10.649,8.355-9.273Zm10.7,0h1.093c-.085-1.877-1.708-3.266-4.009-3.266-2.282,0-4.039,1.37-4.039,3.363,0,1.588,1.123,2.584,3.061,3.157l1.479.435c1.533.447,2.584,1.02,2.584,2.282,0,1.485-1.346,2.481-3.194,2.481-1.666,0-2.97-.8-3.091-2.27H11.778c.133,1.956,1.727,3.3,4.25,3.3,2.68,0,4.286-1.515,4.286-3.5,0-2.053-1.787-2.874-3.357-3.314l-1.3-.374c-1.2-.338-2.463-.948-2.463-2.252,0-1.328,1.189-2.3,2.916-2.3C17.743-11.525,18.914-10.649,19.053-9.273Zm4,9.273,1.322-3.725h5.192L30.891,0h1.183l-4.5-12.364H26.369L21.872,0Zm1.684-4.739L26.931-10.9h.085l2.191,6.158ZM48.658-8.5a4.818,4.818,0,0,0-4.9-4.033c-3.121,0-5.343,2.481-5.343,6.351S40.641.169,43.762.169a4.823,4.823,0,0,0,4.9-4.033H47.523a3.734,3.734,0,0,1-3.761,2.97c-2.342,0-4.25-1.853-4.25-5.288s1.908-5.288,4.25-5.288A3.739,3.739,0,0,1,47.523-8.5ZM51.839,3.477a2.611,2.611,0,0,0,2.505-2.01l3.93-10.722L57.1-9.273,54.35-1.419h-.085L51.513-9.273H50.348L53.759.091l-.338.942c-.513,1.4-1.238,1.648-2.33,1.3l-.29.948A2.667,2.667,0,0,0,51.839,3.477ZM63.653.193a3.387,3.387,0,0,0,3.538-2.9H66.1A2.384,2.384,0,0,1,63.653-.791c-1.817,0-3.018-1.582-3.018-3.839s1.238-3.791,3.018-3.791A2.409,2.409,0,0,1,66.1-6.52h1.087a3.4,3.4,0,0,0-3.55-2.88c-2.427,0-4.081,2.016-4.081,4.805C59.554-1.829,61.16.193,63.653.193Zm6.912-12.557H69.491V0h1.075ZM77.152.193A3.578,3.578,0,0,0,80.684-1.98l-1.02-.332A2.583,2.583,0,0,1,77.152-.791c-1.9,0-3.1-1.382-3.145-3.526h6.906v-.531c0-3.1-1.914-4.552-3.924-4.552-2.4,0-4.063,2.01-4.063,4.817S74.556.193,77.152.193ZM74.013-5.264a3.123,3.123,0,0,1,2.976-3.157,2.916,2.916,0,0,1,2.825,3.157ZM89.5-7.238A3.01,3.01,0,0,0,86.364-9.4c-1.871,0-3.23,1.069-3.23,2.6,0,1.244.755,2.089,2.366,2.475l1.515.362c1.02.241,1.509.767,1.509,1.509,0,.966-.924,1.684-2.348,1.684a2.114,2.114,0,0,1-2.318-1.672l-1.032.254C83.153-.646,84.378.193,86.2.193c2.04,0,3.441-1.123,3.441-2.7,0-1.238-.779-2.065-2.33-2.445l-1.4-.344c-1.153-.29-1.69-.755-1.69-1.558,0-.942.9-1.6,2.149-1.6A2.079,2.079,0,0,1,88.52-6.961Z" transform="translate(70.167 80.983)" fill="red"/>
  <path id="Path_30983" data-name="Path 30983" d="M11.325-8.5a4.818,4.818,0,0,0-4.9-4.033c-3.121,0-5.343,2.481-5.343,6.351S3.308.169,6.429.169a4.823,4.823,0,0,0,4.9-4.033H10.19A3.734,3.734,0,0,1,6.429-.893c-2.342,0-4.25-1.853-4.25-5.288s1.908-5.288,4.25-5.288A3.739,3.739,0,0,1,10.19-8.5ZM17.362.193c2.4,0,4.081-1.962,4.081-4.787,0-2.843-1.678-4.805-4.081-4.805s-4.081,1.962-4.081,4.805C13.281-1.769,14.96.193,17.362.193Zm0-.984c-1.926,0-3-1.727-3-3.8s1.075-3.827,3-3.827,3,1.751,3,3.827S19.288-.791,17.362-.791Zm7.516-5A2.43,2.43,0,0,1,27.4-8.409,2.248,2.248,0,0,1,29.744-5.94V0h1.075V-6.007c0-2.2-1.274-3.387-3.145-3.387a2.808,2.808,0,0,0-2.729,1.576h-.1V-9.273H23.8V0h1.075ZM36.994.193a2.977,2.977,0,0,0,2.849-1.914h.127V0h1.05V-12.364H39.94V-7.5h-.1a2.929,2.929,0,0,0-2.831-1.9c-2.288,0-3.833,1.932-3.833,4.787C33.179-1.733,34.718.193,36.994.193Zm.127-.984c-1.847,0-2.862-1.678-2.862-3.839,0-2.137,1-3.791,2.862-3.791,1.811,0,2.837,1.57,2.837,3.791C39.958-2.391,38.92-.791,37.121-.791ZM44.094,0h1.081V-9.273H44.094Zm.549-10.866a.8.8,0,0,0,.809-.773.8.8,0,0,0-.809-.773.793.793,0,0,0-.8.773A.793.793,0,0,0,44.643-10.866Zm7.033,1.594H49.714v-2.222H48.634v2.222H47.251v.936h1.382v6.17A2.271,2.271,0,0,0,51.018.139a2.588,2.588,0,0,0,.954-.163L51.743-1a2.206,2.206,0,0,1-.628.085c-.73,0-1.4-.344-1.4-1.509V-8.337h1.962ZM54.127,0h1.081V-9.273H54.127Zm.549-10.866a.8.8,0,0,0,.809-.773.8.8,0,0,0-.809-.773.793.793,0,0,0-.8.773A.793.793,0,0,0,54.676-10.866ZM61.661.193c2.4,0,4.081-1.962,4.081-4.787,0-2.843-1.678-4.805-4.081-4.805S57.58-7.437,57.58-4.594C57.58-1.769,59.259.193,61.661.193Zm0-.984c-1.926,0-3-1.727-3-3.8s1.075-3.827,3-3.827,3,1.751,3,3.827S63.587-.791,61.661-.791Zm7.516-5A2.43,2.43,0,0,1,71.7-8.409,2.248,2.248,0,0,1,74.043-5.94V0h1.075V-6.007c0-2.2-1.274-3.387-3.145-3.387a2.808,2.808,0,0,0-2.729,1.576h-.1V-9.273H68.1V0h1.075ZM80.545.211a3.054,3.054,0,0,0,2.874-1.678h.066V0h1.075V-6.3c0-2.487-1.871-3.1-3.29-3.1a3.564,3.564,0,0,0-3.507,2.077l1.02.368A2.575,2.575,0,0,1,81.3-8.434a1.932,1.932,0,0,1,2.185,2.04v.217c0,.7-.869.712-2.427.906-2.095.26-3.562.845-3.562,2.68A2.787,2.787,0,0,0,80.545.211Zm.145-.984c-1.213,0-2.119-.646-2.119-1.769s.918-1.594,2.487-1.787A6.579,6.579,0,0,0,83.485-4.9v1.34A2.7,2.7,0,0,1,80.69-.773Zm7.8-11.591H87.415V0h1.075ZM96.331,0H97.46V-4.727h2.88a3.627,3.627,0,0,0,3.966-3.821,3.628,3.628,0,0,0-3.984-3.815h-3.99ZM97.46-5.741v-5.608h2.831a2.618,2.618,0,0,1,2.9,2.8,2.619,2.619,0,0,1-2.886,2.807ZM110.246.193c2.4,0,4.081-1.962,4.081-4.787,0-2.843-1.678-4.805-4.081-4.805s-4.081,1.962-4.081,4.805C106.165-1.769,107.844.193,110.246.193Zm0-.984c-1.926,0-3-1.727-3-3.8s1.075-3.827,3-3.827,3,1.751,3,3.827S112.172-.791,110.246-.791ZM120.34-9.273h-1.962v-2.222H117.3v2.222h-1.382v.936H117.3v6.17A2.271,2.271,0,0,0,119.682.139a2.588,2.588,0,0,0,.954-.163L120.407-1a2.206,2.206,0,0,1-.628.085c-.73,0-1.4-.344-1.4-1.509V-8.337h1.962ZM126.431.193a3.578,3.578,0,0,0,3.532-2.173l-1.02-.332a2.583,2.583,0,0,1-2.511,1.521c-1.9,0-3.1-1.382-3.145-3.526h6.906v-.531c0-3.1-1.914-4.552-3.924-4.552-2.4,0-4.063,2.01-4.063,4.817S123.836.193,126.431.193Zm-3.139-5.457a3.123,3.123,0,0,1,2.976-3.157,2.916,2.916,0,0,1,2.825,3.157ZM133.627-5.8a2.43,2.43,0,0,1,2.523-2.614,2.248,2.248,0,0,1,2.342,2.469V0h1.075V-6.007c0-2.2-1.274-3.387-3.145-3.387a2.808,2.808,0,0,0-2.729,1.576h-.1V-9.273h-1.044V0h1.075Zm12.43-3.477H144.1v-2.222h-1.081v2.222h-1.382v.936h1.382v6.17A2.271,2.271,0,0,0,145.4.139a2.588,2.588,0,0,0,.954-.163L146.124-1a2.206,2.206,0,0,1-.628.085c-.73,0-1.4-.344-1.4-1.509V-8.337h1.962ZM148.509,0h1.081V-9.273h-1.081Zm.549-10.866a.8.8,0,0,0,.809-.773.8.8,0,0,0-.809-.773.793.793,0,0,0-.8.773A.793.793,0,0,0,149.058-10.866ZM155.028.211A3.054,3.054,0,0,0,157.9-1.467h.066V0h1.075V-6.3c0-2.487-1.871-3.1-3.29-3.1a3.564,3.564,0,0,0-3.507,2.077l1.02.368a2.575,2.575,0,0,1,2.517-1.479,1.932,1.932,0,0,1,2.185,2.04v.217c0,.7-.869.712-2.427.906-2.095.26-3.562.845-3.562,2.68A2.787,2.787,0,0,0,155.028.211Zm.145-.984c-1.213,0-2.119-.646-2.119-1.769s.918-1.594,2.487-1.787a6.579,6.579,0,0,0,2.427-.567v1.34A2.7,2.7,0,0,1,155.173-.773Zm7.8-11.591H161.9V0h1.075ZM165.822,0H166.9V-9.273h-1.081Zm.549-10.866a.8.8,0,0,0,.809-.773.8.8,0,0,0-.809-.773.793.793,0,0,0-.8.773A.793.793,0,0,0,166.372-10.866ZM173.4-9.273h-1.962v-2.222h-1.081v2.222H168.98v.936h1.382v6.17A2.271,2.271,0,0,0,172.747.139a2.588,2.588,0,0,0,.954-.163L173.471-1a2.206,2.206,0,0,1-.628.085c-.73,0-1.4-.344-1.4-1.509V-8.337H173.4ZM175.856,0h1.081V-9.273h-1.081Zm.549-10.866a.8.8,0,0,0,.809-.773.8.8,0,0,0-.809-.773.793.793,0,0,0-.8.773A.793.793,0,0,0,176.405-10.866Zm7.13,11.06a3.578,3.578,0,0,0,3.532-2.173l-1.02-.332a2.583,2.583,0,0,1-2.511,1.521c-1.9,0-3.1-1.382-3.145-3.526H187.3v-.531c0-3.1-1.914-4.552-3.924-4.552-2.4,0-4.063,2.01-4.063,4.817S180.939.193,183.535.193ZM180.4-5.264a3.123,3.123,0,0,1,2.976-3.157A2.916,2.916,0,0,1,186.2-5.264Zm15.491-1.974A3.01,3.01,0,0,0,192.747-9.4c-1.871,0-3.23,1.069-3.23,2.6,0,1.244.755,2.089,2.366,2.475l1.515.362c1.02.241,1.509.767,1.509,1.509,0,.966-.924,1.684-2.348,1.684a2.114,2.114,0,0,1-2.318-1.672l-1.032.254c.326,1.545,1.551,2.385,3.369,2.385,2.04,0,3.441-1.123,3.441-2.7,0-1.238-.779-2.065-2.33-2.445l-1.4-.344c-1.153-.29-1.69-.755-1.69-1.558,0-.942.9-1.6,2.149-1.6A2.079,2.079,0,0,1,194.9-6.961Z" transform="translate(544.627 229.664)" fill="red"/>
  <path id="Path_30984" data-name="Path 30984" d="M1.642-12.364V0H2.7V-9.979h.1L6.973,0H8L12.17-9.979h.1V0H13.33V-12.364h-1.3L7.54-1.594H7.431L2.946-12.364ZM18.98.211a3.054,3.054,0,0,0,2.874-1.678h.066V0h1.075V-6.3c0-2.487-1.871-3.1-3.29-3.1A3.564,3.564,0,0,0,16.2-7.323l1.02.368a2.575,2.575,0,0,1,2.517-1.479,1.932,1.932,0,0,1,2.185,2.04v.217c0,.7-.869.712-2.427.906-2.095.26-3.562.845-3.562,2.68A2.787,2.787,0,0,0,18.98.211Zm.145-.984c-1.213,0-2.119-.646-2.119-1.769s.918-1.594,2.487-1.787A6.579,6.579,0,0,0,21.92-4.9v1.34A2.7,2.7,0,0,1,19.125-.773ZM29.472.193A3.387,3.387,0,0,0,33.01-2.7H31.923A2.384,2.384,0,0,1,29.472-.791c-1.817,0-3.018-1.582-3.018-3.839s1.238-3.791,3.018-3.791a2.409,2.409,0,0,1,2.445,1.9H33a3.4,3.4,0,0,0-3.55-2.88c-2.427,0-4.081,2.016-4.081,4.805C25.373-1.829,26.979.193,29.472.193ZM36.385-5.8a2.454,2.454,0,0,1,2.572-2.614A2.245,2.245,0,0,1,41.311-5.94V0h1.081V-6.007c0-2.21-1.28-3.387-3.163-3.387a2.776,2.776,0,0,0-2.747,1.576h-.1v-4.546H35.31V0h1.075ZM45.241,0h1.081V-9.273H45.241Zm.549-10.866a.8.8,0,0,0,.809-.773.8.8,0,0,0-.809-.773.793.793,0,0,0-.8.773A.793.793,0,0,0,45.79-10.866ZM50.245-5.8a2.43,2.43,0,0,1,2.523-2.614A2.248,2.248,0,0,1,55.111-5.94V0h1.075V-6.007c0-2.2-1.274-3.387-3.145-3.387a2.808,2.808,0,0,0-2.729,1.576h-.1V-9.273H49.171V0h1.075ZM62.772.193A3.578,3.578,0,0,0,66.3-1.98l-1.02-.332A2.583,2.583,0,0,1,62.772-.791c-1.9,0-3.1-1.382-3.145-3.526h6.906v-.531c0-3.1-1.914-4.552-3.924-4.552-2.4,0-4.063,2.01-4.063,4.817S60.176.193,62.772.193ZM59.633-5.264a3.123,3.123,0,0,1,2.976-3.157,2.916,2.916,0,0,1,2.825,3.157ZM73.9,0h7.021V-1.014H75.027V-12.364H73.9ZM86.986.193A3.578,3.578,0,0,0,90.518-1.98L89.5-2.312A2.583,2.583,0,0,1,86.986-.791c-1.9,0-3.1-1.382-3.145-3.526h6.906v-.531c0-3.1-1.914-4.552-3.924-4.552-2.4,0-4.063,2.01-4.063,4.817S84.39.193,86.986.193ZM83.847-5.264a3.123,3.123,0,0,1,2.976-3.157,2.916,2.916,0,0,1,2.825,3.157ZM95.7.211a3.054,3.054,0,0,0,2.874-1.678h.066V0h1.075V-6.3c0-2.487-1.871-3.1-3.29-3.1a3.564,3.564,0,0,0-3.507,2.077l1.02.368a2.575,2.575,0,0,1,2.517-1.479,1.932,1.932,0,0,1,2.185,2.04v.217c0,.7-.869.712-2.427.906-2.095.26-3.562.845-3.562,2.68A2.787,2.787,0,0,0,95.7.211Zm.145-.984c-1.213,0-2.119-.646-2.119-1.769s.918-1.594,2.487-1.787A6.579,6.579,0,0,0,98.637-4.9v1.34A2.7,2.7,0,0,1,95.842-.773ZM102.567,0h1.075V-5.989a2.362,2.362,0,0,1,2.505-2.373,4.554,4.554,0,0,1,.646.06V-9.393c-.145-.006-.392-.018-.567-.018a2.664,2.664,0,0,0-2.536,1.564h-.078V-9.273h-1.044ZM109.7-5.8a2.43,2.43,0,0,1,2.523-2.614,2.248,2.248,0,0,1,2.342,2.469V0h1.075V-6.007c0-2.2-1.274-3.387-3.145-3.387a2.808,2.808,0,0,0-2.729,1.576h-.1V-9.273h-1.044V0H109.7Zm8.79,5.8h1.081V-9.273h-1.081Zm.549-10.866a.8.8,0,0,0,.809-.773.8.8,0,0,0-.809-.773.793.793,0,0,0-.8.773A.793.793,0,0,0,119.042-10.866ZM123.5-5.8a2.43,2.43,0,0,1,2.523-2.614,2.248,2.248,0,0,1,2.342,2.469V0h1.075V-6.007c0-2.2-1.274-3.387-3.145-3.387a2.808,2.808,0,0,0-2.729,1.576h-.1V-9.273h-1.044V0H123.5ZM135.813,3.67c2.2,0,3.827-1.075,3.827-3.429V-9.273h-1.05V-7.5h-.109a2.961,2.961,0,0,0-2.849-1.9c-2.294,0-3.833,1.92-3.833,4.739,0,2.843,1.594,4.564,3.815,4.564a2.911,2.911,0,0,0,2.849-1.817h.1V.175c0,1.727-1.1,2.529-2.747,2.529a2.87,2.87,0,0,1-2.741-1.473l-.881.58A3.777,3.777,0,0,0,135.813,3.67Zm-.072-4.751c-1.841,0-2.862-1.473-2.862-3.6,0-2.089,1-3.743,2.862-3.743,1.817,0,2.837,1.57,2.837,3.743C138.578-2.439,137.527-1.081,135.74-1.081Z" transform="translate(17.167 327.399)" fill="red"/>
  <path id="Path_30985" data-name="Path 30985" d="M10.2-8.5h1.159A4.908,4.908,0,0,0,6.4-12.533c-3.133,0-5.313,2.475-5.313,6.351S3.242.169,6.478.169A4.777,4.777,0,0,0,11.44-4.974V-5.989h-4.7v1.014h3.6C10.311-2.445,8.723-.893,6.478-.893c-2.5,0-4.3-1.968-4.3-5.288S3.99-11.47,6.4-11.47A3.828,3.828,0,0,1,10.2-8.5ZM17.773.193A3.578,3.578,0,0,0,21.3-1.98l-1.02-.332A2.583,2.583,0,0,1,17.773-.791c-1.9,0-3.1-1.382-3.145-3.526h6.906v-.531c0-3.1-1.914-4.552-3.924-4.552-2.4,0-4.063,2.01-4.063,4.817S15.177.193,17.773.193ZM14.634-5.264A3.123,3.123,0,0,1,17.61-8.422a2.916,2.916,0,0,1,2.825,3.157ZM24.969-5.8a2.43,2.43,0,0,1,2.523-2.614A2.248,2.248,0,0,1,29.835-5.94V0h1.075V-6.007c0-2.2-1.274-3.387-3.145-3.387a2.808,2.808,0,0,0-2.729,1.576h-.1V-9.273H23.894V0h1.075ZM37.5.193A3.578,3.578,0,0,0,41.027-1.98l-1.02-.332A2.583,2.583,0,0,1,37.5-.791c-1.9,0-3.1-1.382-3.145-3.526h6.906v-.531c0-3.1-1.914-4.552-3.924-4.552-2.4,0-4.063,2.01-4.063,4.817S34.9.193,37.5.193ZM34.356-5.264a3.123,3.123,0,0,1,2.976-3.157,2.916,2.916,0,0,1,2.825,3.157ZM47.269-9.273H45.307v-2.222H44.227v2.222H42.844v.936h1.382v6.17A2.271,2.271,0,0,0,46.611.139a2.588,2.588,0,0,0,.954-.163L47.336-1a2.206,2.206,0,0,1-.628.085c-.73,0-1.4-.344-1.4-1.509V-8.337h1.962ZM49.72,0H50.8V-9.273H49.72Zm.549-10.866a.8.8,0,0,0,.809-.773.8.8,0,0,0-.809-.773.793.793,0,0,0-.8.773A.793.793,0,0,0,50.27-10.866Zm7,11.06A3.387,3.387,0,0,0,60.81-2.7H59.723A2.384,2.384,0,0,1,57.272-.791c-1.817,0-3.018-1.582-3.018-3.839s1.238-3.791,3.018-3.791a2.409,2.409,0,0,1,2.445,1.9H60.8a3.4,3.4,0,0,0-3.55-2.88c-2.427,0-4.081,2.016-4.081,4.805C53.173-1.829,54.779.193,57.272.193ZM68.133,0l1.322-3.725h5.192L75.969,0h1.183l-4.5-12.364H71.447L66.95,0Zm1.684-4.739L72.009-10.9h.085l2.191,6.158Zm10.305-7.625H79.048V0h1.075ZM86.5,3.67c2.2,0,3.827-1.075,3.827-3.429V-9.273h-1.05V-7.5h-.109a2.961,2.961,0,0,0-2.849-1.9c-2.294,0-3.833,1.92-3.833,4.739C82.483-1.817,84.076-.1,86.3-.1a2.911,2.911,0,0,0,2.849-1.817h.1V.175c0,1.727-1.1,2.529-2.747,2.529a2.87,2.87,0,0,1-2.741-1.473l-.881.58A3.777,3.777,0,0,0,86.5,3.67Zm-.072-4.751c-1.841,0-2.862-1.473-2.862-3.6,0-2.089,1-3.743,2.862-3.743,1.817,0,2.837,1.57,2.837,3.743C89.262-2.439,88.212-1.081,86.425-1.081ZM96.778.193c2.4,0,4.081-1.962,4.081-4.787,0-2.843-1.678-4.805-4.081-4.805S92.7-7.437,92.7-4.594C92.7-1.769,94.375.193,96.778.193Zm0-.984c-1.926,0-3-1.727-3-3.8s1.075-3.827,3-3.827,3,1.751,3,3.827S98.7-.791,96.778-.791ZM103.219,0h1.075V-5.989A2.362,2.362,0,0,1,106.8-8.361a4.554,4.554,0,0,1,.646.06V-9.393c-.145-.006-.392-.018-.567-.018a2.664,2.664,0,0,0-2.536,1.564h-.078V-9.273h-1.044Zm6.073,0h1.081V-9.273h-1.081Zm.549-10.866a.8.8,0,0,0,.809-.773.8.8,0,0,0-.809-.773.793.793,0,0,0-.8.773A.793.793,0,0,0,109.842-10.866Zm7.033,1.594h-1.962v-2.222h-1.081v2.222H112.45v.936h1.382v6.17A2.271,2.271,0,0,0,116.217.139a2.588,2.588,0,0,0,.954-.163L116.941-1a2.206,2.206,0,0,1-.628.085c-.73,0-1.4-.344-1.4-1.509V-8.337h1.962ZM120.582-5.8a2.454,2.454,0,0,1,2.572-2.614,2.245,2.245,0,0,1,2.354,2.469V0h1.081V-6.007c0-2.21-1.28-3.387-3.163-3.387a2.776,2.776,0,0,0-2.747,1.576h-.1v-4.546h-1.075V0h1.075ZM129.426,0H130.5V-5.94a2.29,2.29,0,0,1,2.246-2.469,1.91,1.91,0,0,1,2,2.1V0h1.1V-6.1a2.114,2.114,0,0,1,2.21-2.306,1.935,1.935,0,0,1,2.04,2.2V0h1.075V-6.212c0-2.077-1.069-3.181-2.789-3.181a2.785,2.785,0,0,0-2.747,1.684h-.078a2.491,2.491,0,0,0-2.505-1.684,2.5,2.5,0,0,0-2.487,1.545h-.1V-9.273h-1.044Zm20.815-7.238A3.01,3.01,0,0,0,147.1-9.4c-1.871,0-3.23,1.069-3.23,2.6,0,1.244.755,2.089,2.366,2.475l1.515.362c1.02.241,1.509.767,1.509,1.509,0,.966-.924,1.684-2.348,1.684A2.114,2.114,0,0,1,144.6-2.445l-1.032.254c.326,1.545,1.551,2.385,3.369,2.385,2.04,0,3.441-1.123,3.441-2.7,0-1.238-.779-2.065-2.33-2.445l-1.4-.344c-1.153-.29-1.69-.755-1.69-1.558,0-.942.9-1.6,2.149-1.6a2.079,2.079,0,0,1,2.155,1.491Z" transform="translate(522.346 349.811)" fill="red"/>
  <g id="Group_26398" data-name="Group 26398" transform="translate(355.307 11.537)">
    <path id="Path_28241" data-name="Path 28241" d="M429.089,352.856h-1.371v-33.13l18.854-18.854v-43.38l17.433-17.433V206.07l13.221-13.224.971.972L465.376,206.64v33.985l-17.433,17.433v43.38l-18.854,18.854Z" transform="translate(-427.718 -192.846)" fill="#9d9d9c"/>
  </g>
  <g id="Group_26399" data-name="Group 26399" transform="translate(363.646 20.508)">
    <path id="Path_28242" data-name="Path 28242" d="M434.232,349.417h-1.371V322.631l25.616-25.616V277.2l21-21V235.365l18.942-18.939V198.378h1.371V217l-18.942,18.937v20.836l-21,21v19.818L434.232,323.2Z" transform="translate(-432.861 -198.378)" fill="#9d9d9c"/>
  </g>
  <g id="Group_26400" data-name="Group 26400" transform="translate(371.989 60.881)">
    <path id="Path_28243" data-name="Path 28243" d="M439.377,333.943h-1.371V313.67l.2-.2,35.817-35.817v-13.7l20.553-20.55h18.179l20.126-20.126.972.969-20.531,20.528H495.143L475.394,264.52v13.7l-.2.2-35.819,35.816Z" transform="translate(-438.005 -223.277)" fill="#9d9d9c"/>
  </g>
  <g id="Group_26401" data-name="Group 26401" transform="translate(346.964 97.725)">
    <path id="Path_28244" data-name="Path 28244" d="M486.773,327.43h-64.2v-1.371h63.632l20.767-20.77V277.718l17.191-17.191h22.191L560.886,246l.969.969L546.921,261.9H524.734l-16.39,16.387v27.574Z" transform="translate(-422.573 -245.999)" fill="#9d9d9c"/>
  </g>
  <g id="Group_26402" data-name="Group 26402" transform="translate(346.964 202.809)">
    <path id="Path_28245" data-name="Path 28245" d="M587.328,341.044H549.986l-14.179-14.179H512.823l-.2-.215-13.686-14.474H422.573v-1.371h76.955l13.887,14.689h22.961l14.179,14.179h36.771Z" transform="translate(-422.573 -310.805)" fill="#9d9d9c"/>
  </g>
  <g id="Group_26403" data-name="Group 26403" transform="translate(346.964 227.834)">
    <path id="Path_28246" data-name="Path 28246" d="M551.646,452.379l-16.8-16.8V420.538L518,403.691V360.922l-33.312-33.314H422.573v-1.371h62.68l.2.2,33.914,33.917v42.766l16.85,16.85v15.038l16.4,16.4Z" transform="translate(-422.573 -326.238)" fill="#9d9d9c"/>
  </g>
  <g id="Group_26404" data-name="Group 26404" transform="translate(354.704 244.576)">
    <path id="Path_28247" data-name="Path 28247" d="M451.359,511.757h-1.371V470.762l-10.231-10.228V403.857l-12.411-12.414V336.563h1.371v54.312l12.412,12.414v56.677L451.359,470.2Z" transform="translate(-427.346 -336.563)" fill="#9d9d9c"/>
  </g>
  <g id="Group_26405" data-name="Group 26405" transform="translate(349.586 85.297)">
    <path id="Path_28248" data-name="Path 28248" d="M429.781,261.563H428.41V243.524l-4.22-4.221.971-.969,4.62,4.62Z" transform="translate(-424.189 -238.334)" fill="#9d9d9c"/>
  </g>
  <g id="Group_26406" data-name="Group 26406" transform="translate(423.251 28.463)">
    <path id="Path_28249" data-name="Path 28249" d="M470.588,241.311l-.969-.969,22.714-22.714V203.284H493.7V218.2Z" transform="translate(-469.619 -203.284)" fill="#9d9d9c"/>
  </g>
  <g id="Group_26407" data-name="Group 26407" transform="translate(470.82 327.686)">
    <rect id="Rectangle_9541" data-name="Rectangle 9541" width="1.372" height="14.324" transform="translate(0 0.97) rotate(-44.992)" fill="#9d9d9c"/>
  </g>
  <g id="Group_26408" data-name="Group 26408" transform="translate(424.759 348.947)">
    <path id="Path_28250" data-name="Path 28250" d="M480.557,450.493,470.55,440.485V400.929h1.371v38.985l9.606,9.609Z" transform="translate(-470.55 -400.929)" fill="#9d9d9c"/>
  </g>
  <g id="Group_26409" data-name="Group 26409" transform="translate(364.247 394.438)">
    <rect id="Rectangle_9542" data-name="Rectangle 9542" width="1.371" height="26.78" fill="#9d9d9c"/>
  </g>
  <g id="Group_26410" data-name="Group 26410" transform="translate(350.04 342.832)">
    <path id="Path_28251" data-name="Path 28251" d="M425.439,431.086l-.969-.972,1.478-1.476v-31.48h1.371v32.047Z" transform="translate(-424.469 -397.158)" fill="#9d9d9c"/>
  </g>
  <g id="Group_26412" data-name="Group 26412" transform="translate(346.964 14.963)">
    <g id="Group_26411" data-name="Group 26411" transform="translate(0 4.245)">
      <path id="Path_28252" data-name="Path 28252" d="M423.944,349.916h-1.371V310.784l18.543-18.543V258.205L427.57,244.659v-23.54l7.371-7.373v-8l-7.2-7.2.972-.969,7.6,7.6v9.141l-7.37,7.37v22.406l13.546,13.543v35.175l-18.542,18.543Z" transform="translate(-422.573 -197.577)" fill="#9d9d9c"/>
    </g>
    <path id="Path_28253" data-name="Path 28253" d="M426.105,196.329a1.589,1.589,0,1,1-1.124.465,1.583,1.583,0,0,1,1.124-.465Zm0-1.37a2.962,2.962,0,1,0,2.095.866,2.949,2.949,0,0,0-2.095-.866Z" transform="translate(-422.218 -194.959)" fill="#9d9d9c"/>
  </g>
  <g id="Group_26414" data-name="Group 26414" transform="translate(381.862 16.153)">
    <g id="Group_26413" data-name="Group 26413" transform="translate(4.234)">
      <path id="Path_28254" data-name="Path 28254" d="M447.674,263.68l-.969-.969,15.732-15.732V224.5l14.174-14.171V195.692h1.371v15.2l-14.173,14.17v22.483Z" transform="translate(-446.706 -195.692)" fill="#9d9d9c"/>
    </g>
    <path id="Path_28255" data-name="Path 28255" d="M447.056,237.95a1.594,1.594,0,1,1-1.125.467,1.58,1.58,0,0,1,1.125-.467Zm0-1.372a2.964,2.964,0,1,0,2.1.871,2.935,2.935,0,0,0-2.1-.871Z" transform="translate(-444.094 -170.281)" fill="#9d9d9c"/>
  </g>
  <path id="Path_28256" data-name="Path 28256" d="M428.35,253.773a1.592,1.592,0,1,1-1.592,1.591,1.592,1.592,0,0,1,1.592-1.591Zm0-1.372a2.963,2.963,0,1,0,2.959,2.963,2.963,2.963,0,0,0-2.959-2.963Z" transform="translate(-73.859 -144.295)" fill="#9d9d9c"/>
  <path id="Path_28257" data-name="Path 28257" d="M460.622,191.753a1.589,1.589,0,1,1-1.125.465,1.585,1.585,0,0,1,1.125-.465Zm0-1.372a2.963,2.963,0,1,0,2.1.868,2.95,2.95,0,0,0-2.1-.868Z" transform="translate(-53.801 -182.842)" fill="#9d9d9c"/>
  <path id="Path_28258" data-name="Path 28258" d="M474.849,196.568a1.592,1.592,0,1,1-1.592,1.591,1.591,1.591,0,0,1,1.592-1.591Zm0-1.372a2.963,2.963,0,1,0,2.959,2.962,2.962,2.962,0,0,0-2.959-2.962Z" transform="translate(-44.959 -179.847)" fill="#9d9d9c"/>
  <path id="Path_28259" data-name="Path 28259" d="M469.908,227.126a1.589,1.589,0,1,1-1.125.465,1.578,1.578,0,0,1,1.125-.465Zm0-1.37a2.963,2.963,0,1,0,2.095.868,2.951,2.951,0,0,0-2.095-.868Z" transform="translate(-48.03 -160.855)" fill="#9d9d9c"/>
  <path id="Path_28260" data-name="Path 28260" d="M499.106,221.964a1.59,1.59,0,1,1-1.124.465,1.585,1.585,0,0,1,1.124-.465Zm0-1.373a2.963,2.963,0,1,0,2.095.869,2.963,2.963,0,0,0-2.095-.869Z" transform="translate(-29.883 -164.064)" fill="#9d9d9c"/>
  <path id="Path_28261" data-name="Path 28261" d="M510.434,244.711a1.57,1.57,0,0,1,1.127.469,1.59,1.59,0,1,1-2.249,0,1.567,1.567,0,0,1,1.122-.469Zm0-1.372a2.963,2.963,0,1,0,2.1.867,2.963,2.963,0,0,0-2.1-.867Z" transform="translate(-22.842 -149.928)" fill="#9d9d9c"/>
  <path id="Path_28262" data-name="Path 28262" d="M507.718,394.99a1.592,1.592,0,1,1-1.124,2.718,1.6,1.6,0,0,1,0-2.252,1.578,1.578,0,0,1,1.124-.465Zm0-1.37a2.963,2.963,0,1,0,2.1.868,2.944,2.944,0,0,0-2.1-.868Z" transform="translate(-24.53 -56.525)" fill="red"/>
  <path id="Path_28263" data-name="Path 28263" d="M472.171,398.968a1.592,1.592,0,1,1-1.591,1.591,1.585,1.585,0,0,1,1.591-1.591Zm0-1.372a2.962,2.962,0,1,0,2.962,2.962,2.963,2.963,0,0,0-2.962-2.962Z" transform="translate(-46.624 -54.054)" fill="#9d9d9c"/>
  <path id="Path_28264" data-name="Path 28264" d="M479.369,431.952a1.578,1.578,0,0,1,1.122.465,1.6,1.6,0,0,1,0,2.252,1.591,1.591,0,0,1-2.249,0,1.592,1.592,0,0,1,1.127-2.718Zm0-1.372a2.963,2.963,0,1,0,2.095.867,2.953,2.953,0,0,0-2.095-.867Z" transform="translate(-42.151 -33.554)" fill="#9d9d9c"/>
  <g id="Group_26416" data-name="Group 26416" transform="translate(363.646 244.576)">
    <g id="Group_26415" data-name="Group 26415" transform="translate(0)">
      <path id="Path_28265" data-name="Path 28265" d="M461.359,506.537h-1.371v-50.7l-9.878-9.878V384.176l-17.249-17.248V336.563h1.371v29.795l17.249,17.249v61.788l9.878,9.875Z" transform="translate(-432.861 -336.563)" fill="#9d9d9c"/>
    </g>
    <path id="Path_28266" data-name="Path 28266" d="M451.148,442.518a1.591,1.591,0,1,1-1.591,1.591,1.593,1.593,0,0,1,1.591-1.591Zm0-1.372a2.962,2.962,0,1,0,2.962,2.962,2.965,2.965,0,0,0-2.962-2.962Z" transform="translate(-423.336 -271.563)" fill="#9d9d9c"/>
  </g>
  <path id="Path_28267" data-name="Path 28267" d="M442.868,445.841a1.592,1.592,0,1,1-1.594,1.592,1.594,1.594,0,0,1,1.594-1.592Zm0-1.37a2.962,2.962,0,1,0,2.961,2.962,2.963,2.963,0,0,0-2.961-2.962Z" transform="translate(-64.837 -24.922)" fill="#9d9d9c"/>
  <path id="Path_28268" data-name="Path 28268" d="M434.789,426.836a1.591,1.591,0,1,1-1.587,1.594,1.594,1.594,0,0,1,1.587-1.594Zm0-1.372a2.963,2.963,0,1,0,2.966,2.966,2.965,2.965,0,0,0-2.966-2.966Z" transform="translate(-69.857 -36.734)" fill="#9d9d9c"/>
  <g id="Group_26418" data-name="Group 26418" transform="translate(346.964 244.576)">
    <g id="Group_26417" data-name="Group 26417" transform="translate(0)">
      <path id="Path_28269" data-name="Path 28269" d="M427.474,493.682H426.1v-9.958l8.326-8.328V422.327l-11.856-11.855V336.563h1.371v73.342L435.8,421.761v54.2l-8.325,8.328Z" transform="translate(-422.573 -336.563)" fill="#9d9d9c"/>
    </g>
    <path id="Path_28270" data-name="Path 28270" d="M426.283,434.7a1.592,1.592,0,1,1-1.591,1.591,1.592,1.592,0,0,1,1.591-1.591Zm0-1.372a2.962,2.962,0,1,0,2.962,2.962,2.964,2.964,0,0,0-2.962-2.962Z" transform="translate(-422.108 -276.425)" fill="#9d9d9c"/>
  </g>
  <path id="Path_28271" data-name="Path 28271" d="M426.94,395.009a1.591,1.591,0,1,1-1.591,1.592,1.593,1.593,0,0,1,1.591-1.592Zm0-1.37A2.962,2.962,0,1,0,429.9,396.6a2.961,2.961,0,0,0-2.963-2.962Z" transform="translate(-74.736 -56.513)" fill="#9d9d9c"/>
  <g id="Group_26420" data-name="Group 26420" transform="translate(361.827 2.061)">
    <g id="Group_26419" data-name="Group 26419" transform="translate(4.506 4.361)">
      <path id="Path_28272" data-name="Path 28272" d="M435.487,229.25l-.969-.972,5.429-5.429V193.756l-3.1-3.092.972-.972,3.494,3.5v30.227Z" transform="translate(-434.518 -189.692)" fill="#9d9d9c"/>
    </g>
    <path id="Path_28273" data-name="Path 28273" d="M434.7,214.583a1.589,1.589,0,1,1-1.127.465,1.584,1.584,0,0,1,1.127-.465Zm0-1.372a2.962,2.962,0,1,0,2.1.868,2.953,2.953,0,0,0-2.1-.868Z" transform="translate(-431.739 -170.713)" fill="#9d9d9c"/>
    <path id="Path_28274" data-name="Path 28274" d="M434.138,192.059a2.962,2.962,0,1,0,0-4.19A2.961,2.961,0,0,0,434.138,192.059Z" transform="translate(-430.788 -187.002)" fill="#9d9d9c"/>
  </g>
  <path id="Path_28275" data-name="Path 28275" d="M423.531,241.864a2.961,2.961,0,1,0,0-4.188A2.955,2.955,0,0,0,423.531,241.864Z" transform="translate(-75.553 -153.988)" fill="#9d9d9c"/>
  <g id="Group_26422" data-name="Group 26422" transform="translate(386.221 149.16)">
    <g id="Group_26421" data-name="Group 26421" transform="translate(5.563 4.144)">
      <path id="Path_28276" data-name="Path 28276" d="M464.373,294.434h-14.16v-1.371h13.593L476.6,280.275l.969.969Z" transform="translate(-450.213 -280.275)" fill="#9d9d9c"/>
    </g>
    <path id="Path_28277" data-name="Path 28277" d="M468.947,279.091a1.589,1.589,0,1,1-1.127.465,1.578,1.578,0,0,1,1.127-.465Zm0-1.372a2.961,2.961,0,1,0,2.095.867,2.946,2.946,0,0,0-2.095-.867Z" transform="translate(-434.849 -277.719)" fill="#9d9d9c"/>
    <path id="Path_28278" data-name="Path 28278" d="M447.651,291.814a2.962,2.962,0,1,0,0-4.19A2.962,2.962,0,0,0,447.651,291.814Z" transform="translate(-446.783 -272.102)" fill="#9d9d9c"/>
  </g>
  <path id="Path_28279" data-name="Path 28279" d="M431.1,225.627a2.962,2.962,0,1,0,0-4.187A2.958,2.958,0,0,0,431.1,225.627Z" transform="translate(-70.848 -164.078)" fill="#9d9d9c"/>
  <path id="Path_28280" data-name="Path 28280" d="M450.718,190.786a2.963,2.963,0,1,0,0-4.188A2.96,2.96,0,0,0,450.718,190.786Z" transform="translate(-58.654 -185.73)" fill="red"/>
  <path id="Path_28281" data-name="Path 28281" d="M470.075,197.416a2.963,2.963,0,1,0,0-4.19A2.964,2.964,0,0,0,470.075,197.416Z" transform="translate(-46.624 -181.611)" fill="#9d9d9c"/>
  <path id="Path_28282" data-name="Path 28282" d="M483.09,205.055a2.962,2.962,0,1,0,0-4.19A2.96,2.96,0,0,0,483.09,205.055Z" transform="translate(-38.535 -176.863)" fill="#9d9d9c"/>
  <g id="Group_26425" data-name="Group 26425" transform="translate(380.645 75.172)">
    <g id="Group_26424" data-name="Group 26424">
      <g id="Group_26423" data-name="Group 26423" transform="translate(5.776 2.478)">
        <path id="Path_28283" data-name="Path 28283" d="M458.279,313.206H446.906v-1.374h10.806l18.5-18.5v-15.12L500.8,253.626h11.935l20.007-20.007.969.969L513.3,255H501.367l-23.788,23.785V293.9Z" transform="translate(-446.906 -233.619)" fill="red"/>
      </g>
      <path id="Path_28284" data-name="Path 28284" d="M446.3,281.824a1.59,1.59,0,1,1-1.587,1.587,1.591,1.591,0,0,1,1.587-1.587Zm0-1.375a2.962,2.962,0,1,0,2.962,2.962,2.963,2.963,0,0,0-2.962-2.962Z" transform="translate(-443.344 -202.035)" fill="red"/>
      <path id="Path_28285" data-name="Path 28285" d="M499.179,237.149a2.963,2.963,0,1,0,0-4.19A2.964,2.964,0,0,0,499.179,237.149Z" transform="translate(-409.181 -232.091)" fill="red"/>
    </g>
  </g>
  <g id="Group_26428" data-name="Group 26428" transform="translate(447.308 107.625)">
    <g id="Group_26427" data-name="Group 26427">
      <g id="Group_26426" data-name="Group 26426" transform="translate(4.32 2.478)">
        <path id="Path_28286" data-name="Path 28286" d="M488.089,278.976l-.969-.969,4.287-4.284h19.159l20.09-20.09.969.969-20.492,20.492H491.974Z" transform="translate(-487.12 -253.632)" fill="red"/>
      </g>
      <path id="Path_28287" data-name="Path 28287" d="M487.417,269.645a1.589,1.589,0,1,1-1.125.465,1.586,1.586,0,0,1,1.125-.465Zm0-1.372a2.963,2.963,0,1,0,2.1.868,2.961,2.961,0,0,0-2.1-.868Z" transform="translate(-484.455 -242.055)" fill="red"/>
      <path id="Path_28288" data-name="Path 28288" d="M513.308,257.161a2.963,2.963,0,1,0,0-4.19A2.962,2.962,0,0,0,513.308,257.161Z" transform="translate(-467.062 -252.104)" fill="red"/>
    </g>
  </g>
  <g id="Group_26430" data-name="Group 26430" transform="translate(346.964 146.174)">
    <g id="Group_26429" data-name="Group 26429" transform="translate(0 2.477)">
      <path id="Path_28289" data-name="Path 28289" d="M497.744,316.253H422.573v-1.371h74.6l13.854-13.857h27.634l11.33-11.327h15.988l12.293-12.293.969.969-12.7,12.695H550.561L539.235,302.4H511.6Z" transform="translate(-422.573 -277.405)" fill="#9d9d9c"/>
    </g>
    <path id="Path_28290" data-name="Path 28290" d="M517.934,280.934a2.963,2.963,0,1,0,0-4.19A2.966,2.966,0,0,0,517.934,280.934Z" transform="translate(-363.843 -275.877)" fill="#9d9d9c"/>
  </g>
  <g id="Group_26432" data-name="Group 26432" transform="translate(477.814 169.633)">
    <g id="Group_26431" data-name="Group 26431" transform="translate(5.793 2.276)">
      <path id="Path_28291" data-name="Path 28291" d="M533.952,300.992H523.894l-7.869-7.871h-9.185v-1.371h9.752l7.871,7.869h9.487Z" transform="translate(-506.841 -291.749)" fill="#9d9d9c"/>
    </g>
    <path id="Path_28292" data-name="Path 28292" d="M525.25,296.638a1.5,1.5,0,1,1-1.5,1.5,1.5,1.5,0,0,1,1.5-1.5Zm0-1.294a2.8,2.8,0,1,0,2.8,2.8,2.8,2.8,0,0,0-2.8-2.8Z" transform="translate(-491.345 -287.238)" fill="#9d9d9c"/>
    <path id="Path_28293" data-name="Path 28293" d="M504.137,295.4a2.963,2.963,0,1,0,0-4.19A2.964,2.964,0,0,0,504.137,295.4Z" transform="translate(-503.268 -290.345)" fill="#9d9d9c"/>
  </g>
  <g id="Group_26434" data-name="Group 26434" transform="translate(448.864 196.293)">
    <g id="Group_26433" data-name="Group 26433" transform="translate(5.704 2.276)">
      <path id="Path_28294" data-name="Path 28294" d="M550.74,328.234H520.8l-.2-.2-18.471-18.471H488.933V308.19h13.758l18.673,18.672H550.74Z" transform="translate(-488.933 -308.19)" fill="#9d9d9c"/>
    </g>
    <path id="Path_28295" data-name="Path 28295" d="M529.046,319.7a1.5,1.5,0,1,1-1.5,1.5,1.505,1.505,0,0,1,1.5-1.5Zm0-1.294a2.8,2.8,0,1,0,2.8,2.8,2.8,2.8,0,0,0-2.8-2.8Z" transform="translate(-460.035 -299.566)" fill="#9d9d9c"/>
    <path id="Path_28296" data-name="Path 28296" d="M486.282,311.843a2.963,2.963,0,1,0,0-4.19A2.964,2.964,0,0,0,486.282,311.843Z" transform="translate(-485.415 -306.786)" fill="#9d9d9c"/>
  </g>
  <g id="Group_26436" data-name="Group 26436" transform="translate(438.638 130.391)">
    <g id="Group_26435" data-name="Group 26435" transform="translate(2.479 4.45)">
      <path id="Path_28297" data-name="Path 28297" d="M491.407,294.094l-10.77-10.771.969-.969,9.8,9.8,10.2-10.2h18.981l13.067-13.067.969.969-13.469,13.469H502.175Z" transform="translate(-480.637 -268.888)" fill="#9d9d9c"/>
    </g>
    <path id="Path_28298" data-name="Path 28298" d="M515.982,267.516a1.594,1.594,0,1,1-1.127.469,1.578,1.578,0,0,1,1.127-.469Zm0-1.372a2.963,2.963,0,1,0,2.095.867,2.958,2.958,0,0,0-2.095-.867Z" transform="translate(-458.032 -266.144)" fill="#9d9d9c"/>
    <path id="Path_28299" data-name="Path 28299" d="M479.977,280.723a2.963,2.963,0,1,0,0-4.192A2.964,2.964,0,0,0,479.977,280.723Z" transform="translate(-479.109 -260.227)" fill="#9d9d9c"/>
  </g>
  <g id="Group_26439" data-name="Group 26439" transform="translate(346.964 180.61)">
    <g id="Group_26438" data-name="Group 26438" transform="translate(0)">
      <g id="Group_26437" data-name="Group 26437">
        <path id="Path_28300" data-name="Path 28300" d="M591.813,315.1h-23.1l-16.616-16.616H522.633l-13.86,13.857h-86.2v-1.371h85.633l13.857-13.857h30.6l16.616,16.615h22.532Z" transform="translate(-422.573 -297.115)" fill="red"/>
      </g>
      <path id="Path_28301" data-name="Path 28301" d="M526.143,310.718a2.8,2.8,0,1,0,0-3.958A2.8,2.8,0,0,0,526.143,310.718Z" transform="translate(-358.712 -291.629)" fill="red"/>
    </g>
  </g>
  <path id="Path_28302" data-name="Path 28302" d="M524.418,331.551a2.8,2.8,0,1,0,0-3.958A2.8,2.8,0,0,0,524.418,331.551Z" transform="translate(-12.82 -98.072)" fill="#9d9d9c"/>
  <g id="Group_26441" data-name="Group 26441" transform="translate(346.964 211.153)">
    <g id="Group_26440" data-name="Group 26440" transform="translate(0)">
      <path id="Path_28303" data-name="Path 28303" d="M581.865,356.647H550.473l-.2-.2-19.95-19.95H513.839l-.2-.2-18.975-18.976h-72.09V315.95H495.23l.2.2,18.975,18.975H530.89l.2.2,19.95,19.95h30.825Z" transform="translate(-422.573 -315.95)" fill="#9d9d9c"/>
    </g>
    <path id="Path_28304" data-name="Path 28304" d="M519.852,343.857a2.962,2.962,0,1,0,0-4.19A2.962,2.962,0,0,0,519.852,343.857Z" transform="translate(-362.652 -301.749)" fill="#9d9d9c"/>
  </g>
  <g id="Group_26443" data-name="Group 26443" transform="translate(476.384 277.186)">
    <g id="Group_26442" data-name="Group 26442" transform="translate(4.278 4.275)">
      <path id="Path_28305" data-name="Path 28305" d="M531.308,364.334h-22.23l-4.053-4.052.969-.972,3.654,3.654h21.659Z" transform="translate(-505.026 -359.31)" fill="#9d9d9c"/>
    </g>
    <path id="Path_28306" data-name="Path 28306" d="M505.349,358.045a1.588,1.588,0,1,1-1.125.464,1.582,1.582,0,0,1,1.125-.464Zm0-1.372a2.962,2.962,0,1,0,2.1.868,2.957,2.957,0,0,0-2.1-.868Z" transform="translate(-502.387 -356.673)" fill="#9d9d9c"/>
    <path id="Path_28307" data-name="Path 28307" d="M520.621,364.968a2.8,2.8,0,1,0,0-3.958A2.8,2.8,0,0,0,520.621,364.968Z" transform="translate(-491.564 -354.486)" fill="#9d9d9c"/>
  </g>
  <g id="Group_26446" data-name="Group 26446" transform="translate(346.964 219.494)">
    <g id="Group_26445" data-name="Group 26445" transform="translate(0)">
      <g id="Group_26444" data-name="Group 26444">
        <path id="Path_28308" data-name="Path 28308" d="M578.457,400.428H547.123l-12.4-12.4V355.276h-10.68l-.2-.2-32.609-32.609h-68.66v-1.371H491.8l.2.2L524.612,353.9h11.481v33.556l11.6,11.6h30.764Z" transform="translate(-422.573 -321.095)" fill="red"/>
      </g>
      <path id="Path_28309" data-name="Path 28309" d="M519.44,372.829a2.962,2.962,0,1,0,0-4.188A2.96,2.96,0,0,0,519.44,372.829Z" transform="translate(-362.907 -292.085)" fill="red"/>
    </g>
  </g>
  <g id="Group_26449" data-name="Group 26449" transform="translate(468.095 258.653)">
    <g id="Group_26448" data-name="Group 26448">
      <g id="Group_26447" data-name="Group 26447" transform="translate(4.388)">
        <path id="Path_28310" data-name="Path 28310" d="M534.76,357.609H520.1l-10.423-10.427-8.725,8.728-.971-.969,9.7-9.7,10.991,10.994H534.76Z" transform="translate(-499.982 -345.244)" fill="red"/>
      </g>
      <path id="Path_28311" data-name="Path 28311" d="M523.527,352.44a1.5,1.5,0,1,1-1.5,1.5,1.5,1.5,0,0,1,1.5-1.5Zm0-1.3a2.8,2.8,0,1,0,2.8,2.8,2.8,2.8,0,0,0-2.8-2.8Z" transform="translate(-482.7 -341.577)" fill="red"/>
      <path id="Path_28312" data-name="Path 28312" d="M498.142,355.933a2.962,2.962,0,1,0,0-4.188A2.964,2.964,0,0,0,498.142,355.933Z" transform="translate(-497.275 -341.745)" fill="red"/>
    </g>
  </g>
  <g id="Group_26451" data-name="Group 26451" transform="translate(452.933 296.512)">
    <g id="Group_26450" data-name="Group 26450" transform="translate(2.478 2.477)">
      <path id="Path_28313" data-name="Path 28313" d="M524.743,389.825H508.185l-.2-.2-18.532-18.532.969-.972,18.334,18.334h15.988Z" transform="translate(-489.453 -370.12)" fill="#9d9d9c"/>
    </g>
    <path id="Path_28314" data-name="Path 28314" d="M514.044,381.393a1.592,1.592,0,1,1-1.592,1.592,1.593,1.593,0,0,1,1.592-1.592Zm0-1.37a2.962,2.962,0,1,0,2.963,2.962,2.963,2.963,0,0,0-2.963-2.962Z" transform="translate(-473.532 -361.489)" fill="#9d9d9c"/>
    <path id="Path_28315" data-name="Path 28315" d="M488.791,373.649a2.962,2.962,0,1,0,0-4.187A2.961,2.961,0,0,0,488.791,373.649Z" transform="translate(-487.924 -368.593)" fill="#9d9d9c"/>
  </g>
  <g id="Group_26454" data-name="Group 26454" transform="translate(392.439 244.496)">
    <g id="Group_26453" data-name="Group 26453" transform="translate(0)">
      <g id="Group_26452" data-name="Group 26452" transform="translate(4.359 4.358)">
        <path id="Path_28316" data-name="Path 28316" d="M466.8,419.086l-.969-.972,11.731-11.732V364.429L453.305,340.17l.969-.969,24.66,24.66v43.091Z" transform="translate(-453.305 -339.201)" fill="red"/>
      </g>
      <path id="Path_28317" data-name="Path 28317" d="M461.354,388.823a1.589,1.589,0,1,1-1.125.465,1.572,1.572,0,0,1,1.125-.465Zm0-1.373a2.962,2.962,0,1,0,2.1.866,2.956,2.956,0,0,0-2.1-.866Z" transform="translate(-445.785 -304.856)" fill="red"/>
      <path id="Path_28318" data-name="Path 28318" d="M451.484,341.57a2.962,2.962,0,1,0,0-4.187A2.961,2.961,0,0,0,451.484,341.57Z" transform="translate(-450.617 -336.514)" fill="red"/>
    </g>
  </g>
  <path id="Path_28319" data-name="Path 28319" d="M498.3,391.348a2.962,2.962,0,1,0,0-4.188A2.964,2.964,0,0,0,498.3,391.348Z" transform="translate(-29.085 -61.082)" fill="red"/>
  <g id="Group_26457" data-name="Group 26457" transform="translate(449.578 339.014)">
    <g id="Group_26456" data-name="Group 26456">
      <g id="Group_26455" data-name="Group 26455" transform="translate(2.276 5.592)">
        <path id="Path_28320" data-name="Path 28320" d="M497.561,419.41l-10.3-10.3V398.252h1.371V408.54l9.9,9.9Z" transform="translate(-487.259 -398.252)" fill="red"/>
      </g>
      <path id="Path_28321" data-name="Path 28321" d="M496.209,411.709a1.588,1.588,0,1,1-1.125.465,1.581,1.581,0,0,1,1.125-.465Zm0-1.373a2.963,2.963,0,1,0,2.095.869,2.949,2.949,0,0,0-2.095-.869Z" transform="translate(-481.261 -385.149)" fill="red"/>
      <path id="Path_28322" data-name="Path 28322" d="M488.816,400.728a2.962,2.962,0,1,0-2.961-2.962A2.963,2.963,0,0,0,488.816,400.728Z" transform="translate(-485.855 -394.803)" fill="red"/>
    </g>
  </g>
  <g id="Group_26459" data-name="Group 26459" transform="translate(435.981 323.703)">
    <g id="Group_26458" data-name="Group 26458" transform="translate(0 4.353)">
      <path id="Path_28323" data-name="Path 28323" d="M492.866,440.665l-15.4-15.4V397.337l9.292-9.292.972.969-8.893,8.893V424.7l15,15Z" transform="translate(-477.47 -388.046)" fill="#9d9d9c"/>
    </g>
    <path id="Path_28324" data-name="Path 28324" d="M485.791,386.733a1.579,1.579,0,0,1,1.125.465,1.6,1.6,0,0,1,0,2.251,1.591,1.591,0,1,1-1.125-2.716Zm0-1.372a2.963,2.963,0,1,0,2.095.868,2.95,2.95,0,0,0-2.095-.868Z" transform="translate(-474.139 -385.361)" fill="#9d9d9c"/>
    <path id="Path_28325" data-name="Path 28325" d="M488.4,424.3a2.962,2.962,0,1,0-2.966-2.962A2.965,2.965,0,0,0,488.4,424.3Z" transform="translate(-472.519 -364.845)" fill="#9d9d9c"/>
  </g>
  <g id="Group_26462" data-name="Group 26462" transform="translate(346.964 236.176)">
    <g id="Group_26461" data-name="Group 26461" transform="translate(0)">
      <g id="Group_26460" data-name="Group 26460">
        <path id="Path_28326" data-name="Path 28326" d="M489.93,502.561h-1.371V437.425l.2-.2L507.889,418.1V363.98l-31.23-31.227H422.573v-1.371H477.23l.2.2,31.83,31.83v55.251l-.2.2L489.93,437.995Z" transform="translate(-422.573 -331.382)" fill="red"/>
      </g>
      <path id="Path_28327" data-name="Path 28327" d="M461.847,439.776a2.964,2.964,0,1,0,2.966-2.962A2.964,2.964,0,0,0,461.847,439.776Z" transform="translate(-398.163 -265.856)" fill="red"/>
    </g>
  </g>
  <g id="Group_26464" data-name="Group 26464" transform="translate(371.989 244.576)">
    <g id="Group_26463" data-name="Group 26463">
      <path id="Path_28328" data-name="Path 28328" d="M469.392,499.167h-1.371V438.781l-6.354-6.354v-54l-23.661-23.661v-18.2h1.371V354.2l23.661,23.661v54l6.354,6.354Z" transform="translate(-438.005 -336.563)" fill="#9d9d9c"/>
    </g>
    <circle id="Ellipse_345" data-name="Ellipse 345" cx="2.963" cy="2.963" r="2.963" transform="translate(27.738 162.387)" fill="#9d9d9c"/>
  </g>
  <path id="Path_28329" data-name="Path 28329" d="M431.826,448.325a2.964,2.964,0,1,0,2.963-2.959A2.963,2.963,0,0,0,431.826,448.325Z" transform="translate(-69.857 -24.365)" fill="#9d9d9c"/>
  <path id="Path_28330" data-name="Path 28330" d="M422.63,422.19a2.962,2.962,0,1,1,4.19,0A2.962,2.962,0,0,1,422.63,422.19Z" transform="translate(-76.111 -41.912)" fill="#9d9d9c"/>
  <g id="Group_26466" data-name="Group 26466" transform="translate(379.574 250.444)">
    <g id="Group_26465" data-name="Group 26465" transform="translate(4.262 4.263)">
      <path id="Path_28331" data-name="Path 28331" d="M470.7,403.549h-1.371V367.8l-24.016-24.016.972-.972L470.7,367.229Z" transform="translate(-445.312 -342.811)" fill="#9d9d9c"/>
    </g>
    <path id="Path_28332" data-name="Path 28332" d="M445.645,341.554a1.589,1.589,0,1,1-1.125.465,1.579,1.579,0,0,1,1.125-.465Zm0-1.372a2.963,2.963,0,1,0,2.095.868,2.955,2.955,0,0,0-2.095-.868Z" transform="translate(-442.683 -340.182)" fill="#9d9d9c"/>
    <path id="Path_28333" data-name="Path 28333" d="M461.681,384.367a2.963,2.963,0,1,0-2.963-2.962A2.963,2.963,0,0,0,461.681,384.367Z" transform="translate(-432.718 -316.403)" fill="#9d9d9c"/>
  </g>
  <path id="Path_28334" data-name="Path 28334" d="M502.658,408.105a2.962,2.962,0,1,0,0-4.19A2.96,2.96,0,0,0,502.658,408.105Z" transform="translate(-26.373 -50.666)" fill="#9d9d9c"/>
  <g id="Group_26468" data-name="Group 26468" transform="translate(363.793 4.291)">
    <g id="Group_26467" data-name="Group 26467" transform="translate(0)">
      <path id="Path_28335" data-name="Path 28335" d="M436.524,249.612l-3.574-3.577.969-.969,2.6,2.6,13.452-13.45v-34.8l11.04-11.043.972.969-10.641,10.641v34.8Z" transform="translate(-432.951 -188.377)" fill="red"/>
    </g>
  </g>
  <g id="Group_26470" data-name="Group 26470" transform="translate(440.318 39.584)">
    <path id="Path_28336" data-name="Path 28336" d="M494.04,211.515a1.59,1.59,0,1,1-1.592,1.587,1.589,1.589,0,0,1,1.592-1.587Zm0-1.372A2.961,2.961,0,1,0,497,213.1a2.963,2.963,0,0,0-2.963-2.959Z" transform="translate(-473.352 -210.143)" fill="#9d9d9c"/>
    <path id="Path_28337" data-name="Path 28337" d="M481.014,230.441a2.961,2.961,0,1,0,0-4.188A2.955,2.955,0,0,0,481.014,230.441Z" transform="translate(-480.145 -200.67)" fill="#9d9d9c"/>
    <g id="Group_26469" data-name="Group 26469" transform="translate(2.477 5.785)">
      <path id="Path_28338" data-name="Path 28338" d="M482.642,236.271l-.969-.969L499.2,217.777v-4.067h1.371v4.637Z" transform="translate(-481.673 -213.711)" fill="#9d9d9c"/>
    </g>
  </g>
  <g id="Group_26471" data-name="Group 26471" transform="translate(280.834 11.537)">
    <path id="Path_28339" data-name="Path 28339" d="M430.9,352.856h1.371v-33.13l-18.854-18.854v-43.38l-17.433-17.433V206.07l-13.221-13.224-.972.972,12.822,12.822v33.985l17.433,17.433v43.38L430.9,320.292Z" transform="translate(-381.789 -192.846)" fill="#9d9d9c"/>
  </g>
  <g id="Group_26472" data-name="Group 26472" transform="translate(256.047 20.508)">
    <path id="Path_28340" data-name="Path 28340" d="M432.059,349.417h1.371V322.631l-25.616-25.616V277.2l-21-21V235.365l-18.942-18.939V198.378H366.5V217l18.942,18.937v20.836l21,21v19.818L432.059,323.2Z" transform="translate(-366.503 -198.378)" fill="#9d9d9c"/>
  </g>
  <g id="Group_26474" data-name="Group 26474" transform="translate(218.785 60.881)">
    <g id="Group_26473" data-name="Group 26473">
      <path id="Path_28341" data-name="Path 28341" d="M438,333.943h1.371V313.67l-.2-.2-35.817-35.817v-13.7L382.8,243.4H364.621l-20.126-20.126-.972.969,20.531,20.528h18.179l19.749,19.746v13.7l.2.2L438,314.237Z" transform="translate(-343.523 -223.277)" fill="red"/>
    </g>
  </g>
  <g id="Group_26475" data-name="Group 26475" transform="translate(200.374 97.725)">
    <path id="Path_28342" data-name="Path 28342" d="M407.252,327.43h64.2v-1.371H407.819l-20.767-20.77V277.718L369.86,260.527H347.67L333.138,246l-.969.969L347.1,261.9H369.29l16.39,16.387v27.574Z" transform="translate(-332.169 -245.999)" fill="#9d9d9c"/>
  </g>
  <g id="Group_26476" data-name="Group 26476" transform="translate(174.901 202.809)">
    <path id="Path_28343" data-name="Path 28343" d="M316.46,341.044H353.8l14.179-14.179h22.983l.2-.215,13.686-14.474h76.363v-1.371H404.259l-13.887,14.689H367.411l-14.179,14.179H316.46Z" transform="translate(-316.46 -310.805)" fill="#9d9d9c"/>
  </g>
  <g id="Group_26477" data-name="Group 26477" transform="translate(209.61 227.834)">
    <path id="Path_28344" data-name="Path 28344" d="M338.837,452.379l16.8-16.8V420.538l16.849-16.847V360.922L405.8,327.608h62.112v-1.371h-62.68l-.2.2-33.914,33.917v42.766l-16.85,16.85v15.038l-16.4,16.4Z" transform="translate(-337.865 -326.238)" fill="#9d9d9c"/>
  </g>
  <g id="Group_26478" data-name="Group 26478" transform="translate(307.903 244.576)">
    <path id="Path_28345" data-name="Path 28345" d="M398.483,511.757h1.371V470.762l10.231-10.228V403.857L422.5,391.442V336.563h-1.371v54.312l-12.412,12.414v56.677L398.483,470.2Z" transform="translate(-398.483 -336.563)" fill="#9d9d9c"/>
  </g>
  <g id="Group_26479" data-name="Group 26479" transform="translate(331.443 85.297)">
    <path id="Path_28346" data-name="Path 28346" d="M413,261.563h1.371V243.524l4.22-4.221-.972-.969-4.62,4.62Z" transform="translate(-413 -238.334)" fill="#9d9d9c"/>
  </g>
  <g id="Group_26481" data-name="Group 26481" transform="translate(239.285 28.463)">
    <g id="Group_26480" data-name="Group 26480">
      <path id="Path_28347" data-name="Path 28347" d="M379.282,241.311l.969-.969-22.714-22.714V203.284h-1.371V218.2Z" transform="translate(-356.166 -203.284)" fill="red"/>
    </g>
  </g>
  <g id="Group_26482" data-name="Group 26482" transform="translate(204.703 327.686)">
    <rect id="Rectangle_9543" data-name="Rectangle 9543" width="14.324" height="1.372" transform="translate(0 10.13) rotate(-45.008)" fill="#9d9d9c"/>
  </g>
  <g id="Group_26483" data-name="Group 26483" transform="translate(250.884 348.947)">
    <path id="Path_28348" data-name="Path 28348" d="M364.288,450.493,374.3,440.485V400.929h-1.371v38.985l-9.606,9.609Z" transform="translate(-363.319 -400.929)" fill="#9d9d9c"/>
  </g>
  <g id="Group_26484" data-name="Group 26484" transform="translate(321.003 394.438)">
    <rect id="Rectangle_9544" data-name="Rectangle 9544" width="1.371" height="26.78" fill="#9d9d9c"/>
  </g>
  <g id="Group_26485" data-name="Group 26485" transform="translate(333.731 342.832)">
    <path id="Path_28349" data-name="Path 28349" d="M416.292,431.086l.969-.972-1.479-1.476v-31.48h-1.371v32.047Z" transform="translate(-414.411 -397.158)" fill="#9d9d9c"/>
  </g>
  <g id="Group_26487" data-name="Group 26487" transform="translate(319.742 14.963)">
    <g id="Group_26486" data-name="Group 26486" transform="translate(0 4.245)">
      <path id="Path_28350" data-name="Path 28350" d="M424.327,349.916H425.7V310.784l-18.543-18.543V258.205L420.7,244.659v-23.54l-7.371-7.373v-8l7.2-7.2-.972-.969-7.6,7.6v9.141l7.37,7.37v22.406l-13.546,13.543v35.175l18.543,18.543Z" transform="translate(-405.784 -197.577)" fill="#9d9d9c"/>
    </g>
    <path id="Path_28351" data-name="Path 28351" d="M416.8,196.329a1.589,1.589,0,1,1-1.127.465,1.584,1.584,0,0,1,1.127-.465Zm0-1.37a2.962,2.962,0,1,0,2.092.866,2.951,2.951,0,0,0-2.092-.866Z" transform="translate(-400.777 -194.959)" fill="#9d9d9c"/>
  </g>
  <g id="Group_26489" data-name="Group 26489" transform="translate(269.248 16.153)">
    <g id="Group_26488" data-name="Group 26488">
      <path id="Path_28352" data-name="Path 28352" d="M404.952,263.68l.969-.969-15.732-15.732V224.5l-14.174-14.171V195.692h-1.371v15.2l14.173,14.17v22.483Z" transform="translate(-374.644 -195.692)" fill="#9d9d9c"/>
    </g>
    <path id="Path_28353" data-name="Path 28353" d="M395.852,237.95a1.594,1.594,0,1,1-1.124.467,1.581,1.581,0,0,1,1.124-.467Zm0-1.372a2.964,2.964,0,1,0,2.095.871,2.944,2.944,0,0,0-2.095-.871Z" transform="translate(-363.304 -170.281)" fill="#9d9d9c"/>
  </g>
  <path id="Path_28354" data-name="Path 28354" d="M414.557,253.773a1.592,1.592,0,1,1-1.587,1.591,1.593,1.593,0,0,1,1.587-1.591Zm0-1.372a2.963,2.963,0,1,0,2.962,2.963,2.962,2.962,0,0,0-2.962-2.963Z" transform="translate(-82.429 -144.295)" fill="#9d9d9c"/>
  <path id="Path_28355" data-name="Path 28355" d="M382.287,191.753a1.589,1.589,0,1,1-1.127.465,1.581,1.581,0,0,1,1.127-.465Zm0-1.372a2.963,2.963,0,1,0,2.095.868,2.951,2.951,0,0,0-2.095-.868Z" transform="translate(-102.488 -182.842)" fill="#9d9d9c"/>
  <path id="Path_28356" data-name="Path 28356" d="M368.059,196.568a1.592,1.592,0,1,1-1.587,1.591,1.593,1.593,0,0,1,1.587-1.591Zm0-1.372a2.963,2.963,0,1,0,2.962,2.962,2.962,2.962,0,0,0-2.962-2.962Z" transform="translate(-111.328 -179.847)" fill="#9d9d9c"/>
  <path id="Path_28357" data-name="Path 28357" d="M373,227.126a1.591,1.591,0,1,1-1.124.465,1.579,1.579,0,0,1,1.124-.465Zm0-1.37a2.963,2.963,0,1,0,2.1.868,2.957,2.957,0,0,0-2.1-.868Z" transform="translate(-108.26 -160.855)" fill="red"/>
  <path id="Path_28358" data-name="Path 28358" d="M343.8,221.964a1.589,1.589,0,1,1-1.125.465,1.578,1.578,0,0,1,1.125-.465Zm0-1.373a2.963,2.963,0,1,0,2.1.869,2.962,2.962,0,0,0-2.1-.869Z" transform="translate(-126.406 -164.064)" fill="red"/>
  <path id="Path_28359" data-name="Path 28359" d="M332.475,244.711a1.567,1.567,0,0,1,1.122.469,1.59,1.59,0,1,1-2.249,0,1.57,1.57,0,0,1,1.127-.469Zm0-1.372a2.963,2.963,0,1,0,2.1.867,2.953,2.953,0,0,0-2.1-.867Z" transform="translate(-133.447 -149.928)" fill="#9d9d9c"/>
  <path id="Path_28360" data-name="Path 28360" d="M335.191,394.99a1.578,1.578,0,0,1,1.124.465,1.6,1.6,0,0,1,0,2.252,1.591,1.591,0,1,1-1.124-2.718Zm0-1.37a2.963,2.963,0,1,0,2.093.868,2.962,2.962,0,0,0-2.093-.868Z" transform="translate(-131.759 -56.525)" fill="#9d9d9c"/>
  <path id="Path_28361" data-name="Path 28361" d="M370.738,398.968a1.592,1.592,0,1,1-1.591,1.591,1.589,1.589,0,0,1,1.591-1.591Zm0-1.372a2.962,2.962,0,1,0,2.963,2.962,2.962,2.962,0,0,0-2.963-2.962Z" transform="translate(-109.665 -54.054)" fill="#9d9d9c"/>
  <path id="Path_28362" data-name="Path 28362" d="M363.54,431.952a1.58,1.58,0,0,1,1.127.465,1.6,1.6,0,0,1,0,2.252,1.591,1.591,0,0,1-2.249,0,1.6,1.6,0,0,1,0-2.252,1.577,1.577,0,0,1,1.122-.465Zm0-1.372a2.963,2.963,0,1,0,2.1.867,2.963,2.963,0,0,0-2.1-.867Z" transform="translate(-114.139 -33.554)" fill="#9d9d9c"/>
  <g id="Group_26492" data-name="Group 26492" transform="translate(292.198 244.576)">
    <g id="Group_26491" data-name="Group 26491">
      <g id="Group_26490" data-name="Group 26490" transform="translate(2.277)">
        <path id="Path_28363" data-name="Path 28363" d="M390.2,506.537h1.371v-50.7l9.878-9.878V384.176L418.7,366.928V336.563H417.33v29.795l-17.249,17.249v61.788L390.2,455.27Z" transform="translate(-390.202 -336.563)" fill="red"/>
      </g>
      <path id="Path_28364" data-name="Path 28364" d="M391.761,442.518a1.591,1.591,0,1,1-1.591,1.591,1.595,1.595,0,0,1,1.591-1.591Zm0-1.372a2.962,2.962,0,1,0,2.962,2.962,2.964,2.964,0,0,0-2.962-2.962Z" transform="translate(-388.798 -271.563)" fill="red"/>
    </g>
  </g>
  <path id="Path_28365" data-name="Path 28365" d="M400.04,445.841a1.592,1.592,0,1,1-1.589,1.592,1.6,1.6,0,0,1,1.589-1.592Zm0-1.37a2.962,2.962,0,1,0,2.966,2.962,2.962,2.962,0,0,0-2.966-2.962Z" transform="translate(-91.452 -24.922)" fill="#9d9d9c"/>
  <path id="Path_28366" data-name="Path 28366" d="M408.122,426.836a1.591,1.591,0,1,1-1.592,1.591,1.592,1.592,0,0,1,1.592-1.591Zm0-1.372a2.963,2.963,0,1,0,2.963,2.966,2.967,2.967,0,0,0-2.963-2.966Z" transform="translate(-86.433 -36.734)" fill="#9d9d9c"/>
  <g id="Group_26494" data-name="Group 26494" transform="translate(326.429 244.576)">
    <g id="Group_26493" data-name="Group 26493">
      <path id="Path_28367" data-name="Path 28367" d="M418.234,493.682h1.371v-9.958l-8.326-8.328V422.327l11.856-11.855V336.563h-1.371v73.342l-11.855,11.856v54.2l8.325,8.328Z" transform="translate(-409.909 -336.563)" fill="#9d9d9c"/>
    </g>
    <path id="Path_28368" data-name="Path 28368" d="M416.626,434.7a1.592,1.592,0,1,1-1.592,1.591,1.593,1.593,0,0,1,1.592-1.591Zm0-1.372a2.962,2.962,0,1,0,2.962,2.962,2.963,2.963,0,0,0-2.962-2.962Z" transform="translate(-407.575 -276.425)" fill="#9d9d9c"/>
  </g>
  <path id="Path_28369" data-name="Path 28369" d="M415.97,395.009a1.591,1.591,0,1,1-1.587,1.592,1.594,1.594,0,0,1,1.587-1.592Zm0-1.37a2.962,2.962,0,1,0,2.963,2.962,2.964,2.964,0,0,0-2.963-2.962Z" transform="translate(-81.554 -56.513)" fill="#9d9d9c"/>
  <g id="Group_26496" data-name="Group 26496" transform="translate(313.487 2.061)">
    <g id="Group_26495" data-name="Group 26495" transform="translate(0 4.361)">
      <path id="Path_28370" data-name="Path 28370" d="M407.758,229.25l.969-.972-5.429-5.429V193.756l3.1-3.092-.972-.972-3.494,3.5v30.227Z" transform="translate(-401.927 -189.692)" fill="#9d9d9c"/>
    </g>
    <path id="Path_28371" data-name="Path 28371" d="M408.206,214.583a1.592,1.592,0,1,1-1.124,2.714,1.59,1.59,0,0,1,1.124-2.714Zm0-1.372a2.962,2.962,0,1,0,2.095.868,2.961,2.961,0,0,0-2.095-.868Z" transform="translate(-399.865 -170.713)" fill="#9d9d9c"/>
    <path id="Path_28372" data-name="Path 28372" d="M408.773,192.059a2.962,2.962,0,1,1,0-4.19A2.962,2.962,0,0,1,408.773,192.059Z" transform="translate(-400.815 -187.002)" fill="#9d9d9c"/>
  </g>
  <path id="Path_28373" data-name="Path 28373" d="M419.38,241.864a2.962,2.962,0,1,1,0-4.188A2.957,2.957,0,0,1,419.38,241.864Z" transform="translate(-80.736 -153.988)" fill="#9d9d9c"/>
  <g id="Group_26498" data-name="Group 26498" transform="translate(263.339 149.16)">
    <g id="Group_26497" data-name="Group 26497" transform="translate(4.144 4.144)">
      <path id="Path_28374" data-name="Path 28374" d="M386.749,294.434h14.16v-1.371H387.316l-12.791-12.789-.969.969Z" transform="translate(-373.556 -280.275)" fill="#9d9d9c"/>
    </g>
    <path id="Path_28375" data-name="Path 28375" d="M373.962,279.091a1.594,1.594,0,1,1-1.122.465,1.581,1.581,0,0,1,1.122-.465Zm0-1.372a2.961,2.961,0,1,0,2.1.867,2.954,2.954,0,0,0-2.1-.867Z" transform="translate(-371 -277.719)" fill="#9d9d9c"/>
    <path id="Path_28376" data-name="Path 28376" d="M395.259,291.814a2.962,2.962,0,1,1,0-4.19A2.962,2.962,0,0,1,395.259,291.814Z" transform="translate(-359.067 -272.102)" fill="#9d9d9c"/>
  </g>
  <path id="Path_28377" data-name="Path 28377" d="M411.809,225.627a2.962,2.962,0,1,1,0-4.187A2.958,2.958,0,0,1,411.809,225.627Z" transform="translate(-85.441 -164.078)" fill="#9d9d9c"/>
  <path id="Path_28378" data-name="Path 28378" d="M392.191,190.786a2.963,2.963,0,1,1,0-4.188A2.961,2.961,0,0,1,392.191,190.786Z" transform="translate(-97.635 -185.73)" fill="#9d9d9c"/>
  <path id="Path_28379" data-name="Path 28379" d="M372.833,197.416a2.963,2.963,0,1,1,0-4.19A2.964,2.964,0,0,1,372.833,197.416Z" transform="translate(-109.665 -181.611)" fill="#9d9d9c"/>
  <path id="Path_28380" data-name="Path 28380" d="M359.82,205.055a2.962,2.962,0,1,1,0-4.19A2.962,2.962,0,0,1,359.82,205.055Z" transform="translate(-117.754 -176.863)" fill="red"/>
  <g id="Group_26500" data-name="Group 26500" transform="translate(210.919 75.172)">
    <g id="Group_26499" data-name="Group 26499" transform="translate(2.477 2.478)">
      <path id="Path_28381" data-name="Path 28381" d="M415.63,313.206H427v-1.374H416.2l-18.5-18.5v-15.12l-24.589-24.589H361.177l-20.007-20.007-.969.969L360.609,255h11.932l23.788,23.785V293.9Z" transform="translate(-340.2 -233.619)" fill="#9d9d9c"/>
    </g>
    <path id="Path_28382" data-name="Path 28382" d="M396.6,281.824a1.59,1.59,0,1,1-1.592,1.587,1.589,1.589,0,0,1,1.592-1.587Zm0-1.375a2.962,2.962,0,1,0,2.961,2.962,2.961,2.961,0,0,0-2.961-2.962Z" transform="translate(-304.509 -202.035)" fill="#9d9d9c"/>
    <path id="Path_28383" data-name="Path 28383" d="M343.729,237.149a2.963,2.963,0,1,1,0-4.19A2.964,2.964,0,0,1,343.729,237.149Z" transform="translate(-338.672 -232.091)" fill="#9d9d9c"/>
  </g>
  <g id="Group_26502" data-name="Group 26502" transform="translate(188.008 107.625)">
    <g id="Group_26501" data-name="Group 26501" transform="translate(2.478 2.478)">
      <path id="Path_28384" data-name="Path 28384" d="M369.608,278.976l.969-.969-4.287-4.284H347.131l-20.09-20.09-.969.969,20.492,20.492h19.159Z" transform="translate(-326.072 -253.632)" fill="#9d9d9c"/>
    </g>
    <path id="Path_28385" data-name="Path 28385" d="M355.492,269.645a1.589,1.589,0,1,1-1.127.465,1.591,1.591,0,0,1,1.127-.465Zm0-1.372a2.963,2.963,0,1,0,2.1.868,2.952,2.952,0,0,0-2.1-.868Z" transform="translate(-307.15 -242.055)" fill="#9d9d9c"/>
    <path id="Path_28386" data-name="Path 28386" d="M329.6,257.161a2.963,2.963,0,1,1,0-4.19A2.962,2.962,0,0,1,329.6,257.161Z" transform="translate(-324.543 -252.104)" fill="#9d9d9c"/>
  </g>
  <g id="Group_26505" data-name="Group 26505" transform="translate(180.505 146.174)">
    <g id="Group_26504" data-name="Group 26504">
      <g id="Group_26503" data-name="Group 26503" transform="translate(2.478 2.477)">
        <path id="Path_28387" data-name="Path 28387" d="M402.945,316.253h75.171v-1.371h-74.6l-13.854-13.857H362.024L350.695,289.7H334.707l-12.293-12.293-.969.969,12.7,12.695h15.988L361.454,302.4h27.634Z" transform="translate(-321.445 -277.405)" fill="red"/>
      </g>
      <path id="Path_28388" data-name="Path 28388" d="M324.975,280.934a2.963,2.963,0,1,1,0-4.19A2.966,2.966,0,0,1,324.975,280.934Z" transform="translate(-319.916 -275.877)" fill="red"/>
    </g>
  </g>
  <g id="Group_26507" data-name="Group 26507" transform="translate(172.103 169.633)">
    <g id="Group_26506" data-name="Group 26506" transform="translate(3.8 2.276)">
      <path id="Path_28389" data-name="Path 28389" d="M317.078,300.992h10.058L335,293.12h9.185v-1.371h-9.752l-7.871,7.869h-9.488Z" transform="translate(-317.078 -291.749)" fill="#9d9d9c"/>
    </g>
    <path id="Path_28390" data-name="Path 28390" d="M317.533,296.638a1.5,1.5,0,1,1-1.5,1.5,1.5,1.5,0,0,1,1.5-1.5Zm0-1.294a2.8,2.8,0,1,0,2.8,2.8,2.8,2.8,0,0,0-2.8-2.8Z" transform="translate(-314.734 -287.238)" fill="#9d9d9c"/>
    <path id="Path_28391" data-name="Path 28391" d="M338.774,295.4a2.963,2.963,0,1,1,0-4.19A2.964,2.964,0,0,1,338.774,295.4Z" transform="translate(-302.937 -290.345)" fill="#9d9d9c"/>
  </g>
  <g id="Group_26509" data-name="Group 26509" transform="translate(165.946 196.293)">
    <g id="Group_26508" data-name="Group 26508" transform="translate(4.299 2.276)">
      <path id="Path_28392" data-name="Path 28392" d="M313.589,328.234h29.944l.2-.2L362.2,309.561H375.4V308.19H361.638l-18.673,18.672H313.589Z" transform="translate(-313.589 -308.19)" fill="#9d9d9c"/>
    </g>
    <path id="Path_28393" data-name="Path 28393" d="M313.736,319.7a1.5,1.5,0,1,1-1.5,1.5,1.5,1.5,0,0,1,1.5-1.5Zm0-1.294a2.8,2.8,0,1,0,2.8,2.8,2.8,2.8,0,0,0-2.8-2.8Z" transform="translate(-310.937 -299.566)" fill="#9d9d9c"/>
    <path id="Path_28394" data-name="Path 28394" d="M356.626,311.843a2.963,2.963,0,1,1,0-4.19A2.964,2.964,0,0,1,356.626,311.843Z" transform="translate(-285.684 -306.786)" fill="#9d9d9c"/>
  </g>
  <g id="Group_26512" data-name="Group 26512" transform="translate(187.07 130.391)">
    <g id="Group_26511" data-name="Group 26511">
      <g id="Group_26510" data-name="Group 26510" transform="translate(4.449 4.45)">
        <path id="Path_28395" data-name="Path 28395" d="M369.923,294.094l10.77-10.771-.969-.969-9.8,9.8-10.2-10.2H340.744l-13.067-13.067-.969.969,13.469,13.469h18.978Z" transform="translate(-326.708 -268.888)" fill="red"/>
      </g>
      <path id="Path_28396" data-name="Path 28396" d="M326.926,267.516a1.594,1.594,0,1,1-1.125.469,1.581,1.581,0,0,1,1.125-.469Zm0-1.372a2.963,2.963,0,1,0,2.1.867,2.958,2.958,0,0,0-2.1-.867Z" transform="translate(-323.964 -266.144)" fill="red"/>
      <path id="Path_28397" data-name="Path 28397" d="M362.934,280.723a2.964,2.964,0,1,1,0-4.192A2.966,2.966,0,0,1,362.934,280.723Z" transform="translate(-302.888 -260.227)" fill="red"/>
    </g>
  </g>
  <g id="Group_26514" data-name="Group 26514" transform="translate(167.446 180.61)">
    <g id="Group_26513" data-name="Group 26513" transform="translate(2.969)">
      <path id="Path_28398" data-name="Path 28398" d="M313.694,315.1h23.1l16.616-16.616h29.462l13.86,13.857h86.2v-1.371H397.3l-13.857-13.857h-30.6L336.226,313.73H313.694Z" transform="translate(-313.694 -297.115)" fill="#9d9d9c"/>
    </g>
    <path id="Path_28399" data-name="Path 28399" d="M316.64,310.718a2.8,2.8,0,1,1,0-3.958A2.8,2.8,0,0,1,316.64,310.718Z" transform="translate(-311.862 -291.629)" fill="#9d9d9c"/>
  </g>
  <path id="Path_28400" data-name="Path 28400" d="M318.365,331.551a2.8,2.8,0,1,1,0-3.958A2.8,2.8,0,0,1,318.365,331.551Z" transform="translate(-143.343 -98.072)" fill="#9d9d9c"/>
  <g id="Group_26517" data-name="Group 26517" transform="translate(177.399 211.153)">
    <g id="Group_26516" data-name="Group 26516">
      <g id="Group_26515" data-name="Group 26515" transform="translate(2.964)">
        <path id="Path_28401" data-name="Path 28401" d="M319.828,356.647h31.392l.2-.2,19.95-19.95h16.484l.2-.2,18.975-18.976h72.09V315.95H406.463l-.2.2-18.975,18.975H370.8l-.2.2-19.95,19.95H319.828Z" transform="translate(-319.828 -315.95)" fill="red"/>
      </g>
      <path id="Path_28402" data-name="Path 28402" d="M323.057,343.857a2.962,2.962,0,1,1,0-4.19A2.962,2.962,0,0,1,323.057,343.857Z" transform="translate(-318 -301.749)" fill="red"/>
    </g>
  </g>
  <g id="Group_26520" data-name="Group 26520" transform="translate(176.402 277.186)">
    <g id="Group_26519" data-name="Group 26519">
      <g id="Group_26518" data-name="Group 26518" transform="translate(3.273 4.275)">
        <path id="Path_28403" data-name="Path 28403" d="M319.4,364.334h22.23l4.053-4.052-.969-.972-3.654,3.654H319.4Z" transform="translate(-319.404 -359.31)" fill="red"/>
      </g>
      <path id="Path_28404" data-name="Path 28404" d="M337.559,358.045a1.59,1.59,0,1,1-1.125.464,1.586,1.586,0,0,1,1.125-.464Zm0-1.372a2.962,2.962,0,1,0,2.095.868,2.946,2.946,0,0,0-2.095-.868Z" transform="translate(-306.688 -356.673)" fill="red"/>
      <path id="Path_28405" data-name="Path 28405" d="M322.162,364.968a2.8,2.8,0,1,1,0-3.958A2.8,2.8,0,0,1,322.162,364.968Z" transform="translate(-317.385 -354.486)" fill="red"/>
    </g>
  </g>
  <g id="Group_26522" data-name="Group 26522" transform="translate(178.067 219.494)">
    <g id="Group_26521" data-name="Group 26521" transform="translate(5.705)">
      <path id="Path_28406" data-name="Path 28406" d="M321.93,400.428h31.334l12.4-12.4V355.276h10.68l.2-.2,32.609-32.609h68.66v-1.371H408.585l-.2.2L375.775,353.9H364.294v33.556l-11.6,11.6H321.93Z" transform="translate(-321.93 -321.095)" fill="#9d9d9c"/>
    </g>
    <path id="Path_28407" data-name="Path 28407" d="M323.468,372.829a2.962,2.962,0,1,1,0-4.188A2.96,2.96,0,0,1,323.468,372.829Z" transform="translate(-318.412 -292.085)" fill="#9d9d9c"/>
  </g>
  <g id="Group_26524" data-name="Group 26524" transform="translate(174.901 258.653)">
    <g id="Group_26523" data-name="Group 26523" transform="translate(4.457)">
      <path id="Path_28408" data-name="Path 28408" d="M319.209,357.609h14.658l10.423-10.427,8.725,8.728.972-.969-9.7-9.7L333.3,356.238H319.209Z" transform="translate(-319.209 -345.244)" fill="#9d9d9c"/>
    </g>
    <path id="Path_28409" data-name="Path 28409" d="M319.255,352.44a1.5,1.5,0,1,1-1.5,1.5,1.5,1.5,0,0,1,1.5-1.5Zm0-1.3a2.8,2.8,0,1,0,2.8,2.8,2.794,2.794,0,0,0-2.8-2.8Z" transform="translate(-316.46 -341.577)" fill="#9d9d9c"/>
    <path id="Path_28410" data-name="Path 28410" d="M344.768,355.933a2.963,2.963,0,1,1,0-4.188A2.966,2.966,0,0,1,344.768,355.933Z" transform="translate(-302.01 -341.745)" fill="#9d9d9c"/>
  </g>
  <g id="Group_26527" data-name="Group 26527" transform="translate(190.215 296.512)">
    <g id="Group_26526" data-name="Group 26526">
      <g id="Group_26525" data-name="Group 26525" transform="translate(5.704 2.477)">
        <path id="Path_28411" data-name="Path 28411" d="M329.422,389.825h16.558l.2-.2,18.532-18.532-.969-.972-18.334,18.334H329.422Z" transform="translate(-329.422 -370.12)" fill="red"/>
      </g>
      <path id="Path_28412" data-name="Path 28412" d="M328.866,381.393a1.592,1.592,0,1,1-1.592,1.592,1.593,1.593,0,0,1,1.592-1.592Zm0-1.37a2.962,2.962,0,1,0,2.963,2.962,2.963,2.963,0,0,0-2.963-2.962Z" transform="translate(-325.904 -361.489)" fill="red"/>
      <path id="Path_28413" data-name="Path 28413" d="M354.117,373.649a2.962,2.962,0,1,1,0-4.187A2.961,2.961,0,0,1,354.117,373.649Z" transform="translate(-311.512 -368.593)" fill="red"/>
    </g>
  </g>
  <g id="Group_26529" data-name="Group 26529" transform="translate(264.193 244.496)">
    <g id="Group_26528" data-name="Group 26528" transform="translate(0 4.358)">
      <path id="Path_28414" data-name="Path 28414" d="M383.66,419.086l.969-.972L372.9,406.382V364.429l24.258-24.258-.969-.969-24.66,24.66v43.091Z" transform="translate(-371.527 -339.201)" fill="#9d9d9c"/>
    </g>
    <path id="Path_28415" data-name="Path 28415" d="M381.554,388.823a1.592,1.592,0,1,1-1.124.465,1.573,1.573,0,0,1,1.124-.465Zm0-1.373a2.962,2.962,0,1,0,2.095.866,2.962,2.962,0,0,0-2.095-.866Z" transform="translate(-367.136 -304.856)" fill="#9d9d9c"/>
    <path id="Path_28416" data-name="Path 28416" d="M391.425,341.57a2.962,2.962,0,1,1,0-4.187A2.959,2.959,0,0,1,391.425,341.57Z" transform="translate(-362.304 -336.514)" fill="#9d9d9c"/>
  </g>
  <path id="Path_28417" data-name="Path 28417" d="M344.615,391.348a2.963,2.963,0,1,1,0-4.188A2.966,2.966,0,0,1,344.615,391.348Z" transform="translate(-127.204 -61.082)" fill="#9d9d9c"/>
  <g id="Group_26531" data-name="Group 26531" transform="translate(219.132 339.014)">
    <g id="Group_26530" data-name="Group 26530" transform="translate(4.363 5.592)">
      <path id="Path_28418" data-name="Path 28418" d="M347.4,419.41l10.3-10.3V398.252h-1.371V408.54l-9.9,9.9Z" transform="translate(-346.428 -398.252)" fill="#9d9d9c"/>
    </g>
    <path id="Path_28419" data-name="Path 28419" d="M346.7,411.709a1.59,1.59,0,1,1-1.127.465,1.588,1.588,0,0,1,1.127-.465Zm0-1.373a2.962,2.962,0,1,0,2.095.869,2.941,2.941,0,0,0-2.095-.869Z" transform="translate(-343.737 -385.149)" fill="#9d9d9c"/>
    <path id="Path_28420" data-name="Path 28420" d="M354.094,400.728a2.962,2.962,0,1,1,2.961-2.962A2.963,2.963,0,0,1,354.094,400.728Z" transform="translate(-339.144 -394.803)" fill="#9d9d9c"/>
  </g>
  <g id="Group_26534" data-name="Group 26534" transform="translate(231.794 323.703)">
    <g id="Group_26533" data-name="Group 26533">
      <g id="Group_26532" data-name="Group 26532" transform="translate(2.477 4.353)">
        <path id="Path_28421" data-name="Path 28421" d="M354.046,440.665l15.4-15.4V397.337l-9.292-9.292-.971.969,8.893,8.893V424.7l-15,15Z" transform="translate(-353.074 -388.046)" fill="red"/>
      </g>
      <path id="Path_28422" data-name="Path 28422" d="M357.117,386.733a1.591,1.591,0,1,1-1.125,2.716,1.591,1.591,0,0,1,1.125-2.716Zm0-1.372a2.963,2.963,0,1,0,2.093.868,2.951,2.951,0,0,0-2.093-.868Z" transform="translate(-349.924 -385.361)" fill="red"/>
      <path id="Path_28423" data-name="Path 28423" d="M354.508,424.3a2.962,2.962,0,1,1,2.964-2.962A2.964,2.964,0,0,1,354.508,424.3Z" transform="translate(-351.546 -364.845)" fill="red"/>
    </g>
  </g>
  <g id="Group_26536" data-name="Group 26536" transform="translate(252.968 236.176)">
    <g id="Group_26535" data-name="Group 26535">
      <path id="Path_28424" data-name="Path 28424" d="M383.935,502.561h1.371V437.425l-.2-.2L365.975,418.1V363.98l31.23-31.227h54.087v-1.371H396.635l-.2.2-31.83,31.83v55.251l.2.2,19.129,19.129Z" transform="translate(-364.604 -331.382)" fill="#9d9d9c"/>
    </g>
    <path id="Path_28425" data-name="Path 28425" d="M381.063,439.776a2.964,2.964,0,1,1-2.966-2.962A2.964,2.964,0,0,1,381.063,439.776Z" transform="translate(-358.06 -265.856)" fill="#9d9d9c"/>
  </g>
  <g id="Group_26538" data-name="Group 26538" transform="translate(280.968 244.576)">
    <g id="Group_26537" data-name="Group 26537" transform="translate(2.277)">
      <path id="Path_28426" data-name="Path 28426" d="M383.277,499.167h1.371V438.781L391,432.427v-54l23.661-23.661v-18.2h-1.371V354.2L389.631,377.86v54l-6.354,6.354Z" transform="translate(-383.277 -336.563)" fill="#9d9d9c"/>
    </g>
    <circle id="Ellipse_346" data-name="Ellipse 346" cx="2.963" cy="2.963" r="2.963" transform="translate(0 162.387)" fill="#9d9d9c"/>
  </g>
  <path id="Path_28427" data-name="Path 28427" d="M411.084,448.325a2.964,2.964,0,1,1-2.963-2.959A2.963,2.963,0,0,1,411.084,448.325Z" transform="translate(-86.433 -24.365)" fill="#9d9d9c"/>
  <path id="Path_28428" data-name="Path 28428" d="M420.278,422.19a2.962,2.962,0,1,0-4.19,0A2.959,2.959,0,0,0,420.278,422.19Z" transform="translate(-80.177 -41.912)" fill="#9d9d9c"/>
  <g id="Group_26540" data-name="Group 26540" transform="translate(275.121 250.444)">
    <g id="Group_26539" data-name="Group 26539" transform="translate(2.277 4.263)">
      <path id="Path_28429" data-name="Path 28429" d="M379.67,403.549h1.371V367.8l24.016-24.016-.972-.972L379.67,367.229Z" transform="translate(-379.67 -342.811)" fill="#9d9d9c"/>
    </g>
    <path id="Path_28430" data-name="Path 28430" d="M397.263,341.554a1.592,1.592,0,1,1-1.124.465,1.586,1.586,0,0,1,1.124-.465Zm0-1.372a2.963,2.963,0,1,0,2.1.868,2.961,2.961,0,0,0-2.1-.868Z" transform="translate(-368.3 -340.182)" fill="#9d9d9c"/>
    <path id="Path_28431" data-name="Path 28431" d="M381.228,384.367a2.963,2.963,0,1,1,2.963-2.962A2.963,2.963,0,0,1,381.228,384.367Z" transform="translate(-378.266 -316.403)" fill="#9d9d9c"/>
  </g>
  <path id="Path_28432" data-name="Path 28432" d="M340.25,408.105a2.962,2.962,0,1,1,0-4.19A2.958,2.958,0,0,1,340.25,408.105Z" transform="translate(-129.915 -50.666)" fill="#9d9d9c"/>
  <g id="Group_26541" data-name="Group 26541" transform="translate(293.79 4.291)">
    <path id="Path_28433" data-name="Path 28433" d="M415.244,249.612l3.574-3.577-.969-.969-2.6,2.6-13.452-13.45v-34.8l-11.04-11.043-.972.969,10.641,10.641v34.8Z" transform="translate(-389.78 -188.377)" fill="#9d9d9c"/>
  </g>
  <g id="Group_26543" data-name="Group 26543" transform="translate(222.653 39.584)">
    <path id="Path_28434" data-name="Path 28434" d="M348.871,211.515a1.59,1.59,0,1,1-1.589,1.587,1.591,1.591,0,0,1,1.589-1.587Zm0-1.372a2.961,2.961,0,1,0,2.964,2.959,2.961,2.961,0,0,0-2.964-2.959Z" transform="translate(-345.909 -210.143)" fill="#9d9d9c"/>
    <path id="Path_28435" data-name="Path 28435" d="M361.894,230.441a2.961,2.961,0,1,1,0-4.188A2.955,2.955,0,0,1,361.894,230.441Z" transform="translate(-339.115 -200.67)" fill="#9d9d9c"/>
    <g id="Group_26542" data-name="Group 26542" transform="translate(2.276 5.785)">
      <path id="Path_28436" data-name="Path 28436" d="M365.239,236.271l.969-.969-17.524-17.524v-4.067h-1.371v4.637Z" transform="translate(-347.313 -213.711)" fill="#9d9d9c"/>
    </g>
  </g>
</svg>
