<svg id="Group_25025" data-name="Group 25025" xmlns="http://www.w3.org/2000/svg" width="124.041" height="29.134" viewBox="0 0 124.041 29.134">
  <g id="Group_25020" data-name="Group 25020" transform="translate(0 0)">
    <g id="Group_25023" data-name="Group 25023" transform="translate(0 0)">
      <path id="Path_25426" data-name="Path 25426" d="M173.528,195.99v12.05H168.3V197.1c0-2.775-1.586-4.638-4-4.638-2.973,0-4.915,1.982-4.915,6.818v8.759h-5.232V188.261h5.232v1.783a8.427,8.427,0,0,1,6.223-2.378C170.357,187.666,173.528,191.074,173.528,195.99Z" transform="translate(-154.145 -179.5)" fill="#ff2b2b"/>
      <path id="Path_25427" data-name="Path 25427" d="M194.359,201.737c.278,2.022,2.022,2.695,4.083,2.695,1.942,0,3.092-.872,3.092-1.981,0-.713-.476-1.427-2.18-1.784l-4.043-.832c-3.568-.753-5.589-2.775-5.589-5.629,0-3.805,3.091-6.54,8.086-6.54,4.677,0,7.927,2.417,8.6,5.866l-4.994.99c-.2-1.586-1.586-2.735-3.766-2.735-2.1,0-2.695,1.031-2.695,1.942,0,.634.238,1.309,1.783,1.665l4.717,1.03c3.488.753,5.192,2.933,5.192,5.589,0,4.36-3.527,6.619-8.681,6.619-4.36,0-8.363-1.7-8.878-5.827Z" transform="translate(-165.367 -179.5)" fill="#ff2b2b"/>
      <path id="Path_25428" data-name="Path 25428" d="M221.342,204.176V175.637h5.232v28.539Z" transform="translate(-175.726 -175.637)" fill="#ff2b2b"/>
      <g id="Group_25022" data-name="Group 25022" transform="translate(55.184)">
        <path id="Path_25429" data-name="Path 25429" d="M254.82,192.126v12.05h-5.232v-10.94c0-2.775-1.7-4.628-4.334-4.628-3.083,0-4.584,1.973-4.584,6.809v8.759h-5.232V175.637h5.232v9.806a8.927,8.927,0,0,1,6.223-1.64C251.628,184.246,254.82,187.211,254.82,192.126Z" transform="translate(-235.437 -175.637)" fill="#323232"/>
        <path id="Path_25430" data-name="Path 25430" d="M289.664,208.321h-5.233v-1.783a8.425,8.425,0,0,1-6.223,2.378c-4.757,0-7.927-3.409-7.927-8.324v-12.05h5.232v10.94c0,2.774,1.585,4.638,4,4.638,2.973,0,4.915-1.982,4.915-6.818v-8.76h5.233Z" transform="translate(-246.628 -179.782)" fill="#323232"/>
        <path id="Path_25431" data-name="Path 25431" d="M326.706,194.307c0,6.223-4.678,10.464-9.711,10.464a10.128,10.128,0,0,1-6.541-2.14v1.545h-5.232V175.637h5.232v10.345A9.931,9.931,0,0,1,317,183.8C322.029,183.8,326.706,188.083,326.706,194.307Zm-5.074,0c0-3.647-2.378-5.946-5.55-5.946a5.934,5.934,0,0,0,0,11.852C319.255,200.212,321.633,197.953,321.633,194.307Z" transform="translate(-257.849 -175.637)" fill="#323232"/>
      </g>
    </g>
  </g>
</svg>
