<svg xmlns="http://www.w3.org/2000/svg" width="794.44" height="420.336" viewBox="0 0 794.44 420.336">
  <g id="Component_4_1" data-name="Component 4 – 1" transform="translate(0 0.5)">
    <g id="Group_26147" data-name="Group 26147" transform="translate(65.372 110.527)">
      <g id="Group_26147-2" data-name="Group 26147-2" transform="translate(14.805 177.936)">
        <path id="Path_27390" data-name="Path 27390" d="M160.149,451.807V398.628H387s23.929,0,23.929,26.572c0,26.61-23.929,26.607-23.929,26.607H151.639" transform="translate(-151.441 -398.628)" fill="none" stroke="#323232" stroke-miterlimit="10" stroke-width="0.568"/>
      </g>
      <path id="Path_27391" data-name="Path 27391" d="M412.122,527.438V285.89h55.443V527.438" transform="translate(-84.848 -243.089)" fill="none" stroke="red" stroke-miterlimit="10" stroke-width="0.568"/>
      <rect id="Rectangle_9520" data-name="Rectangle 9520" width="55.443" height="273.227" transform="translate(388.491 11.122)" fill="none" stroke="#323232" stroke-width="0.812"/>
      <path id="Path_27392" data-name="Path 27392" d="M576.248,520.695H535.494L514.269,319.831h40.759Z" transform="translate(-64.555 -236.346)" fill="none" stroke="red" stroke-width="0.812"/>
      <g id="Group_26148" data-name="Group 26148" transform="translate(526.704 70.707)">
        <path id="Path_27393" data-name="Path 27393" d="M627.1,503.173c-8.8-6.672-15.05-31.629-15.05-52.946s21.316-17.071,21.316-39.99v-3.855H643v3.855c0,22.915,21.318,18.672,21.318,39.99s-6.252,46.274-15.054,52.946Z" transform="translate(-571.833 -289.858)" fill="none" stroke="red" stroke-miterlimit="10" stroke-width="0.568"/>
        <path id="Path_27394" data-name="Path 27394" d="M611.673,309.171h66.358L711.21,425.7H578.5l33.179-116.528Z" transform="translate(-578.499 -309.171)" fill="none" stroke="red" stroke-miterlimit="10" stroke-width="0.568"/>
      </g>
      <path id="Path_29125" data-name="Path 29125" d="M495.83,476.263l-.02-1.42-5.951.083-.05-3.625c-.047-3.293-2.16-4.966-4.882-4.928s-4.78,1.766-4.734,5.085l.07,5.024Zm-7.25-1.32-7.061.1-.05-3.565a3.555,3.555,0,0,1,7.061-.723,3.156,3.156,0,0,1,0,.6Zm7.066-11.785-.019-1.353-7.541.105A2.975,2.975,0,0,1,485.053,459c0-.066,0-.132,0-.2a5.791,5.791,0,0,1,.065-.815l-1.376.019c0,.182-.014.5-.012.714a3.354,3.354,0,0,0,2.014,3.164v.1l-1.794.025.018,1.317Zm.078-11.808c-.042-3.025-2.542-5.1-6.1-5.055-3.58.05-6.021,2.2-5.979,5.224s2.542,5.1,6.123,5.054C493.326,456.523,495.766,454.375,495.724,451.35Zm-1.238.017c.034,2.425-2.122,3.809-4.736,3.845s-4.84-1.285-4.875-3.711,2.153-3.808,4.767-3.845S494.451,448.941,494.486,451.366Zm1.061-12.688a4.265,4.265,0,0,0-3.711-4.4l.019,1.368a3,3,0,0,1,2.454,3.053c.031,2.288-1.938,3.829-4.781,3.868-2.828.04-4.8-1.49-4.827-3.734a3.032,3.032,0,0,1,2.352-3.112l-.019-1.368a4.287,4.287,0,0,0-3.564,4.52c.042,3.057,2.609,5.1,6.123,5.054C493.073,443.876,495.591,441.818,495.547,438.679Zm-.169-12.072a4.506,4.506,0,0,0-2.8-4.408l-.4,1.29a3.254,3.254,0,0,1,1.96,3.136c.034,2.387-1.686,3.923-4.383,4.022l-.122-8.7-.668.01c-3.9.054-5.7,2.49-5.664,5.021.043,3.024,2.6,5.08,6.138,5.031S495.424,429.872,495.378,426.607Zm-6.816,4.049a3.935,3.935,0,0,1-4.029-3.693,3.674,3.674,0,0,1,3.926-3.613ZM485.8,411.185a3.8,3.8,0,0,0-2.669,3.99c.034,2.357,1.4,4.048,3.325,4.021,1.567-.022,2.614-.988,3.072-3.023l.43-1.914c.287-1.289.939-1.914,1.874-1.927,1.215-.017,2.137,1.139,2.162,2.928a2.662,2.662,0,0,1-2.065,2.948l.344,1.3c1.939-.438,2.975-2,2.943-4.283-.036-2.57-1.472-4.314-3.458-4.285-1.557.022-2.587,1.016-3.037,2.977l-.409,1.769c-.345,1.456-.921,2.138-1.931,2.152-1.187.017-2.031-1.1-2.052-2.677a2.616,2.616,0,0,1,1.84-2.74Zm-.153-10.976a3.8,3.8,0,0,0-2.669,3.99c.034,2.357,1.4,4.048,3.325,4.022,1.565-.022,2.614-.988,3.072-3.023l.429-1.914c.286-1.289.939-1.914,1.875-1.927,1.215-.017,2.137,1.139,2.162,2.927a2.662,2.662,0,0,1-2.065,2.949l.338,1.3c1.945-.435,2.981-2,2.949-4.284-.036-2.57-1.474-4.313-3.458-4.285-1.557.022-2.587,1.016-3.037,2.977l-.409,1.769c-.344,1.456-.921,2.141-1.932,2.155-1.186.017-2.029-1.1-2.051-2.678a2.616,2.616,0,0,1,1.84-2.74Z" transform="translate(-71.325 -226.428)" fill="#323232"/>
      <path id="Path_29124" data-name="Path 29124" d="M480.156,402.409h14.861v-1.278h-12v-.115l12-5.014v-1.235l-12-5.013v-.116h12v-1.277H480.156v1.567l12.944,5.392v.131l-12.941,5.39Zm15.114-20.84a3.672,3.672,0,0,0-2.016-3.458v-.079h1.763v-1.291h-7.568c-2.989,0-3.729,2.249-3.729,3.954a4.279,4.279,0,0,0,2.5,4.216l.442-1.226a3.094,3.094,0,0,1-1.778-3.025,2.322,2.322,0,0,1,1.99-2.612,2.3,2.3,0,0,1,.463-.016h.261c.841,0,.856,1.045,1.088,2.919.313,2.518,1.016,4.282,3.222,4.282A3.348,3.348,0,0,0,495.27,381.569Zm-1.183-.174c0,1.46-.778,2.547-2.125,2.547s-1.917-1.1-2.148-2.988a7.9,7.9,0,0,0-.681-2.92h1.611a3.24,3.24,0,0,1,3.344,3.131C494.09,381.242,494.09,381.319,494.087,381.4Zm-6.032-9.375a2.919,2.919,0,0,1-3.136-2.685,2.814,2.814,0,0,1-.006-.348,2.7,2.7,0,0,1,2.967-2.814h7.137v-1.295H487.8c-2.641,0-4.072,1.532-4.072,3.781a3.375,3.375,0,0,0,1.894,3.28v.115h-1.751v1.256h11.149v-1.29Zm7.215-13.661a3.669,3.669,0,0,0-2.016-3.453v-.08h1.763v-1.291h-7.568c-2.989,0-3.729,2.25-3.729,3.954a4.279,4.279,0,0,0,2.5,4.216l.442-1.226a3.093,3.093,0,0,1-1.778-3.025,2.322,2.322,0,0,1,1.99-2.612,2.392,2.392,0,0,1,.463-.016h.261c.841,0,.856,1.045,1.088,2.919.313,2.518,1.016,4.282,3.222,4.282A3.355,3.355,0,0,0,495.27,358.36Zm-1.183-.174c0,1.46-.778,2.547-2.125,2.547s-1.915-1.108-2.148-2.992a7.9,7.9,0,0,0-.681-2.919h1.611a3.239,3.239,0,0,1,3.344,3.131c0,.077,0,.153,0,.23Zm5.341-12.338c0-2.641-1.291-4.6-4.121-4.6H483.871v1.266H486v.131a3.557,3.557,0,0,0-2.279,3.425c0,2.756,2.307,4.605,5.7,4.605,3.417,0,5.486-1.917,5.486-4.586a3.5,3.5,0,0,0-2.184-3.425v-.116h2.51c2.075,0,3.041,1.328,3.041,3.3a3.451,3.451,0,0,1-1.772,3.3l.7,1.06C498.47,349.55,499.428,348.127,499.428,345.848Zm-5.71.087c0,2.213-1.77,3.439-4.325,3.439-2.51,0-4.5-1.2-4.5-3.439,0-2.185,1.887-3.405,4.5-3.405,2.692,0,4.325,1.257,4.325,3.405Zm1.532-12.618a4.3,4.3,0,0,0-2.613-4.244l-.4,1.226a3.105,3.105,0,0,1,1.829,3.016c0,2.28-1.663,3.723-4.238,3.781v-8.3h-.638c-3.723,0-5.471,2.3-5.471,4.717,0,2.888,2.415,4.883,5.79,4.883S495.25,336.437,495.25,333.317Zm-6.558,3.773a3.753,3.753,0,0,1-3.794-3.577,3.5,3.5,0,0,1,3.6-3.407q.1,0,.2.011Zm6.325-11.131v-1.291h-7.14a2.752,2.752,0,0,1-2.959-2.527c0-.058-.007-.115-.008-.173a2.3,2.3,0,0,1,2.53-2.409h7.578v-1.32h-7.336a2.547,2.547,0,0,1-2.772-2.656,2.327,2.327,0,0,1,2.173-2.469,2.258,2.258,0,0,1,.467.017h7.468v-1.291h-7.468c-2.5,0-3.824,1.284-3.824,3.351a3.347,3.347,0,0,0,2.026,3.3v.1a3.29,3.29,0,0,0-.164,6v.116h-1.713v1.255Zm.233-22.036a4.3,4.3,0,0,0-2.613-4.246l-.4,1.226a3.105,3.105,0,0,1,1.829,3.016c0,2.279-1.663,3.723-4.238,3.781v-8.3h-.638c-3.723,0-5.471,2.3-5.471,4.716,0,2.889,2.415,4.885,5.79,4.885S495.25,307.044,495.25,303.923Zm-6.558,3.773a3.753,3.753,0,0,1-3.794-3.577,3.5,3.5,0,0,1,3.6-3.407q.1,0,.2.011Zm-.638-12.423a2.919,2.919,0,0,1-3.136-2.685,2.807,2.807,0,0,1-.006-.348,2.7,2.7,0,0,1,2.968-2.814h7.137v-1.291H487.8c-2.641,0-4.072,1.531-4.072,3.779a3.376,3.376,0,0,0,1.894,3.281v.114h-1.751v1.255h11.149v-1.291Zm-4.185-14.94v2.359H481.2v1.3h2.669v1.663h1.125v-1.663h7.415a2.729,2.729,0,0,0,2.777-2.68c0-.062,0-.123,0-.186a3.09,3.09,0,0,0-.194-1.146l-1.168.276a2.676,2.676,0,0,1,.1.754c0,.876-.414,1.684-1.814,1.684h-7.111v-2.359Z" transform="translate(-71.332 -241.264)" fill="#323232"/>
      <path id="Path_29123" data-name="Path 29123" d="M445.394,431.829a.243.243,0,0,1,.1-.156.222.222,0,0,1,.156-.028.252.252,0,0,1,.149.084.288.288,0,0,1,.062.2v8.864a.229.229,0,0,1-.056.162.268.268,0,0,1-.135.084.169.169,0,0,1-.149-.029.353.353,0,0,1-.113-.194l-.156-.5a2.171,2.171,0,0,0-.373-.692,1.708,1.708,0,0,0-.7-.514,1.588,1.588,0,0,0-1.11.047c-.122.047-.306.111-.551.2s-.515.169-.811.26-.6.2-.917.3-.608.206-.876.292-.5.159-.681.225-.3.1-.339.113a.159.159,0,0,0-.127.156v6.072a.166.166,0,0,0,.113.17c.115.037.3.1.562.176l.888.276q.494.157,1.038.318c.362.107.7.209,1.01.3l.811.247a4.139,4.139,0,0,0,.445.12,1.283,1.283,0,0,0,.846-.049,1.33,1.33,0,0,0,.515-.445,1.961,1.961,0,0,0,.274-.608l.14-.536a.237.237,0,0,1,.107-.169.229.229,0,0,1,.151-.026.226.226,0,0,1,.134.085.266.266,0,0,1,.06.168v5.22a.258.258,0,0,1-.056.17.19.19,0,0,1-.127.071.234.234,0,0,1-.149-.037.253.253,0,0,1-.1-.162,6.752,6.752,0,0,0-.245-.719,3.036,3.036,0,0,0-.361-.656,2.772,2.772,0,0,0-.529-.55,2.925,2.925,0,0,0-.734-.417q-.212-.085-1.009-.367l-1.961-.692-2.574-.9q-1.408-.493-2.855-.995t-2.822-.982q-1.375-.478-2.448-.846t-1.736-.6l-.706-.247a.624.624,0,0,1-.24-.141.467.467,0,0,1-.114-.267q-.056-.311-.156-.719c-.066-.272-.135-.553-.211-.839s-.157-.572-.247-.853a7.8,7.8,0,0,0-.291-.779c-.075-.159-.095-.274-.056-.345a.427.427,0,0,1,.225-.176l.7-.233q.663-.218,1.728-.579t2.432-.811q1.368-.451,2.822-.937l2.892-.966q1.439-.48,2.638-.882t2.067-.681q.868-.282,1.178-.394a4.862,4.862,0,0,0,1.051-.5,4.038,4.038,0,0,0,.762-.635,3.04,3.04,0,0,0,.5-.728A2.975,2.975,0,0,0,445.394,431.829Zm-7.73,14.717c.122.048.183.011.183-.113v-5.376c0-.113-.056-.15-.17-.113l-.416.134-.959.31-1.32.439-1.489.493q-.755.254-1.482.494t-1.3.429q-.572.2-.924.31l-.367.12a.1.1,0,0,0-.088.107l0,.013a.138.138,0,0,0,.1.12c.019.01.191.066.515.169l1.244.4q.755.239,1.679.536l1.827.584q.9.291,1.694.536T437.664,446.546Zm7.784-30.234a.282.282,0,0,1,.091-.163.16.16,0,0,1,.134-.035.225.225,0,0,1,.127.078.255.255,0,0,1,.06.174v7.083a.262.262,0,0,1-.056.176.238.238,0,0,1-.127.078.161.161,0,0,1-.134-.036.286.286,0,0,1-.091-.162,3.12,3.12,0,0,0-.091-.39,2.068,2.068,0,0,0-.267-.565,1.831,1.831,0,0,0-.537-.514,1.636,1.636,0,0,0-.91-.225h-6.081a12.069,12.069,0,0,0-1.22.091,3.7,3.7,0,0,0-1.144.324,2.019,2.019,0,0,0-1.178,1.985,2.143,2.143,0,0,0,.325,1.269,2,2,0,0,0,.8.671,3.154,3.154,0,0,0,1.022.269q.543.049.966.049h6.5a1.636,1.636,0,0,0,.91-.225,1.827,1.827,0,0,0,.538-.52,2.043,2.043,0,0,0,.267-.563,3.094,3.094,0,0,0,.091-.39.29.29,0,0,1,.092-.163.159.159,0,0,1,.134-.035.232.232,0,0,1,.126.078.252.252,0,0,1,.058.18v7.083a.261.261,0,0,1-.056.176.238.238,0,0,1-.127.078.158.158,0,0,1-.134-.036.286.286,0,0,1-.091-.162,3.123,3.123,0,0,0-.091-.39,2.067,2.067,0,0,0-.267-.565,1.831,1.831,0,0,0-.537-.514,1.636,1.636,0,0,0-.91-.225H435.8a.207.207,0,0,0-.225.169,1.494,1.494,0,0,1-.043.2l-.1.4c-.037.15-.071.289-.1.416s-.047.2-.056.233c-.029.122-.094.187-.2.194s-.169-.06-.2-.2c-.095-.4-.211-.8-.345-1.191q-.219-.644-.494-1.292t-.592-1.255a11.484,11.484,0,0,0-.643-1.086.391.391,0,0,1-.069-.261c.008-.09.079-.134.211-.134h1.213a5.329,5.329,0,0,1-.514-.681,4.668,4.668,0,0,1-.43-.853,6.115,6.115,0,0,1-.292-1.057,6.869,6.869,0,0,1-.113-1.292,6.355,6.355,0,0,1,.254-1.939,3.94,3.94,0,0,1,.681-1.3,2.988,2.988,0,0,1,.973-.79,4.551,4.551,0,0,1,1.144-.4,7.2,7.2,0,0,1,1.178-.14c.388-.014.754-.022,1.093-.022h5.516a1.639,1.639,0,0,0,.91-.227,1.821,1.821,0,0,0,.527-.517,2.044,2.044,0,0,0,.267-.563,3.261,3.261,0,0,0,.092-.386Zm-.889-13.193a.311.311,0,0,1,.078-.31.259.259,0,0,1,.316-.013,2.011,2.011,0,0,1,.367.276,2.053,2.053,0,0,1,.4.507,3.371,3.371,0,0,1,.31.779,4.107,4.107,0,0,1,.127,1.074,2.8,2.8,0,0,1-.346,1.446,2,2,0,0,1-.8.811.152.152,0,0,0-.1.163.309.309,0,0,0,.085.176c.029.028.105.114.233.26a3.566,3.566,0,0,1,.41.621,5.415,5.415,0,0,1,.394.966,4.328,4.328,0,0,1,.176,1.3,5.54,5.54,0,0,1-.35,2.111,3.976,3.976,0,0,1-.91,1.382,3.353,3.353,0,0,1-1.256.762,4.383,4.383,0,0,1-1.389.233,3.146,3.146,0,0,1-1.947-.628,3.8,3.8,0,0,1-1.241-1.63,5.255,5.255,0,0,1-.3-1.121c-.06-.39-.126-.779-.194-1.169s-.151-.767-.247-1.135a3.369,3.369,0,0,0-.487-1.05,1.858,1.858,0,0,0-.9-.728,3.345,3.345,0,0,0-1.168-.2,3.078,3.078,0,0,0-.868.12,2.4,2.4,0,0,0-.728.338,1.811,1.811,0,0,0-.494.508,1.3,1.3,0,0,0,.126,1.515,2.276,2.276,0,0,0,.749.445c.291.109.595.21.91.3a2.061,2.061,0,0,1,.812.451,1.583,1.583,0,0,1,.4.656,2.475,2.475,0,0,1,.134.77,1.7,1.7,0,0,1-.127.681,1.53,1.53,0,0,1-.345.508,1.42,1.42,0,0,1-.508.316,1.754,1.754,0,0,1-.614.107,2,2,0,0,1-.875-.212,2.02,2.02,0,0,1-.79-.755,4.7,4.7,0,0,1-.572-1.46,10.328,10.328,0,0,1-.219-2.328,9.864,9.864,0,0,1,.318-2.674,4.679,4.679,0,0,1,.924-1.805,3.505,3.505,0,0,1,1.5-1.016,6.092,6.092,0,0,1,2.042-.318q1.37,0,2.568.085t2.124.12a10.048,10.048,0,0,0,1.52-.034q.6-.07.741-.394a.727.727,0,0,0,.064-.352,3.179,3.179,0,0,0-.049-.453Zm-6.3,4.9a.11.11,0,0,0-.113.069.1.1,0,0,0,.042.128c.085.074.165.143.241.2s.164.144.267.247q.282.268.529.55t.5.565q.227.282.452.557a4.656,4.656,0,0,0,.494.514,2.837,2.837,0,0,0,.925.543,3.185,3.185,0,0,0,1.064.176,2.745,2.745,0,0,0,.77-.113,2.094,2.094,0,0,0,.692-.345,1.794,1.794,0,0,0,.493-.592,1.839,1.839,0,0,0,.2-.869,1.469,1.469,0,0,0-.211-.825,1.587,1.587,0,0,0-.508-.494,2.1,2.1,0,0,0-.6-.247,2.174,2.174,0,0,0-.473-.071Zm5.319-11.627a1.6,1.6,0,0,0,.931-.247,2.048,2.048,0,0,0,.557-.565,2.3,2.3,0,0,0,.293-.621,3.513,3.513,0,0,0,.1-.417.28.28,0,0,1,.091-.162.16.16,0,0,1,.134-.035.225.225,0,0,1,.127.078.259.259,0,0,1,.055.176v7.395a.262.262,0,0,1-.056.176.238.238,0,0,1-.127.078.162.162,0,0,1-.134-.036.286.286,0,0,1-.091-.162,3.5,3.5,0,0,0-.1-.417,2.3,2.3,0,0,0-.292-.621,2.028,2.028,0,0,0-.557-.563,1.587,1.587,0,0,0-.931-.248h-15.81a.21.21,0,0,0-.227.17,1.717,1.717,0,0,1-.042.2l-.1.4c-.038.151-.071.29-.1.417a2.083,2.083,0,0,1-.056.233q-.041.183-.194.194c-.1.007-.17-.061-.2-.2q-.144-.608-.346-1.2-.219-.642-.5-1.291t-.592-1.256a11.071,11.071,0,0,0-.642-1.086.393.393,0,0,1-.071-.261c.01-.09.08-.134.212-.134Zm5.658-6.082-4.119-1.848q-.523.227-1.383.593t-1.869.8q-1.009.437-2.066.888t-1.954.846l-1.539.681q-.642.282-.839.381-.41.212-.712.409a3.347,3.347,0,0,0-.53.424,2.071,2.071,0,0,0-.374.507,3.2,3.2,0,0,0-.247.663.262.262,0,0,1-.1.163.222.222,0,0,1-.147.042.2.2,0,0,1-.134-.071.248.248,0,0,1-.056-.176V387.56a.255.255,0,0,1,.056-.169.218.218,0,0,1,.134-.085.222.222,0,0,1,.26.2c.038.14.088.294.149.458a1.134,1.134,0,0,0,.282.43.956.956,0,0,0,.508.24,1.839,1.839,0,0,0,.825-.1q.227-.07.663-.24t.959-.381l1.075-.441q.557-.225,1.016-.423c.3-.132.565-.245.778-.339s.332-.15.36-.169q.183-.1,0-.194l-.438-.183q-.34-.14-.811-.316c-.315-.117-.656-.248-1.022-.39s-.717-.273-1.051-.4-.64-.233-.917-.331-.483-.167-.614-.2a1.936,1.936,0,0,0-.826-.105.966.966,0,0,0-.507.218,1.035,1.035,0,0,0-.283.41,4.248,4.248,0,0,0-.147.452.242.242,0,0,1-.107.169.225.225,0,0,1-.155.028.238.238,0,0,1-.134-.077.261.261,0,0,1-.056-.176v-4.218a.237.237,0,0,1,.056-.163.234.234,0,0,1,.134-.078.2.2,0,0,1,.149.035.274.274,0,0,1,.1.163,3.118,3.118,0,0,0,.247.648,2.232,2.232,0,0,0,.374.515,3.042,3.042,0,0,0,.529.43q.3.194.712.409c.114.056.369.177.77.361s.882.4,1.448.652l1.85.832q1,.453,1.981.889t1.856.832q.876.4,1.453.65l5.418,2.427a5.585,5.585,0,0,1,1.693,1.093,2.106,2.106,0,0,1,.634,1.557,2.383,2.383,0,0,1-.091.65,1.77,1.77,0,0,1-.282.579,1.5,1.5,0,0,1-.49.417,1.548,1.548,0,0,1-.74.162,1.444,1.444,0,0,1-.682-.147,1.37,1.37,0,0,1-.465-.4,1.654,1.654,0,0,1-.267-.557,2.367,2.367,0,0,1-.084-.635,1.967,1.967,0,0,1,.134-.761,4.887,4.887,0,0,0,.2-.593.716.716,0,0,0-.022-.479A1.012,1.012,0,0,0,449.232,390.307Zm-5.416-17.762q-.128-.254.029-.367a.277.277,0,0,1,.325-.014,3.6,3.6,0,0,1,.825.642,4.247,4.247,0,0,1,.65.881,4.486,4.486,0,0,1,.419,1.08,5,5,0,0,1,.15,1.237,5.416,5.416,0,0,1-.185,1.394,3.1,3.1,0,0,1-.656,1.242,3.434,3.434,0,0,1-1.284.9,5.333,5.333,0,0,1-2.066.345h-7.929a.1.1,0,0,0-.113.078.085.085,0,0,0,0,.035v.367a1.158,1.158,0,0,1-.043.416c-.028.053-.089.078-.183.078a.639.639,0,0,1-.388-.162.5.5,0,0,1-.2-.4v-.31c0-.066-.037-.1-.113-.1h-3.372c-.206,0-.325-.084-.352-.253q-.072-.352-.2-.755c-.082-.268-.176-.542-.282-.819s-.225-.55-.352-.819a7.294,7.294,0,0,0-.4-.747.32.32,0,0,1-.029-.293c.038-.089.132-.134.283-.134h4.712c.065,0,.1-.037.1-.113V373.3a1.188,1.188,0,0,1,.042-.416.192.192,0,0,1,.183-.078.58.58,0,0,1,.39.194.6.6,0,0,1,.2.439v2.529a.086.086,0,0,0,.077.1.059.059,0,0,0,.02,0h8.678a1.573,1.573,0,0,0,.67-.134,1.548,1.548,0,0,0,.493-.352,1.394,1.394,0,0,0,.3-.508,1.822,1.822,0,0,0,.1-.584,3.51,3.51,0,0,0-.176-1.129A5.862,5.862,0,0,0,443.817,372.545Zm-.171-6.466a1.635,1.635,0,0,0,.91-.225,1.817,1.817,0,0,0,.537-.514,2.068,2.068,0,0,0,.267-.565,3.094,3.094,0,0,0,.091-.39.287.287,0,0,1,.092-.162.16.16,0,0,1,.134-.036.239.239,0,0,1,.126.078.257.257,0,0,1,.058.181v7.082a.26.26,0,0,1-.056.176.225.225,0,0,1-.127.078.161.161,0,0,1-.134-.035.289.289,0,0,1-.091-.163,3.123,3.123,0,0,0-.091-.39,2.043,2.043,0,0,0-.267-.563,1.819,1.819,0,0,0-.537-.515,1.646,1.646,0,0,0-.91-.225H435.8a.207.207,0,0,0-.225.169,1.474,1.474,0,0,1-.043.2l-.1.4c-.037.15-.071.289-.1.416s-.047.2-.056.233c-.029.122-.094.187-.2.2s-.169-.061-.2-.2c-.095-.4-.211-.8-.345-1.191q-.219-.642-.494-1.291t-.592-1.256a11.51,11.51,0,0,0-.643-1.087.388.388,0,0,1-.069-.261c.008-.089.079-.134.211-.134Zm-15.011-.282a2.192,2.192,0,0,1,1.6.69,2.578,2.578,0,0,1,.487.755,2.379,2.379,0,0,1,.185.939,2.347,2.347,0,0,1-.176.91,2.307,2.307,0,0,1-.473.719,2.082,2.082,0,0,1-.7.474,2.264,2.264,0,0,1-.876.169,2.179,2.179,0,0,1-.881-.182,2.294,2.294,0,0,1-.728-.5,2.46,2.46,0,0,1-.5-2.61,2.229,2.229,0,0,1,.479-.72,2.164,2.164,0,0,1,.713-.474,2.276,2.276,0,0,1,.879-.164Zm4.953-8.69a1.594,1.594,0,0,0,.39,1.037,3.146,3.146,0,0,0,1.093.811,6.742,6.742,0,0,0,1.7.521,12.238,12.238,0,0,0,2.194.183,7.12,7.12,0,0,0,2.166-.3,4.915,4.915,0,0,0,1.616-.839,3.709,3.709,0,0,0,1.015-1.255,3.473,3.473,0,0,0,.354-1.557,4.316,4.316,0,0,0-.241-1.474,7.315,7.315,0,0,0-.536-1.186,6.534,6.534,0,0,0-.565-.846,2.731,2.731,0,0,1-.325-.458.268.268,0,0,1,.035-.318c.08-.079.2-.077.361.007.1.056.259.151.466.282a5.7,5.7,0,0,1,.681.53,7.8,7.8,0,0,1,.768.8,5.977,5.977,0,0,1,.72,1.079,6.545,6.545,0,0,1,.735,3.108,7.732,7.732,0,0,1-.423,2.636,5.307,5.307,0,0,1-3.252,3.281,8.532,8.532,0,0,1-5.1.105,6.568,6.568,0,0,1-1.821-.9,5.943,5.943,0,0,1-1.311-1.277,7.594,7.594,0,0,1-.868-1.474,7.314,7.314,0,0,1-.481-1.489,6.846,6.846,0,0,1-.147-1.326,8.228,8.228,0,0,1,.176-1.764,5.209,5.209,0,0,1,.494-1.383,2.79,2.79,0,0,1,.748-.9,1.512,1.512,0,0,1,.924-.324,1.629,1.629,0,0,1,.734.147,1.446,1.446,0,0,1,.762.9,2.088,2.088,0,0,1,.084.584,2.056,2.056,0,0,1-.156.8,1.338,1.338,0,0,1-.521.615,2.265,2.265,0,0,1-.69.291,8.583,8.583,0,0,0-.819.261,2.26,2.26,0,0,0-.681.388.878.878,0,0,0-.279.711Zm11.3-7.163c-.018,0-.152.02-.4.062s-.524.087-.825.134l-.853.134c-.269.043-.435.07-.5.078-.129.019-.207-.018-.233-.113a.175.175,0,0,1,.078-.211,2.386,2.386,0,0,0,.291-.183q.253-.169.621-.465t.79-.713a6.645,6.645,0,0,0,.779-.93,5.234,5.234,0,0,0,.592-1.122,3.584,3.584,0,0,0,.233-1.3,1.747,1.747,0,0,0-.438-1.265,1.525,1.525,0,0,0-1.157-.459,2.922,2.922,0,0,0-.748.1,1.852,1.852,0,0,0-.734.424,3.879,3.879,0,0,0-.726.93,9.841,9.841,0,0,0-.728,1.623,6.2,6.2,0,0,1-.778,1.565,4.294,4.294,0,0,1-1.009,1.031,3.817,3.817,0,0,1-1.2.572,5.114,5.114,0,0,1-1.362.175,4.168,4.168,0,0,1-1.207-.194,3.212,3.212,0,0,1-1.227-.712,4.021,4.021,0,0,1-.959-1.4,5.708,5.708,0,0,1-.39-2.273,8.672,8.672,0,0,1,.141-1.623,11.345,11.345,0,0,1,.316-1.3,7.532,7.532,0,0,1,.332-.888q.156-.333.169-.374a.233.233,0,0,1,.072-.1.452.452,0,0,1,.1-.029c.018,0,.149-.024.388-.071s.5-.095.779-.141.542-.094.778-.14.369-.072.4-.072a.17.17,0,0,1,.2.1c.042.085.017.161-.078.227a9,9,0,0,0-.761.621,7.373,7.373,0,0,0-1.757,2.377,3.659,3.659,0,0,0-.345,1.573,1.621,1.621,0,0,0,.465,1.284,1.654,1.654,0,0,0,1.129.41,2.249,2.249,0,0,0,.656-.1,1.413,1.413,0,0,0,.614-.424,4.071,4.071,0,0,0,.6-.937,10.879,10.879,0,0,0,.614-1.643,7.274,7.274,0,0,1,1.721-3.114A3.861,3.861,0,0,1,442.134,340a4.306,4.306,0,0,1,1.616.292,3.335,3.335,0,0,1,1.283.916,4.435,4.435,0,0,1,.853,1.581,7.443,7.443,0,0,1,.31,2.285,10.874,10.874,0,0,1-.141,1.983,11.437,11.437,0,0,1-.36,1.467,6.577,6.577,0,0,1-.374.937c-.118.227-.191.358-.218.4a.226.226,0,0,1-.085.049A.8.8,0,0,1,444.887,349.944Z" transform="translate(-82.35 -232.34)" fill="red"/>
      <path id="Path_29126" data-name="Path 29126" d="M542.727,475.425l.781,5.785,3.707-.5-.653-4.837a1.458,1.458,0,0,1,.167-1.044,1.044,1.044,0,0,1,.761-.441,1.019,1.019,0,0,1,.846.229,1.483,1.483,0,0,1,.433.958l.653,4.835,4.773-.646a1.949,1.949,0,0,1,1.406.228,1.508,1.508,0,0,1,.282,2.122,1.95,1.95,0,0,1-1.29.589l-11.152,1.507a2.472,2.472,0,0,1-1.06-.048,1.174,1.174,0,0,1-.658-.509,2.5,2.5,0,0,1-.321-1l-.935-6.921a1.515,1.515,0,0,1,.17-1.086,1.167,1.167,0,0,1,1.641-.222A1.52,1.52,0,0,1,542.727,475.425Zm2.25-6.223,7.8-1.055a1.753,1.753,0,0,1,1.276.221,1.291,1.291,0,0,1,.549.922,1.234,1.234,0,0,1-.3,1.022,1.808,1.808,0,0,1-1.165.535l-7.722,1.044a1.745,1.745,0,0,1-1.256-.209,1.258,1.258,0,0,1-.536-.909,1.309,1.309,0,0,1,.273-1.033A1.583,1.583,0,0,1,544.977,469.2Zm-2.608,1.71a1.44,1.44,0,0,1-.216,1.012,1.354,1.354,0,0,1-1.924.249,1.393,1.393,0,0,1-.5-.9,1.431,1.431,0,0,1,.211-.975,1.208,1.208,0,0,1,.924-.537,1.242,1.242,0,0,1,1.027.264A1.38,1.38,0,0,1,542.368,470.912Zm1.86-6.946.326-.044a4.753,4.753,0,0,1-1.589-1.37,4.193,4.193,0,0,1-.7-1.884,3.9,3.9,0,0,1,.207-1.971,2.982,2.982,0,0,1,1.143-1.435,3.143,3.143,0,0,1,1.021-.49,11.054,11.054,0,0,1,1.453-.277l5.022-.68a1.8,1.8,0,0,1,1.275.206,1.344,1.344,0,0,1,.253,1.945,1.8,1.8,0,0,1-1.165.541l-4.5.608a4.538,4.538,0,0,0-1.991.647,1.522,1.522,0,0,0-.507,1.574,2.2,2.2,0,0,0,.608,1.256,2.5,2.5,0,0,0,1.3.708,8.508,8.508,0,0,0,2.281-.107l3.381-.458a1.773,1.773,0,0,1,1.283.215,1.29,1.29,0,0,1,.544.928,1.232,1.232,0,0,1-.3,1.018,1.8,1.8,0,0,1-1.164.541l-7.8,1.054a1.708,1.708,0,0,1-1.2-.181,1.175,1.175,0,0,1-.506-.868,1.251,1.251,0,0,1,.082-.665,1.2,1.2,0,0,1,.441-.529A1.8,1.8,0,0,1,544.229,463.966Zm5.715-17.673a8.444,8.444,0,0,1,1.4,1.736,5.329,5.329,0,0,1,.658,2,3.909,3.909,0,0,1-.164,1.88,3.034,3.034,0,0,1-.948,1.362,2.9,2.9,0,0,1-1.464.631,2.751,2.751,0,0,1-1.983-.446,3.543,3.543,0,0,1-1.309-1.787q-.1-.25-.44-1.239t-.616-1.694q-.271-.7-.634-1.52a2.84,2.84,0,0,0-1.508.641,1.939,1.939,0,0,0-.29,1.646,3.314,3.314,0,0,0,.5,1.5,2.525,2.525,0,0,0,.981.773,9.224,9.224,0,0,1,.826.422.861.861,0,0,1,.272.633,1.16,1.16,0,0,1-.182.825.961.961,0,0,1-.7.433,2.3,2.3,0,0,1-1.453-.318,3.63,3.63,0,0,1-1.32-1.422,7.14,7.14,0,0,1-.795-2.6,7.61,7.61,0,0,1,.043-2.853,2.618,2.618,0,0,1,1.135-1.618,5.859,5.859,0,0,1,2.353-.747q.949-.128,1.612-.212t1.474-.182a5.5,5.5,0,0,0,1.553-.466,5.1,5.1,0,0,1,1.026-.394,1,1,0,0,1,.809.288,1.322,1.322,0,0,1,.461.839,1.2,1.2,0,0,1-.279.868A5.876,5.876,0,0,1,549.944,446.293Zm-3.881.706a13.694,13.694,0,0,1,.693,1.664q.4,1.1.568,1.519a2.162,2.162,0,0,0,.556.77,1.152,1.152,0,0,0,.978.271,1.378,1.378,0,0,0,.98-.607,1.732,1.732,0,0,0,.266-1.273,3.191,3.191,0,0,0-.551-1.431,2.349,2.349,0,0,0-1.038-.871,4.164,4.164,0,0,0-2.067-.094Zm-5.109-7.293.325-.043a4.779,4.779,0,0,1-1.589-1.371,4.175,4.175,0,0,1-.7-1.883,3.907,3.907,0,0,1,.206-1.972,2.985,2.985,0,0,1,1.146-1.431,3.172,3.172,0,0,1,1.02-.49,11.227,11.227,0,0,1,1.448-.279l5.022-.68a1.806,1.806,0,0,1,1.277.206,1.241,1.241,0,0,1,.545.907,1.256,1.256,0,0,1-.293,1.037,1.8,1.8,0,0,1-1.165.539l-4.5.609a4.538,4.538,0,0,0-1.991.647,1.524,1.524,0,0,0-.51,1.565,2.22,2.22,0,0,0,.609,1.257,2.491,2.491,0,0,0,1.3.708,8.565,8.565,0,0,0,2.281-.108l3.381-.457a1.773,1.773,0,0,1,1.284.221,1.291,1.291,0,0,1,.543.928,1.233,1.233,0,0,1-.295,1.016,1.8,1.8,0,0,1-1.165.541l-7.8,1.055a1.715,1.715,0,0,1-1.2-.181,1.175,1.175,0,0,1-.506-.869,1.252,1.252,0,0,1,.082-.665,1.225,1.225,0,0,1,.442-.529,1.786,1.786,0,0,1,.8-.282Zm3.5-20.291a2.364,2.364,0,0,1,1.12.156,3.753,3.753,0,0,1,1.217.773,4.794,4.794,0,0,1,1.045,1.444,6.654,6.654,0,0,1,.6,2.073,5.207,5.207,0,0,1-.93,4.105,5.448,5.448,0,0,1-3.721,1.933,6.5,6.5,0,0,1-3.023-.247,4.663,4.663,0,0,1-2.224-1.592,6.381,6.381,0,0,1-1.043-4.778,5.039,5.039,0,0,1,.59-1.589,3.829,3.829,0,0,1,.907-1.069,2.072,2.072,0,0,1,.981-.459,1.09,1.09,0,0,1,.869.249,1.249,1.249,0,0,1,.456.831.9.9,0,0,1-.1.583,2.734,2.734,0,0,1-.49.574,4.12,4.12,0,0,0-.986,1.181,2.564,2.564,0,0,0,1,3.223,4.083,4.083,0,0,0,2.655.386,5.021,5.021,0,0,0,1.374-.378,3.206,3.206,0,0,0,1.014-.69,2.342,2.342,0,0,0,.567-.953,2.644,2.644,0,0,0,.083-1.138,2.522,2.522,0,0,0-.565-1.339,3.3,3.3,0,0,0-1.285-.868,2.673,2.673,0,0,1-.784-.439,1.019,1.019,0,0,1-.351-.666,1.046,1.046,0,0,1,.265-.871A1.212,1.212,0,0,1,544.459,419.415Zm-2.821-9.686.714,5.28a3.619,3.619,0,0,0,1.571-.591,2.5,2.5,0,0,0,1.108-2.47,3.272,3.272,0,0,0-.232-.87,2.927,2.927,0,0,0-.46-.723,5.994,5.994,0,0,0-.612-.622q-.32-.279-.862-.719a.893.893,0,0,1-.259-.568.987.987,0,0,1,.137-.706.823.823,0,0,1,.608-.345,1.787,1.787,0,0,1,.9.174,3.441,3.441,0,0,1,1.056.741,4.952,4.952,0,0,1,.942,1.353,6.285,6.285,0,0,1,.569,1.972,5.43,5.43,0,0,1-.936,4.244,5.571,5.571,0,0,1-3.828,1.99,6.753,6.753,0,0,1-2.266-.056,4.936,4.936,0,0,1-1.9-.8,4.545,4.545,0,0,1-1.35-1.529,6.078,6.078,0,0,1-.69-2.165,5.294,5.294,0,0,1,.3-2.8,4.432,4.432,0,0,1,1.495-1.93,4.581,4.581,0,0,1,2.08-.855,1.362,1.362,0,0,1,1.4.4A3.652,3.652,0,0,1,541.638,409.729Zm-.819,5.488-.662-4.894a3.3,3.3,0,0,0-1.969,1.026,2.255,2.255,0,0,0-.459,1.8,2.181,2.181,0,0,0,.921,1.562A3.505,3.505,0,0,0,540.82,415.216Z" transform="translate(-60.282 -218.951)" fill="red"/>
      <path id="Path_29121" data-name="Path 29121" d="M188.542,423.83h-3.106v11.832h-3.993V408.486h3.989v11.24h3.109v-11.24h3.989v27.176h-3.989Zm12.719-8.393H205v20.225h-3.734v-1.7a2.7,2.7,0,0,0-.406.369,7.48,7.48,0,0,1-1.625,1.332,2.065,2.065,0,0,1-1,.291,2.44,2.44,0,0,1-2.141-1.368,5.3,5.3,0,0,1-.665-2.588V415.437h3.735v16.009c0,.779.443.888.887.888a1.2,1.2,0,0,0,.887-.481,2.705,2.705,0,0,0,.333-.481ZM217.6,435.662h-3.513V419.653c0-.779-.591-.888-1-.888a1.432,1.432,0,0,0-1,.481,2.514,2.514,0,0,0-.408.481v15.936h-3.734V415.437h3.73v1.7a3.032,3.032,0,0,0,.444-.406,8.309,8.309,0,0,1,1.7-1.332,1.893,1.893,0,0,1,.961-.259c1.332,0,2.107,1.07,2.515,2.256a6.808,6.808,0,0,0,.591-.555,7.877,7.877,0,0,1,1.812-1.4,2.064,2.064,0,0,1,1-.291,2.475,2.475,0,0,1,2.141,1.331,5.54,5.54,0,0,1,.666,2.627v16.558H220V419.653c0-.779-.591-.888-1-.888a1.431,1.431,0,0,0-1,.481,2.515,2.515,0,0,0-.408.481Zm14.234-15.418a4.692,4.692,0,0,0-.11-1.22.936.936,0,0,0-.924-.628c-.629,0-.888.481-1,1.07a7.8,7.8,0,0,0-.074.961v.961H226v-.851a5.709,5.709,0,0,1,1.442-3.808,4.718,4.718,0,0,1,3.586-1.589,4.564,4.564,0,0,1,3.179,1.293,4.483,4.483,0,0,1,1.369,3.292v12.424a18.444,18.444,0,0,0,.259,3.513h-3.661a3.134,3.134,0,0,1-.333-1.627h-.259a4.132,4.132,0,0,1-1.034,1.22,3.243,3.243,0,0,1-1.96.7,2.386,2.386,0,0,1-1.848-.924,5.971,5.971,0,0,1-1.147-4.067,7.787,7.787,0,0,1,1.557-4.991,8.94,8.94,0,0,1,2.919-2.292c.924-.481,1.628-.814,1.775-1.22Zm0,5.658a4.607,4.607,0,0,0-2.588,4.506,3.461,3.461,0,0,0,.185,1.11c.149.443.408.778.851.778a1.4,1.4,0,0,0,1.557-1.22Zm9.912,9.761h-3.736V415.437h3.736v1.7a3.032,3.032,0,0,0,.443-.406,7.654,7.654,0,0,1,1.627-1.332,1.893,1.893,0,0,1,.961-.259,2.479,2.479,0,0,1,2.141,1.332,5.551,5.551,0,0,1,.665,2.627v16.562h-3.733V419.653c0-.779-.444-.888-.887-.888a1.2,1.2,0,0,0-.887.481,5.444,5.444,0,0,0-.333.481Z" transform="translate(-130.676 -218.734)" fill="#323232"/>
      <path id="Path_29120" data-name="Path 29120" d="M257.07,436.659,255,425.2h-1.07v11.462h-4V409.484h3.989c4.768,0,6.8,2.7,6.8,7.838,0,2.7-.7,5.14-2.219,6.174l2.556,13.162ZM253.927,421.5a2.777,2.777,0,0,0,1.887-.592c.591-.518,1.069-1.516,1.069-3.439s-.481-2.957-1.069-3.475a2.725,2.725,0,0,0-1.887-.555Zm18.709,7.912v2.329a5.56,5.56,0,0,1-2.033,4.4,4.248,4.248,0,0,1-2.81.809,4.3,4.3,0,0,1-4.216-2.662,7.4,7.4,0,0,1-.591-2.662V421.46a5.876,5.876,0,0,1,2.07-4.512,4.075,4.075,0,0,1,2.773-.813,4.328,4.328,0,0,1,4.216,2.626,7.191,7.191,0,0,1,.591,2.589v5.881h-6.174v4.4a2.857,2.857,0,0,0,.592,1.738,1.062,1.062,0,0,0,.778.292,1.167,1.167,0,0,0,1.181-.991,2.913,2.913,0,0,0,.149-1.034v-2.219Zm-6.174-5.1h2.7v-2.847a2.605,2.605,0,0,0-.518-1.775,1.151,1.151,0,0,0-.814-.291c-.7,0-1,.481-1.183,1.034a4.006,4.006,0,0,0-.185,1.036Zm14.235-2.7a5.535,5.535,0,0,0-.149-1.557,1.118,1.118,0,0,0-1.07-.813,1.018,1.018,0,0,0-.924.813,4.4,4.4,0,0,0-.222,1.557,3.16,3.16,0,0,0,.814,1.886,14.127,14.127,0,0,0,1.627,1.738A16.2,16.2,0,0,1,283.1,427.9a6.694,6.694,0,0,1,1.11,3.512,6.434,6.434,0,0,1-1.036,3.7,4.364,4.364,0,0,1-3.736,1.845,4.678,4.678,0,0,1-4.324-2.288,7.879,7.879,0,0,1-.888-3.882H277.7a5.094,5.094,0,0,0,.291,1.923,1.543,1.543,0,0,0,1.442,1.146c1.07,0,1.295-1.257,1.295-2.441,0-1.22-1.183-2.44-2.329-3.586A16.061,16.061,0,0,1,276,425.2a6.2,6.2,0,0,1-1.147-3.586,6.708,6.708,0,0,1,.925-3.624,4.235,4.235,0,0,1,3.624-1.85c2.18-.036,3.405.779,4.03,1.85a7.352,7.352,0,0,1,.74,3.624Zm14.974,10.131a5.646,5.646,0,0,1-2,4.4,4.821,4.821,0,0,1-6.988-1.853,7.4,7.4,0,0,1-.592-2.662V421.46a5.946,5.946,0,0,1,2-4.512,4.074,4.074,0,0,1,2.772-.813,4.328,4.328,0,0,1,4.216,2.626,7.191,7.191,0,0,1,.591,2.589Zm-3.512-10.279a2.425,2.425,0,0,0-.481-1.775,1.152,1.152,0,0,0-.814-.291c-.7,0-1,.481-1.146,1.034a2.286,2.286,0,0,0-.11,1.036v10.168a2.434,2.434,0,0,0,.481,1.737,1.053,1.053,0,0,0,.778.293,1.168,1.168,0,0,0,1.179-.995,2.3,2.3,0,0,0,.11-1.034Zm11.905-5.028H307.8v20.224h-3.735v-1.7a2.774,2.774,0,0,0-.406.37,7.481,7.481,0,0,1-1.627,1.33,2.07,2.07,0,0,1-1,.293,2.442,2.442,0,0,1-2.141-1.368,5.288,5.288,0,0,1-.665-2.589v-16.56h3.734v16.009c0,.778.443.887.888.887a1.192,1.192,0,0,0,.887-.481,2.6,2.6,0,0,0,.332-.481Zm14.161,3.845a3.361,3.361,0,0,0-1.036-.149,2.593,2.593,0,0,0-1.885.629,2.175,2.175,0,0,0-.813,1.848v14.05h-3.735V416.435h3.735v2.255a3.116,3.116,0,0,1,.887-1.478,3.973,3.973,0,0,1,2.847-1.07ZM323.142,432c0,.74.036,1.627,1.034,1.627.851,0,1.07-.406,1.07-1.627v-2.81h3.735v1.959c0,2.256-.408,3.7-1.22,4.585a4.56,4.56,0,0,1-3.585,1.217,4.46,4.46,0,0,1-3.405-1.295c-.85-.924-1.368-2.441-1.368-4.7v-8.837c0-2.256.518-3.771,1.368-4.7a4.459,4.459,0,0,1,3.405-1.293,4.558,4.558,0,0,1,3.586,1.22c.814.887,1.22,2.329,1.22,4.585v1.589H325.25v-2.438c0-1.22-.222-1.627-1.07-1.627-1,0-1.036.887-1.036,1.627Zm17.562-2.588v2.329a5.56,5.56,0,0,1-2.033,4.4,4.248,4.248,0,0,1-2.81.809,4.3,4.3,0,0,1-4.216-2.659,7.4,7.4,0,0,1-.591-2.662V421.463a5.872,5.872,0,0,1,2.07-4.511,4.069,4.069,0,0,1,2.773-.814,4.327,4.327,0,0,1,4.216,2.627,7.192,7.192,0,0,1,.591,2.588v5.877H334.53v4.4a2.858,2.858,0,0,0,.592,1.738,1.063,1.063,0,0,0,.778.292,1.167,1.167,0,0,0,1.181-.991,2.913,2.913,0,0,0,.149-1.034v-2.219Zm-6.174-5.1h2.7v-2.847a2.606,2.606,0,0,0-.518-1.775,1.152,1.152,0,0,0-.814-.291c-.7,0-1,.481-1.183,1.034a4.009,4.009,0,0,0-.185,1.036Zm14.235-2.7a5.535,5.535,0,0,0-.149-1.557,1.118,1.118,0,0,0-1.07-.813,1.018,1.018,0,0,0-.924.813,4.406,4.406,0,0,0-.222,1.557,3.16,3.16,0,0,0,.814,1.886,14.127,14.127,0,0,0,1.627,1.738,16.2,16.2,0,0,1,2.329,2.662,6.7,6.7,0,0,1,1.1,3.509,6.437,6.437,0,0,1-1.036,3.7,4.366,4.366,0,0,1-3.733,1.848,4.678,4.678,0,0,1-4.326-2.293,7.87,7.87,0,0,1-.887-3.881h3.476a5.07,5.07,0,0,0,.291,1.923,1.542,1.542,0,0,0,1.446,1.15c1.07,0,1.295-1.257,1.295-2.441,0-1.22-1.183-2.44-2.329-3.586a16.057,16.057,0,0,1-2.4-2.626,6.2,6.2,0,0,1-1.147-3.586,6.708,6.708,0,0,1,.925-3.624,4.234,4.234,0,0,1,3.622-1.85c2.182-.036,3.407.779,4.031,1.85a7.351,7.351,0,0,1,.74,3.624Z" transform="translate(-117.069 -218.535)" fill="#323232"/>
      <path id="Path_27395" data-name="Path 27395" d="M527.284,327.623h9.159l8.648,73.512h-8.648Z" transform="translate(-61.969 -234.798)" fill="red"/>
      <g id="Group_26149" data-name="Group 26149" transform="translate(0 284.349)">
        <rect id="Rectangle_9521" data-name="Rectangle 9521" width="663.728" height="9.6" fill="#fff" stroke="#323232" stroke-miterlimit="10" stroke-width="0.568"/>
        <path id="Path_27396" data-name="Path 27396" d="M667.217,495.413v15.36l15.335-15.335Z" transform="translate(-34.169 -485.813)" fill="#323232"/>
        <path id="Path_27397" data-name="Path 27397" d="M170.727,495.413v15.36l-15.333-15.335Z" transform="translate(-135.851 -485.813)" fill="#323232"/>
      </g>
      <g id="Group_26150" data-name="Group 26150" transform="translate(34.878 124.738)">
        <path id="Path_27398" data-name="Path 27398" d="M431.559,407.425H192.116s-23.929,0-23.929-26.57c0-26.613,23.929-26.607,23.929-26.607H431.559" transform="translate(-168.187 -354.247)" fill="none" stroke="#323232" stroke-miterlimit="10" stroke-width="0.568"/>
        <line id="Line_105" data-name="Line 105" y1="53.179" transform="translate(253.234)" fill="none" stroke="#323232" stroke-miterlimit="10" stroke-width="0.568"/>
      </g>
      <g id="Group_26151" data-name="Group 26151" transform="translate(54.091 231.194)">
        <path id="Path_27399" data-name="Path 27399" d="M443.707,496.239H208.151s-23.935,0-23.935-26.572c0-26.613,23.935-26.607,23.935-26.607H443.707" transform="translate(-184.216 -443.059)" fill="none" stroke="red" stroke-miterlimit="10" stroke-width="0.568"/>
        <line id="Line_106" data-name="Line 106" y2="53.179" transform="translate(253.239)" fill="none" stroke="red" stroke-miterlimit="10" stroke-width="0.568"/>
      </g>
      <path id="Path_27400" data-name="Path 27400" d="M411.68,283.782l7.23-7.172h43.208l6,7.172Z" transform="translate(-84.936 -244.933)" fill="red"/>
      <path id="Path_27401" data-name="Path 27401" d="M462.778,257.353l7.23-7.17h43.208l6,7.17Z" transform="translate(-74.784 -250.183)" fill="#323232"/>
      <g id="Group_26152" data-name="Group 26152" transform="translate(26.337 89.306)">
        <path id="Path_27402" data-name="Path 27402" d="M161.062,356.147s39.28-13.093,57.83-13.457,38.189,4.366,46.192,16h24.365c8-11.639,27.641-16.368,46.192-16s54.853,12.376,54.853,12.376l4.006-8s-36.529-14-57.035-14.919c-17.441-.786-36.734,3.272-49.1,20H267.633s-21.08-23.127-52.377-20c-21.445,2.14-49.829,13.117-49.829,13.117Z" transform="translate(-161.062 -323.264)" fill="none" stroke="#323232" stroke-miterlimit="10" stroke-width="0.568"/>
        <path id="Path_27403" data-name="Path 27403" d="M266.676,349.737S252.861,327.553,228.487,325s-58.954,11.109-58.954,11.109" transform="translate(-159.379 -324.688)" fill="none" stroke="#323232" stroke-miterlimit="10" stroke-width="0.568"/>
        <path id="Path_27404" data-name="Path 27404" d="M265.686,349.733S279.507,327.549,303.875,325s61.831,12.183,61.831,12.183" transform="translate(-140.277 -324.684)" fill="none" stroke="#323232" stroke-miterlimit="10" stroke-width="0.568"/>
      </g>
      <path id="Path_27405" data-name="Path 27405" d="M513.739,318.1l-.02-4.232h35.755l4.989,4.115Z" transform="translate(-64.664 -237.532)" fill="red"/>
      <text id="CRM" transform="translate(129.022 163.348)" fill="#272727" font-size="26" font-family="Inter-Medium, Inter" font-weight="500"><tspan x="0" y="0">CRM</tspan></text>
      <text id="Marketing" transform="translate(106.022 268.348)" fill="#ff2b2b" font-size="32" font-family="SegoeUI-Bold, Segoe UI" font-weight="700"><tspan x="0" y="0">Marketing</tspan></text>
    </g>
    <path id="Union_1" data-name="Union 1" d="M11147.707,23889.814l.989-.643a3.216,3.216,0,0,0,3.064,1.643c1.835,0,3.07-.9,3.07-2.824v-2.338h-.108a3.256,3.256,0,0,1-3.184,2.033c-2.488,0-4.27-1.926-4.27-5.1,0-3.148,1.721-5.295,4.287-5.295a3.313,3.313,0,0,1,3.185,2.117h.119v-1.973h1.176v10.631c0,2.633-1.823,3.832-4.275,3.832A4.225,4.225,0,0,1,11147.707,23889.814Zm.773-7.25c0,2.375,1.14,4.023,3.2,4.023,2,0,3.172-1.523,3.172-4.023,0-2.428-1.139-4.186-3.172-4.186C11149.6,23878.379,11148.48,23880.227,11148.48,23882.564Zm-53.868,2.332c0-2.051,1.637-2.7,3.981-2.992,1.738-.221,2.71-.234,2.71-1.014v-.244a2.157,2.157,0,0,0-2.44-2.279,2.873,2.873,0,0,0-2.812,1.654l-1.145-.414a3.992,3.992,0,0,1,3.921-2.32c1.589,0,3.676.689,3.676,3.467v7.039h-1.2v-1.643h-.072a3.407,3.407,0,0,1-3.214,1.877A3.11,3.11,0,0,1,11094.612,23884.9Zm3.981-1.943c-1.757.217-2.782.744-2.782,2s1.013,1.979,2.368,1.979a3.01,3.01,0,0,0,3.124-3.111v-1.5A7.252,7.252,0,0,1,11098.594,23882.953Zm43.7,4.84v-6.639a2.51,2.51,0,0,0-2.62-2.758,2.713,2.713,0,0,0-2.818,2.92v6.477h-1.2v-10.361h1.163v1.625h.108a3.142,3.142,0,0,1,3.052-1.764c2.093,0,3.514,1.332,3.514,3.785v6.715Zm-12.172,0v-10.361h1.205v10.361Zm-4.677,0-4.06-5.133-1.193,1.115v4.018h-1.205v-13.82h1.205v8.334h.144l4.863-4.875h1.517l-4.437,4.438,4.707,5.924Zm-11.969,0v-6.639a2.51,2.51,0,0,0-2.62-2.758,2.713,2.713,0,0,0-2.818,2.92v6.477h-1.2v-10.361H11108v1.625h.108a3.142,3.142,0,0,1,3.052-1.764c2.093,0,3.514,1.332,3.514,3.785v6.715Zm-31.539,0v-13.82h4.659c2.7,0,4.053,1.541,4.053,3.621a2.871,2.871,0,0,1-2.188,3.016v.107a3.215,3.215,0,0,1,2.734,3.455c0,2.092-1.373,3.621-4.341,3.621Zm1.259-1.133h3.658c2.128,0,3.13-1.062,3.13-2.488a2.864,2.864,0,0,0-3.076-2.836h-3.712Zm0-6.439h3.514a2.567,2.567,0,0,0,2.734-2.627c0-1.469-.959-2.488-2.848-2.488h-3.4Zm-664.144,6.313a3.111,3.111,0,0,1-3.381-3.154c.012-2.051,1.654-2.7,4-2.967,1.745-.205,2.716-.211,2.722-.99v-.246a2.163,2.163,0,0,0-2.422-2.3,2.884,2.884,0,0,0-2.824,1.639l-1.14-.42a3.966,3.966,0,0,1,3.934-2.291c1.589.012,3.676.713,3.651,3.5l-.054,7.033-1.2-.006.012-1.643h-.071a3.41,3.41,0,0,1-3.19,1.852Zm.612-5.066c-1.757.2-2.788.719-2.794,1.973s1,1.984,2.35,2a3.01,3.01,0,0,0,3.148-3.088l.012-1.5A7.348,7.348,0,0,1,10419.664,23881.467Zm13.755,4.941.1-13.822,1.2.014-.1,13.814Zm-21.862-.012a2.536,2.536,0,0,1-2.644-2.6l.048-6.895-1.541-.012.006-1.051,1.547.014.019-2.482,1.205.012-.019,2.482,2.2.018-.013,1.043-2.188-.018-.054,6.613c-.006,1.3.737,1.691,1.553,1.7a2.3,2.3,0,0,0,.7-.09l.251,1.092a2.9,2.9,0,0,1-1.037.174Zm16.328-.031.077-10.361,1.212.006-.078,10.361Zm-27.654.006c-2.9-.023-4.707-2.23-4.683-5.377s1.895-5.367,4.581-5.35c2.242.018,4.371,1.662,4.347,5.121l-.006.6-7.717-.061c.036,2.393,1.367,3.951,3.483,3.963a2.876,2.876,0,0,0,2.818-1.678l1.14.383a4,4,0,0,1-3.922,2.4Zm-3.466-6.127,6.488.047a3.259,3.259,0,0,0-3.137-3.549h-.023A3.5,3.5,0,0,0,10396.765,23880.244Zm-5.462,5.84-2.986-5.631a5.112,5.112,0,0,1-.527.018l-3.214-.023-.042,5.588-1.266-.012.1-13.814,4.462.029c2.938.025,4.442,1.758,4.425,4.174a3.759,3.759,0,0,1-2.645,3.814l3.148,5.869Zm-6.722-6.787,3.184.023c2.165.018,3.231-1.109,3.25-2.92s-1.037-3.01-3.226-3.027l-3.16-.025Zm745.258-4.51a.9.9,0,1,1,.894.863A.888.888,0,0,1,11129.839,23874.787Zm-701.247-.562a.91.91,0,1,1,.006,0Zm625.062-44.33.983-.646a3.206,3.206,0,0,0,3.063,1.648c1.835,0,3.07-.9,3.07-2.83v-2.332h-.108a3.263,3.263,0,0,1-3.184,2.031c-2.482,0-4.264-1.924-4.264-5.1,0-3.154,1.715-5.3,4.281-5.3a3.309,3.309,0,0,1,3.185,2.123h.119v-1.98h1.176v10.633c0,2.637-1.823,3.836-4.275,3.836A4.214,4.214,0,0,1,11053.653,23829.895Zm.768-7.25c0,2.375,1.139,4.018,3.2,4.018,2,0,3.172-1.516,3.172-4.018,0-2.434-1.139-4.184-3.172-4.184C11055.542,23818.461,11054.421,23820.307,11054.421,23822.645Zm53.017,2.777,1.151-.281a2.368,2.368,0,0,0,2.6,1.869c1.589,0,2.62-.8,2.62-1.883,0-.832-.546-1.42-1.685-1.689l-1.7-.4c-1.8-.432-2.645-1.379-2.645-2.77,0-1.7,1.523-2.9,3.61-2.9a3.357,3.357,0,0,1,3.507,2.416l-1.1.313a2.328,2.328,0,0,0-2.41-1.668c-1.4,0-2.4.738-2.4,1.787,0,.9.6,1.416,1.889,1.744l1.564.385c1.733.426,2.6,1.35,2.6,2.729,0,1.762-1.565,3.021-3.844,3.021C11109.171,23828.09,11107.8,23827.148,11107.438,23825.422Zm-11.746-2.686c0-3.119,1.847-5.373,4.563-5.373a3.807,3.807,0,0,1,3.963,3.219h-1.211a2.694,2.694,0,0,0-2.734-2.121c-1.99,0-3.376,1.727-3.376,4.232,0,2.525,1.344,4.293,3.376,4.293a2.665,2.665,0,0,0,2.74-2.141h1.211a3.786,3.786,0,0,1-3.951,3.244C11097.484,23828.09,11095.691,23825.824,11095.691,23822.736Zm-24.344,2.686,1.151-.281a2.367,2.367,0,0,0,2.6,1.869c1.589,0,2.62-.8,2.62-1.883,0-.832-.545-1.42-1.685-1.689l-1.69-.4c-1.806-.432-2.645-1.379-2.645-2.77,0-1.7,1.517-2.9,3.6-2.9a3.37,3.37,0,0,1,3.514,2.416l-1.1.313a2.321,2.321,0,0,0-2.41-1.668c-1.392,0-2.4.738-2.4,1.787,0,.9.6,1.416,1.889,1.744l1.565.385c1.732.426,2.6,1.35,2.6,2.729,0,1.762-1.564,3.021-3.843,3.021C11073.08,23828.09,11071.713,23827.148,11071.348,23825.422Zm-30.5-2.686c0-3.18,1.876-5.373,4.563-5.373s4.558,2.193,4.558,5.373c0,3.158-1.871,5.354-4.558,5.354S11040.846,23825.895,11040.846,23822.736Zm1.205,0c0,2.32,1.205,4.25,3.357,4.25s3.352-1.93,3.352-4.25-1.2-4.275-3.352-4.275S11042.051,23820.414,11042.051,23822.736Zm41.36,2.715v-6.9h-1.547v-1.045h1.547v-2.48h1.212v2.48h2.188v1.045h-2.188v6.613c0,1.307.743,1.686,1.559,1.686a2.416,2.416,0,0,0,.7-.092l.258,1.086a2.825,2.825,0,0,1-1.061.18A2.537,2.537,0,0,1,11083.411,23825.451Zm7.279,2.424v-10.369h1.212v10.369Zm-24.374,0v-10.369h1.205v10.369Zm-36.516,0v-13.822h1.259v12.688h6.59v1.135Zm60.608-13.012a.9.9,0,1,1,.9.863A.882.882,0,0,1,11090.409,23814.863Zm-24.38,0a.9.9,0,1,1,.9.863A.886.886,0,0,1,11066.029,23814.863Zm-572.308-31.156c0-2.051,1.637-2.705,3.981-2.992,1.738-.215,2.71-.229,2.71-1.014v-.24a2.158,2.158,0,0,0-2.44-2.283,2.882,2.882,0,0,0-2.818,1.654l-1.139-.414a3.984,3.984,0,0,1,3.921-2.32c1.583,0,3.676.689,3.676,3.467v7.039h-1.2v-1.643h-.078a3.4,3.4,0,0,1-3.208,1.875A3.109,3.109,0,0,1,10493.722,23783.707Zm3.981-1.943c-1.757.217-2.782.744-2.782,2s1.013,1.979,2.368,1.979a3.014,3.014,0,0,0,3.124-3.113v-1.5A7.316,7.316,0,0,1,10497.7,23781.764Zm31.575-.281c0-3.137,1.853-5.385,4.539-5.385,2.248,0,4.383,1.625,4.383,5.084v.6h-7.717c.054,2.393,1.4,3.939,3.514,3.939a2.873,2.873,0,0,0,2.806-1.7l1.14.371a3.992,3.992,0,0,1-3.945,2.428C10531.095,23786.818,10529.278,23784.625,10529.278,23781.482Zm1.211-.762h6.487a3.265,3.265,0,0,0-3.159-3.531A3.493,3.493,0,0,0,10530.489,23780.721Zm-12.928.75c0-3.119,1.853-5.373,4.563-5.373a3.812,3.812,0,0,1,3.969,3.221h-1.217a2.693,2.693,0,0,0-2.734-2.129c-1.99,0-3.369,1.727-3.369,4.238s1.343,4.293,3.369,4.293a2.66,2.66,0,0,0,2.74-2.141h1.218a3.792,3.792,0,0,1-3.958,3.238C10519.354,23786.818,10517.562,23784.559,10517.562,23781.471Zm-54.726,2.686,1.157-.287a2.362,2.362,0,0,0,2.59,1.871c1.589,0,2.626-.8,2.626-1.883,0-.828-.545-1.416-1.69-1.686l-1.691-.408c-1.8-.432-2.644-1.373-2.644-2.764,0-1.709,1.517-2.9,3.609-2.9a3.363,3.363,0,0,1,3.508,2.416l-1.1.313a2.319,2.319,0,0,0-2.41-1.666c-1.4,0-2.4.73-2.4,1.785,0,.895.6,1.416,1.889,1.74l1.564.383c1.739.426,2.608,1.35,2.608,2.734,0,1.764-1.564,3.016-3.849,3.016C10464.574,23786.818,10463.2,23785.883,10462.836,23784.156Zm11.386-1.205v-6.709h1.2v6.637a2.493,2.493,0,0,0,2.549,2.693,2.806,2.806,0,0,0,2.836-2.934v-6.4h1.2v10.361h-1.2v-1.721h-.1a3.245,3.245,0,0,1-3.082,1.857C10475.637,23786.74,10474.222,23785.41,10474.222,23782.951Zm38.363,3.652v-6.639a2.51,2.51,0,0,0-2.62-2.758,2.713,2.713,0,0,0-2.818,2.92v6.477h-1.205v-10.361h1.169v1.625h.108a3.139,3.139,0,0,1,3.052-1.764c2.093,0,3.514,1.332,3.514,3.789v6.711Zm-26.269,0v-10.361h1.169v1.588h.084a2.986,2.986,0,0,1,2.836-1.744c.2,0,.474.012.636.018v1.223a5.567,5.567,0,0,0-.726-.064,2.632,2.632,0,0,0-2.794,2.65v6.691Zm-28.487,0v-6.639a2.512,2.512,0,0,0-2.62-2.758,2.714,2.714,0,0,0-2.824,2.92v6.477h-1.2v-10.361h1.169v1.625h.107a3.132,3.132,0,0,1,3.047-1.764c2.092,0,3.52,1.332,3.52,3.789v6.711Zm-12.466,0v-13.814h1.259v13.814Zm604.416-11.584c-2.9-.014-4.713-2.219-4.688-5.361s1.883-5.373,4.568-5.361c2.243.014,4.378,1.65,4.354,5.115v.594l-7.717-.041c.036,2.391,1.373,3.945,3.489,3.957a2.886,2.886,0,0,0,2.818-1.686l1.14.377a3.994,3.994,0,0,1-3.934,2.406Zm-3.472-6.117,6.481.037a3.254,3.254,0,0,0-3.136-3.545h-.018A3.489,3.489,0,0,0,11046.308,23768.9Zm-17.125,6.025a3.113,3.113,0,0,1-3.388-3.152c.013-2.051,1.649-2.693,3.993-2.969,1.745-.209,2.717-.215,2.723-1v-.238a2.165,2.165,0,0,0-2.435-2.3,2.88,2.88,0,0,0-2.818,1.637l-1.139-.414a3.983,3.983,0,0,1,3.934-2.3c1.583.012,3.675.713,3.657,3.49l-.042,7.039-1.2-.012.012-1.637h-.077a3.4,3.4,0,0,1-3.2,1.857Zm.6-5.072c-1.757.211-2.782.727-2.788,1.984s1,1.98,2.356,1.992a3.023,3.023,0,0,0,3.143-3.094l.006-1.5A7.354,7.354,0,0,1,11029.782,23769.855Zm-11.158,5c-2.788-.02-4.569-2.285-4.551-5.379.018-3.113,1.876-5.361,4.593-5.344a3.8,3.8,0,0,1,3.945,3.238l-1.211-.006a2.7,2.7,0,0,0-2.723-2.141c-1.99-.012-3.382,1.709-3.4,4.221s1.319,4.295,3.352,4.307a2.654,2.654,0,0,0,2.752-2.123l1.212.006a3.777,3.777,0,0,1-3.939,3.221Zm19.379-.109.055-10.367,1.169.006-.006,1.6h.084a2.982,2.982,0,0,1,2.842-1.732c.2,0,.474.018.636.023l-.006,1.223a4.425,4.425,0,0,0-.72-.072,2.644,2.644,0,0,0-2.818,2.639l-.036,6.691Zm-40.467-.072a2.533,2.533,0,0,1-2.65-2.59l.035-6.895-1.547-.012.007-1.045,1.547.008.012-2.482,1.205.006-.012,2.482,2.194.018-.006,1.043-2.194-.012-.036,6.613c-.006,1.3.737,1.691,1.559,1.691a2.3,2.3,0,0,0,.7-.09l.251,1.09a2.926,2.926,0,0,1-1.049.174Zm-17.677-.012a3.121,3.121,0,0,1-3.394-3.152c.012-2.051,1.654-2.693,4-2.975,1.739-.205,2.71-.211,2.716-1v-.24a2.154,2.154,0,0,0-2.428-2.295,2.883,2.883,0,0,0-2.824,1.637l-1.14-.42a3.989,3.989,0,0,1,3.934-2.3c1.589.006,3.676.707,3.664,3.484l-.042,7.039-1.2-.006.006-1.643h-.072a3.411,3.411,0,0,1-3.2,1.863Zm.6-5.072c-1.757.205-2.782.727-2.794,1.979s1,1.984,2.362,1.99a3,3,0,0,0,3.136-3.094l.012-1.5A7.222,7.222,0,0,1,10980.459,23769.586Zm28.6,4.994.035-6.637a2.511,2.511,0,0,0-2.62-2.775,2.746,2.746,0,0,0-2.89,2.906l-.036,6.477-1.2-.006.078-13.82,1.2.006-.03,5.084h.108a3.1,3.1,0,0,1,3.082-1.744c2.1.012,3.531,1.336,3.514,3.8l-.036,6.715Zm-40.078-.006c-2.9-.018-4.713-2.219-4.7-5.359s1.883-5.379,4.569-5.361c2.248.012,4.377,1.648,4.359,5.109l-.006.594-7.718-.043c.042,2.4,1.374,3.951,3.5,3.957a2.877,2.877,0,0,0,2.813-1.678l1.139.377a3.988,3.988,0,0,1-3.927,2.4Zm-3.478-6.115,6.481.035a3.259,3.259,0,0,0-3.136-3.549h-.019A3.5,3.5,0,0,0,10965.5,23768.459Zm23.169,6.008.077-13.814,1.2.006-.071,13.814Zm-29.705-.162.036-6.35-7.837-.041-.036,6.35-1.265-.012.077-13.816,1.26.006-.036,6.338,7.843.043.036-6.338,1.259.006-.071,13.82Zm-345.355-23.6c0-3.178,1.87-5.367,4.557-5.367s4.563,2.189,4.563,5.367c0,3.16-1.877,5.354-4.563,5.354S10613.613,23753.865,10613.613,23750.705Zm1.205,0c0,2.32,1.2,4.25,3.352,4.25s3.357-1.93,3.357-4.25-1.205-4.275-3.357-4.275S10614.818,23748.385,10614.818,23750.705Zm-12.922,0c0-3.113,1.853-5.367,4.563-5.367a3.812,3.812,0,0,1,3.969,3.215h-1.217a2.694,2.694,0,0,0-2.734-2.123c-1.99,0-3.37,1.727-3.37,4.238s1.344,4.287,3.37,4.287a2.661,2.661,0,0,0,2.74-2.135h1.217a3.787,3.787,0,0,1-3.957,3.238C10603.7,23756.059,10601.9,23753.8,10601.9,23750.705Zm-12.172.018c0-3.143,1.858-5.385,4.545-5.385,2.242,0,4.383,1.625,4.383,5.084v.594h-7.717c.054,2.4,1.4,3.939,3.514,3.939a2.887,2.887,0,0,0,2.807-1.7l1.139.371a4,4,0,0,1-3.945,2.428C10591.547,23756.059,10589.725,23753.865,10589.725,23750.723Zm1.217-.768h6.482a3.256,3.256,0,0,0-3.154-3.525A3.489,3.489,0,0,0,10590.941,23749.955Zm-18.9.768c0-3.143,1.859-5.385,4.539-5.385,2.249,0,4.39,1.625,4.39,5.084v.594h-7.718c.055,2.4,1.4,3.939,3.514,3.939a2.886,2.886,0,0,0,2.807-1.7l1.14.371a4,4,0,0,1-3.946,2.428C10573.865,23756.059,10572.042,23753.865,10572.042,23750.723Zm1.218-.768h6.481a3.257,3.257,0,0,0-3.16-3.525A3.486,3.486,0,0,0,10573.26,23749.955Zm65.183,5.889v-6.943a2.165,2.165,0,0,0-2.284-2.459,2.365,2.365,0,0,0-2.471,2.578v6.824h-1.223v-7.053a2.139,2.139,0,0,0-2.243-2.35,2.563,2.563,0,0,0-2.512,2.764v6.639h-1.2v-10.367h1.169v1.594h.108a3.058,3.058,0,0,1,5.576.156h.09a3.11,3.11,0,0,1,3.069-1.883c1.925,0,3.118,1.236,3.118,3.557v6.943Zm-53.694,0v-13.822h1.2v13.822Zm-20.027,0v-12.687h-4.377v-1.135h10.02v1.135h-4.377v12.688Zm348.259-21.322c0-2.051,1.643-2.705,3.98-3,1.745-.217,2.717-.229,2.717-1.014v-.24a2.163,2.163,0,0,0-2.446-2.283,2.879,2.879,0,0,0-2.812,1.654l-1.139-.408a3.98,3.98,0,0,1,3.921-2.326c1.583,0,3.676.689,3.676,3.471v7.035h-1.2v-1.639h-.078a3.411,3.411,0,0,1-3.214,1.877A3.116,3.116,0,0,1,10912.979,23734.521Zm3.98-1.943c-1.75.217-2.775.738-2.775,2s1.007,1.973,2.368,1.973a3.011,3.011,0,0,0,3.124-3.105v-1.5A7.439,7.439,0,0,1,10916.96,23732.578Zm-41.049,1.943c0-2.051,1.643-2.705,3.981-3,1.745-.217,2.716-.229,2.716-1.014v-.24a2.163,2.163,0,0,0-2.446-2.283,2.877,2.877,0,0,0-2.812,1.654l-1.14-.408a3.982,3.982,0,0,1,3.922-2.326c1.583,0,3.675.689,3.675,3.471v7.035h-1.2v-1.639h-.077a3.408,3.408,0,0,1-3.208,1.877A3.118,3.118,0,0,1,10875.911,23734.521Zm3.981-1.943c-1.751.217-2.782.738-2.782,2s1.014,1.973,2.375,1.973a3.011,3.011,0,0,0,3.123-3.105v-1.5A7.433,7.433,0,0,1,10879.893,23732.578Zm28.092,4.834v-6.943a2.162,2.162,0,0,0-2.284-2.453,2.365,2.365,0,0,0-2.471,2.578v6.818H10902v-7.047a2.134,2.134,0,0,0-2.236-2.35,2.558,2.558,0,0,0-2.513,2.758v6.639h-1.2v-10.361h1.17v1.594h.107a3.058,3.058,0,0,1,5.576.156h.09a3.111,3.111,0,0,1,3.07-1.883c1.925,0,3.118,1.234,3.118,3.551v6.943Zm-19.847,0v-10.361h1.169v1.594h.09a2.967,2.967,0,0,1,2.83-1.75c.2,0,.474.012.636.023v1.217a5.594,5.594,0,0,0-.72-.064,2.642,2.642,0,0,0-2.806,2.648v6.693Zm-17.233,0v-6.639a2.508,2.508,0,0,0-2.626-2.758,2.746,2.746,0,0,0-2.878,2.92v6.477h-1.2V23723.6h1.2v5.08h.107a3.1,3.1,0,0,1,3.07-1.758c2.1,0,3.538,1.313,3.538,3.783v6.711Zm-19.475,0V23723.6h4.461c2.938,0,4.449,1.848,4.449,4.264a4.052,4.052,0,0,1-4.432,4.27h-3.22v5.283Zm1.259-6.416h3.184a3.134,3.134,0,1,0-.018-6.266h-3.166Zm-45.15,3.441.983-.648a3.2,3.2,0,0,0,3.063,1.65c1.835,0,3.07-.9,3.07-2.832v-2.332h-.107a3.258,3.258,0,0,1-3.185,2.033c-2.482,0-4.263-1.924-4.263-5.1,0-3.152,1.721-5.3,4.281-5.3a3.315,3.315,0,0,1,3.184,2.121h.126v-1.979h1.169v10.637c0,2.627-1.816,3.832-4.275,3.832A4.22,4.22,0,0,1,10807.538,23734.438Zm.768-7.25c0,2.375,1.139,4.018,3.2,4.018,2,0,3.172-1.518,3.172-4.018,0-2.434-1.139-4.186-3.172-4.186C10809.427,23723,10808.306,23724.85,10808.306,23727.188Zm-70.269,2.332c0-2.049,1.638-2.7,3.981-3,1.739-.215,2.711-.227,2.711-1.012v-.24a2.158,2.158,0,0,0-2.44-2.279,2.878,2.878,0,0,0-2.812,1.648l-1.146-.406a3.987,3.987,0,0,1,3.922-2.326c1.589,0,3.676.689,3.676,3.471v7.039h-1.2v-1.643h-.072a3.418,3.418,0,0,1-3.214,1.877A3.114,3.114,0,0,1,10738.037,23729.52Zm3.981-1.941c-1.757.215-2.782.742-2.782,2s1.014,1.979,2.369,1.979a3.013,3.013,0,0,0,3.124-3.111v-1.5A7.289,7.289,0,0,1,10742.019,23727.578Zm-47.482,1.941c0-2.049,1.643-2.7,3.981-3,1.744-.215,2.716-.227,2.716-1.012v-.24a2.159,2.159,0,0,0-2.446-2.279,2.884,2.884,0,0,0-2.812,1.648l-1.139-.406a3.98,3.98,0,0,1,3.921-2.326c1.583,0,3.676.689,3.676,3.471v7.039h-1.2v-1.643h-.078a3.407,3.407,0,0,1-3.208,1.877A3.118,3.118,0,0,1,10694.536,23729.52Zm3.981-1.941c-1.751.215-2.776.742-2.776,2s1.014,1.979,2.368,1.979a3.016,3.016,0,0,0,3.124-3.111v-1.5A7.312,7.312,0,0,1,10698.518,23727.578Zm51.212-.3c0-3.117,1.847-5.371,4.563-5.371a3.8,3.8,0,0,1,3.963,3.219h-1.211a2.7,2.7,0,0,0-2.734-2.123c-1.99,0-3.376,1.729-3.376,4.234,0,2.523,1.344,4.293,3.376,4.293a2.666,2.666,0,0,0,2.74-2.141h1.212a3.782,3.782,0,0,1-3.952,3.238C10751.522,23732.627,10749.729,23730.371,10749.729,23727.277Zm12.928,2.717v-6.9h-1.547v-1.049h1.547v-2.482h1.205v2.482h2.2v1.049h-2.2v6.609c0,1.3.75,1.689,1.565,1.689a2.393,2.393,0,0,0,.7-.1l.258,1.086a2.816,2.816,0,0,1-1.067.186A2.54,2.54,0,0,1,10762.657,23729.994Zm7.268-1.229v-6.717h1.2v6.639a2.491,2.491,0,0,0,2.548,2.691,2.8,2.8,0,0,0,2.837-2.926v-6.4h1.2v10.367h-1.2v-1.721h-.1a3.247,3.247,0,0,1-3.082,1.854C10771.34,23732.549,10769.925,23731.217,10769.925,23728.766Zm-51.009,0v-6.717h1.2v6.639a2.5,2.5,0,0,0,2.555,2.691,2.8,2.8,0,0,0,2.83-2.926v-6.4h1.205v10.367h-1.205v-1.721h-.1a3.247,3.247,0,0,1-3.082,1.854C10720.331,23732.549,10718.916,23731.217,10718.916,23728.766Zm83.2,3.65v-6.643a2.511,2.511,0,0,0-2.614-2.758,2.717,2.717,0,0,0-2.824,2.92v6.48h-1.2v-10.367h1.17v1.625h.107a3.138,3.138,0,0,1,3.046-1.756c2.093,0,3.521,1.324,3.521,3.783v6.715Zm-12.172,0v-10.367h1.211v10.367Zm-7.927,0v-10.367h1.169v1.6h.084a2.983,2.983,0,0,1,2.837-1.752c.2,0,.474.014.635.025v1.217a5.468,5.468,0,0,0-.725-.066,2.642,2.642,0,0,0-2.8,2.65v6.7Zm-50.241,0v-9.318h-1.595v-1.049h1.595v-1.516a2.561,2.561,0,0,1,2.729-2.58,3.337,3.337,0,0,1,1.283.229l-.348,1.055a2.4,2.4,0,0,0-.828-.148,1.506,1.506,0,0,0-1.631,1.7v1.266h2.3v1.049h-2.3l-.006,9.318Zm-18.372,0v-6.643a2.515,2.515,0,0,0-2.62-2.758,2.716,2.716,0,0,0-2.818,2.92v6.48h-1.205v-10.367h1.17v1.625h.107a3.146,3.146,0,0,1,3.052-1.756c2.087,0,3.514,1.324,3.514,3.783v6.715Zm-24.1,0v-11.152h-.108l-4.659,11.152h-1.151l-4.658-11.152h-.108v11.152h-1.187v-13.82h1.457l5.013,12.039h.12l5.013-12.039h1.457v13.82Zm100.362-13.012a.9.9,0,1,1,.9.863A.888.888,0,0,1,10789.664,23719.4Z" transform="translate(-10362.097 -23717.953)" stroke="rgba(0,0,0,0)" stroke-miterlimit="10" stroke-width="1"/>
    <circle id="Ellipse_564" data-name="Ellipse 564" cx="2.607" cy="2.607" r="2.607" transform="translate(117.057 307.527)"/>
    <g id="Group_27646" data-name="Group 27646" transform="translate(-0.533 101.713)">
      <g id="real_estate" data-name="real estate">
        <g id="Group_27645" data-name="Group 27645">
          <path id="Path_30971" data-name="Path 30971" d="M1.855,0,3.333-4.163h5.8L10.613,0h1.322L6.909-13.818H5.56L.533,0ZM3.738-5.3l2.449-6.882h.094L8.731-5.3ZM21.78-3.961a2.8,2.8,0,0,1-2.834,2.928A2.494,2.494,0,0,1,16.4-3.724v-6.639h-1.2V-3.65c0,2.456,1.417,3.785,3.407,3.785a3.245,3.245,0,0,0,3.083-1.855h.094V0h1.2V-10.364h-1.2Zm9.594-6.4H29.181v-2.483H27.973v2.483H26.428v1.046h1.545v6.9A2.538,2.538,0,0,0,30.638.155,2.892,2.892,0,0,0,31.7-.027l-.256-1.086a2.466,2.466,0,0,1-.7.094c-.816,0-1.565-.385-1.565-1.687V-9.318h2.193ZM39.16.216c2.685,0,4.561-2.193,4.561-5.35,0-3.178-1.876-5.371-4.561-5.371S34.6-8.312,34.6-5.135C34.6-1.977,36.474.216,39.16.216Zm0-1.1c-2.152,0-3.353-1.93-3.353-4.251s1.2-4.278,3.353-4.278,3.353,1.957,3.353,4.278S41.312-.884,39.16-.884ZM47.5,0h1.2V-6.639A2.559,2.559,0,0,1,51.21-9.4a2.134,2.134,0,0,1,2.24,2.348V0h1.228V-6.821A2.363,2.363,0,0,1,57.147-9.4a2.163,2.163,0,0,1,2.281,2.456V0h1.2V-6.943c0-2.321-1.194-3.556-3.117-3.556a3.113,3.113,0,0,0-3.07,1.882h-.088a2.785,2.785,0,0,0-2.8-1.882,2.791,2.791,0,0,0-2.78,1.727h-.108v-1.592H47.5ZM68.968.216c2.685,0,4.561-2.193,4.561-5.35,0-3.178-1.876-5.371-4.561-5.371s-4.561,2.193-4.561,5.371C64.407-1.977,66.283.216,68.968.216Zm0-1.1c-2.152,0-3.353-1.93-3.353-4.251s1.2-4.278,3.353-4.278,3.353,1.957,3.353,4.278S71.12-.884,68.968-.884Zm12.421-9.48H79.2v-2.483H77.989v2.483H76.444v1.046h1.545v6.9A2.538,2.538,0,0,0,80.654.155,2.892,2.892,0,0,0,81.72-.027l-.256-1.086a2.466,2.466,0,0,1-.7.094c-.816,0-1.565-.385-1.565-1.687V-9.318h2.193ZM85.269,0h1.208V-10.364H85.269Zm.614-12.145a.892.892,0,0,0,.9-.864.892.892,0,0,0-.9-.864.886.886,0,0,0-.9.864A.886.886,0,0,0,85.883-12.145Zm12.941,1.781h-1.3L94.445-1.586H94.35l-3.077-8.778h-1.3L93.756,0h1.282ZM106.117.216a4,4,0,0,0,3.947-2.429l-1.14-.371a2.887,2.887,0,0,1-2.807,1.7c-2.119,0-3.461-1.545-3.515-3.94h7.719v-.594c0-3.461-2.139-5.087-4.386-5.087-2.685,0-4.541,2.247-4.541,5.384S103.216.216,106.117.216Zm-3.509-6.1a3.491,3.491,0,0,1,3.326-3.529,3.259,3.259,0,0,1,3.158,3.529Z" transform="translate(0 18)"/>
        </g>
      </g>
    </g>
    <path id="Path_30777" data-name="Path 30777" d="M152.021,338C217.638,243.183,335.807,179.92,470.68,179.92c134.113,0,251.711,62.555,317.547,156.483" transform="translate(-71.148 -153.613)" fill="none" stroke="#323232" stroke-miterlimit="10" stroke-width="0.612"/>
    <circle id="Ellipse_565" data-name="Ellipse 565" cx="2.348" cy="2.348" r="2.348" transform="translate(489.183 33.854)" fill="red"/>
    <circle id="Ellipse_666" data-name="Ellipse 666" cx="2.348" cy="2.348" r="2.348" transform="translate(365.183 24.854)" fill="red"/>
    <circle id="Ellipse_566" data-name="Ellipse 566" cx="2.348" cy="2.348" r="2.348" transform="translate(263.27 45.854)" fill="red"/>
    <circle id="Ellipse_567" data-name="Ellipse 567" cx="2.348" cy="2.348" r="2.348" transform="translate(586.158 69.43)" fill="red"/>
    <circle id="Ellipse_568" data-name="Ellipse 568" cx="2.348" cy="2.348" r="2.348" transform="translate(179.635 85.43)" fill="red"/>
    <circle id="Ellipse_569" data-name="Ellipse 569" cx="2.348" cy="2.348" r="2.348" transform="translate(665.736 124.865)" fill="red"/>
    <circle id="Ellipse_570" data-name="Ellipse 570" cx="2.348" cy="2.348" r="2.348" transform="translate(122.518 129.242)" fill="red"/>
    <circle id="Ellipse_571" data-name="Ellipse 571" cx="2.348" cy="2.348" r="2.348" transform="translate(714.193 180.4)" fill="red"/>
    <circle id="Ellipse_572" data-name="Ellipse 572" cx="2.348" cy="2.348" r="2.348" transform="translate(78.805 180.4)" fill="red"/>
  </g>
</svg>
