<svg xmlns="http://www.w3.org/2000/svg" width="615.77" height="523.498" viewBox="0 0 615.77 523.498"><defs><style>.a,.b,.c,.d,.e,.g,.h,.j{fill:none;stroke-miterlimit:10;}.a,.d{stroke:#000;}.a,.b,.c{stroke-linecap:round;}.a,.b,.c,.d,.j{stroke-width:0.7px;}.b{stroke:#142544;}.c,.e,.g,.j{stroke:#ff2b2b;}.e{stroke-width:0.885px;}.f{fill:#142544;}.h{stroke:red;}.i{fill:#ff2b2b;}.k{fill:red;}</style></defs><g transform="translate(0.354 0.373)"><g transform="translate(-42.096 -34.533)"><path class="a" d="M176.435,276.621a18.78,18.78,0,0,1-2.289-8.795c.031-2.973,1.578-5.7,4.549-5.826a5.962,5.962,0,0,1,5.214,3.466,16.3,16.3,0,0,1,1.394,6.418q.492,6.918.366,13.862a3.111,3.111,0,0,1-.633,2.218,3.145,3.145,0,0,1-2.191.615l-13.931.778a10.5,10.5,0,0,1-5.216-.976c-4.189-2.678-2.642-7.932-.027-9.453s6.989-.431,9.964.117" transform="translate(53.89 -68.199)"/><path class="b" d="M166.079,321.523a18.782,18.782,0,0,1-7.359-5.333c-1.865-2.314-2.4-5.4-.192-7.39a5.966,5.966,0,0,1,6.23-.64,16.327,16.327,0,0,1,5.153,4.068c3.186,3.353,6.219,5.32,9.1,8.948a4.11,4.11,0,0,1,1.146,2.4c.008.889-.215,1.618-1.712,2.966l-10.072,9.592a10.486,10.486,0,0,1-4.647,2.563c-4.936.594-7.081-4.444-6.029-7.281s5.122-4.775,7.766-6.244" transform="translate(49.51 -18.482)"/><path class="a" d="M221.766,365.843a18.819,18.819,0,0,1-4.706,7.777c-2.151,2.051-5.185,2.841-7.348.8a5.963,5.963,0,0,1-1.154-6.155,16.285,16.285,0,0,1,3.627-5.475c3.075-3.454,4.785-6.638,8.159-9.807.577-.539,1.511-1.357,2.3-1.34.884-.081,1.631.079,3.1,1.461l10.394,9.24a10.457,10.457,0,0,1,2.939,4.417c1,4.869-3.84,7.426-6.755,6.612s-5.182-4.706-6.867-7.219" transform="translate(105.245 29.552)"/><path class="a" d="M258.443,265.546a18.808,18.808,0,0,1,9-1.292c2.95.364,5.484,2.208,5.281,5.172a5.965,5.965,0,0,1-4.029,4.8,16.311,16.311,0,0,1-6.533.665c-4.62-.188-8.166.508-12.757-.092a4.128,4.128,0,0,1-2.494-.93c-.625-.631-.974-1.311-.836-3.322l.556-13.9a10.487,10.487,0,0,1,1.553-5.074c3.13-3.863,8.176-1.737,9.4,1.031s-.353,6.993-1.229,9.888" transform="translate(146.524 -81.861)"/><path class="c" d="M346.333,352.742a18.821,18.821,0,0,1-5.049,7.559c-2.241,1.95-5.306,2.6-7.378.472a5.966,5.966,0,0,1-.876-6.2,16.319,16.319,0,0,1,3.868-5.306c3.228-3.311,5.08-6.416,8.594-9.43a4.113,4.113,0,0,1,2.356-1.236c.889-.042,1.626.153,3.029,1.6l9.97,9.7a10.5,10.5,0,0,1,2.739,4.547c.782,4.909-4.171,7.244-7.045,6.3s-4.967-4.936-6.537-7.522" transform="translate(240.87 15.338)"/><g transform="translate(436.455 34.533)"><path d="M283.944,203.19l12.485,5.885c.84.4.895,2.082.1,3.044l-11.843,14.31c-.8.97-1.863.479-1.907-.88l-.64-20.193C282.092,204,283.1,202.793,283.944,203.19Z" transform="translate(-250.572 -166.946)"/><path class="d" d="M334.228,186.085,273.252,207.2c-3.592,1.244-6.372,6.4-6.209,11.525l1.674,52.688c.163,5.12,3.2,8.264,6.8,7.02l60.973-21.115c3.592-1.242,6.372-6.4,6.209-11.525L341.026,193.1C340.863,187.985,337.819,184.841,334.228,186.085Zm-28.538,71.909c-9.97,3.452-18.416-5.272-18.867-19.484s7.265-28.534,17.232-31.985,18.414,5.272,18.865,19.484S315.657,254.542,305.689,257.993Z" transform="translate(-267.037 -185.813)"/></g><g transform="translate(316.41 441.924)"><g transform="translate(7.367 6.016)"><path class="d" d="M254.075,383.564l-35.123,9.224a8.412,8.412,0,0,0-5.814,7.888l.4,63.509c.023,3.506,2.661,5.661,5.9,4.813l43.9-11.527a8.412,8.412,0,0,0,5.812-7.89l-.341-53.982-14.634,3.845Z" transform="translate(-213.138 -383.564)"/><path class="d" d="M232.72,383.564l.1,15.877,14.634-3.843Z" transform="translate(-191.783 -383.564)"/></g><path class="d" d="M250.551,380.686l-35.123,9.221a8.409,8.409,0,0,0-5.814,7.888l.4,63.509c.023,3.508,2.661,5.663,5.9,4.815l1.463-.385-.393-61.92a8.412,8.412,0,0,1,5.814-7.888l27.806-7.3,7.317-1.921Z" transform="translate(-209.614 -380.686)"/><g transform="translate(19.181 30.635)"><path class="d" d="M251.085,409.043,218.891,417.5a.012.012,0,0,1-.015-.013.02.02,0,0,1,.015-.019l32.194-8.454a.011.011,0,0,1,.015.01A.021.021,0,0,1,251.085,409.043Z" transform="translate(-218.694 -380.431)"/><path class="d" d="M251.056,404.486l-32.194,8.454a.012.012,0,0,1-.015-.013.02.02,0,0,1,.015-.019l32.194-8.454a.012.012,0,0,1,.015.013A.02.02,0,0,1,251.056,404.486Z" transform="translate(-218.726 -385.401)"/><path class="d" d="M251.027,399.928l-32.194,8.454c-.008,0-.015,0-.015-.013a.02.02,0,0,1,.015-.019l32.194-8.454a.012.012,0,0,1,.015.013A.02.02,0,0,1,251.027,399.928Z" transform="translate(-218.757 -390.37)"/><path class="d" d="M251,395.372l-32.2,8.454a.011.011,0,0,1-.015-.01.021.021,0,0,1,.015-.021L251,395.34c.006,0,.013,0,.013.013A.021.021,0,0,1,251,395.372Z" transform="translate(-218.789 -395.34)"/></g></g><g transform="translate(230.45 173.823)"><circle class="e" cx="98.727" cy="98.727" r="98.727"/></g><g transform="translate(85.442 65.234)"><ellipse class="d" cx="62.581" cy="30.277" rx="62.581" ry="30.277" transform="translate(0 1.12) rotate(-0.513)"/><g transform="translate(21.473 15.458)"><path d="M122.859,220.333c-2.375-2.015-5.178-2.843-7.286-2.358-2.835.65-2.718,3.311,1.075,7.267,3.859,4.028,7.917,5.7,10.72,5.053,2.076-.475,2.622-2.013,1.049-4.16l3.182-.711c2.728,3.464,2.584,6.788-1.537,7.733-4.564,1.049-11.143-1.526-16.568-7.189s-5.231-9.8-.707-10.837c3.838-.88,8.966.7,13.233,4.476Z" transform="translate(-109.404 -200.26)"/><path d="M138.542,231.208c-4.549,1.043-11.168-1.522-16.593-7.185s-5.231-9.8-.682-10.842,11.157,1.514,16.595,7.185S143.082,230.165,138.542,231.208ZM124,216.035c-2.814.648-2.724,3.27,1.1,7.263s7.89,5.7,10.706,5.057,2.726-3.272-1.1-7.265S126.826,215.387,124,216.035Z" transform="translate(-100.181 -202.375)"/><path d="M124.815,212.9l6.629-1.522a10.631,10.631,0,0,1,9.974,3.257c2.047,2.134,1.858,3.642.554,4.432l.163.171c1.934-.33,5.287.8,7.833,3.46,2.619,2.732,2.638,5.228-1.332,6.138l-7.008,1.612Zm13.392,6.029c1.631-.376,1.946-1.62.468-3.163a5.425,5.425,0,0,0-5.04-1.693l-3.171.728,4.641,4.842Zm7.388,7.363c2.274-.523,2.287-1.712.947-3.111a6.527,6.527,0,0,0-5.789-2.045l-3.458.792,4.925,5.139Z" transform="translate(-92.597 -204.358)"/><path d="M154.827,227.467c-4.549,1.045-11.168-1.524-16.595-7.187s-5.231-9.794-.679-10.84,11.159,1.516,16.593,7.185S159.368,226.424,154.827,227.467Zm-14.542-15.173c-2.816.648-2.726,3.27,1.1,7.263s7.888,5.7,10.706,5.057,2.728-3.272-1.1-7.265S143.11,211.646,140.285,212.294Z" transform="translate(-82.422 -206.455)"/><path d="M141.1,208.614l3.136-.721,14.262,14.88,7.628-1.752,2.555,2.668-10.766,2.471Z" transform="translate(-74.838 -207.893)"/></g></g><g transform="translate(526.512 245.763)"><ellipse class="d" cx="40.488" cy="52" rx="40.488" ry="52" transform="translate(0 70.201) rotate(-60.105)"/><g transform="translate(35.602 30.36)"><path class="f" d="M337.953,302.005l-.713,16.246c-.207,4.467-2.381,6.721-5.444,6.042-2.785-.615-4.827-3.276-4.639-7.541l2.862.633c-.061,1.875.748,3.207,2.036,3.491,1.384.305,2.214-.822,2.331-3.257l.713-16.243Z" transform="translate(-327.145 -301.376)"/><path class="f" d="M332.822,324.356l6.608-21.867,3.55.784,4.587,24.342-3.071-.679-1.068-5.989-5.973-1.321-1.562,5.41Zm9.976-6.941-1.739-9.784-.125-.029-2.555,8.835Z" transform="translate(-320.954 -300.162)"/><path class="f" d="M346.483,323.172l.161.038,4.925-17.276,3.165.7L348.118,328.5l-3.55-.786-4.578-24.34,3.157.7Z" transform="translate(-313.137 -299.197)"/><path class="f" d="M346.164,327.305l6.61-21.867,3.552.784,4.585,24.345-3.073-.682-1.066-5.989-5.973-1.319-1.562,5.408Zm9.978-6.941-1.739-9.784-.125-.027-2.555,8.835Z" transform="translate(-306.404 -296.946)"/><path class="f" d="M341.938,325.384c-.211-2.837-1.656-4.762-3.59-5.189-2.6-.575-4.551,1.921-4.781,7.133-.232,5.3,1.488,8.519,4.064,9.09,1.9.42,3.487-.769,3.97-3.393l2.9.661c-.638,4.313-3.3,7.313-7.076,6.481-4.187-.928-7.081-6.019-6.752-13.478s3.648-11.176,7.8-10.26c3.521.778,6.1,4.357,6.37,9.6Z" transform="translate(-323.324 -285.11)"/><path class="f" d="M342.919,329.371l-4.15-.92.155-3.541,4.15.916.265-6.033,2.433.537-.263,6.035,4.15.918-.155,3.541-4.152-.918-.266,6.038-2.433-.539Z" transform="translate(-314.469 -281.293)"/><path class="f" d="M349.935,330.921l-4.15-.918.155-3.541,4.15.916.266-6.035,2.433.539-.266,6.035,4.152.916-.157,3.546-4.15-.918L352.1,337.5l-2.433-.539Z" transform="translate(-306.818 -279.602)"/></g></g><line class="g" x2="57.819" transform="translate(276.341 290.408)"/><line class="g" x2="33.588" transform="translate(291.527 312.82)"/><line class="h" x2="49.963" transform="translate(329.471 312.82)"/><line class="g" x2="26.673" transform="translate(338.596 290.408)"/><line class="g" x2="10.201" transform="translate(369.234 290.408)"/><line class="h" x2="11.807" transform="translate(276.551 312.82)"/><line class="h" x2="2.895" transform="translate(276.341 301.359)"/><line class="g" x2="2.895" transform="translate(282.662 301.359)"/><line class="h" x2="13.757" transform="translate(289.564 301.359)"/><line class="h" x2="42.477" transform="translate(307.707 301.359)"/><line class="h" x2="25.449" transform="translate(354.275 301.359)"/><line class="g" x2="25.367" transform="translate(276.551 323.133)"/><line class="g" x2="6.069" transform="translate(305.217 323.133)"/><line class="g" x2="20.422" transform="translate(315.268 323.133)"/><line class="g" x2="39.461" transform="translate(339.973 323.133)"/><g transform="translate(42.096 284.346)"><g transform="translate(5.81 34.257)"><path d="M96.689,344.723c.305,12.6.337,22.829.069,22.839s-.736-10.2-1.041-22.8-.339-22.829-.069-22.839S96.382,332.119,96.689,344.723Z" transform="translate(-65.596 -321.451)"/><path d="M83.363,343.646c.265,10.923.263,19.785-.006,19.8s-.7-8.835-.968-19.758-.263-19.787.006-19.8S83.1,332.725,83.363,343.646Z" transform="translate(-80.07 -319.308)"/><ellipse cx="0.486" cy="19.784" rx="0.486" ry="19.784" transform="matrix(1, -0.024, 0.024, 1, 61.413, 2.304)"/><path d="M95.71,343.172c.265,10.921.263,19.785-.006,19.8s-.7-8.835-.966-19.76-.263-19.785,0-19.8S95.445,332.249,95.71,343.172Z" transform="translate(-66.603 -319.825)"/><path d="M97.608,343.1c.268,10.923.266,19.785,0,19.8s-.7-8.835-.966-19.76-.263-19.785,0-19.8S97.343,332.176,97.608,343.1Z" transform="translate(-64.531 -319.904)"/><ellipse cx="0.486" cy="16.74" rx="0.486" ry="16.74" transform="matrix(1, -0.024, 0.024, 1, 3.898, 7.559)"/><path d="M85.212,340.4c.184,7.562.115,13.7-.155,13.71s-.633-6.111-.817-13.674-.117-13.7.153-13.71S85.028,332.836,85.212,340.4Z" transform="translate(-77.949 -316.212)"/><ellipse cx="0.486" cy="13.696" rx="0.486" ry="13.696" transform="matrix(1, -0.024, 0.024, 1, 63.547, 8.313)"/><ellipse cx="0.486" cy="13.696" rx="0.486" ry="13.696" transform="matrix(1, -0.024, 0.024, 1, 17.873, 10.067)"/><path d="M109.91,339.449c.184,7.562.115,13.7-.155,13.71s-.633-6.111-.817-13.672-.117-13.7.153-13.71S109.726,331.888,109.91,339.449Z" transform="translate(-51.015 -317.246)"/><ellipse cx="0.486" cy="10.653" rx="0.486" ry="10.653" transform="translate(8.017 13.491) rotate(-1.392)"/><ellipse cx="0.486" cy="10.653" rx="0.486" ry="10.653" transform="translate(13.975 13.262) rotate(-1.392)"/><ellipse cx="0.486" cy="10.653" rx="0.486" ry="10.653" transform="translate(15.961 13.186) rotate(-1.392)"/><path d="M91.841,338.556c.144,5.883.042,10.658-.226,10.668s-.6-4.75-.746-10.63-.042-10.658.228-10.668S91.7,332.675,91.841,338.556Z" transform="translate(-70.678 -314.903)"/><ellipse cx="0.486" cy="10.653" rx="0.486" ry="10.653" transform="translate(55.677 11.661) rotate(-1.392)"/><ellipse cx="0.486" cy="10.653" rx="0.486" ry="10.653" transform="translate(59.649 11.508) rotate(-1.392)"/><path d="M107.99,337.936c.142,5.881.04,10.658-.228,10.668s-.6-4.75-.744-10.63-.042-10.658.226-10.668S107.846,332.055,107.99,337.936Z" transform="translate(-53.067 -315.579)"/><ellipse cx="0.486" cy="10.653" rx="0.486" ry="10.653" transform="translate(25.89 12.805) rotate(-1.392)"/><ellipse cx="0.486" cy="10.653" rx="0.486" ry="10.653" transform="translate(33.833 12.5) rotate(-1.392)"/><path d="M104.19,338.081c.144,5.881.042,10.658-.226,10.668s-.6-4.75-.746-10.63-.042-10.658.228-10.668S104.048,332.2,104.19,338.081Z" transform="translate(-57.21 -315.42)"/><path d="M87.074,337.152c.1,4.2-.031,7.614-.3,7.624s-.571-3.387-.673-7.589.033-7.614.3-7.624S86.974,332.95,87.074,337.152Z" transform="translate(-75.841 -313.117)"/><ellipse cx="0.486" cy="7.609" rx="0.486" ry="7.609" transform="translate(51.78 14.856) rotate(-1.39)"/><ellipse cx="0.486" cy="7.609" rx="0.486" ry="7.609" transform="translate(12.063 16.381) rotate(-1.39)"/><ellipse cx="0.486" cy="7.609" rx="0.486" ry="7.609" transform="translate(21.992 16) rotate(-1.39)"/><path d="M99.424,336.676c.1,4.2-.031,7.616-.3,7.626s-.569-3.387-.671-7.589.033-7.614.3-7.624S99.321,332.476,99.424,336.676Z" transform="translate(-62.375 -313.634)"/><ellipse cx="0.486" cy="7.609" rx="0.486" ry="7.609" transform="translate(43.836 15.161) rotate(-1.39)"/><ellipse cx="0.486" cy="7.609" rx="0.486" ry="7.609" transform="translate(39.865 15.314) rotate(-1.39)"/><ellipse cx="0.486" cy="22.827" rx="0.486" ry="22.827" transform="translate(41.48 0.024) rotate(-1.393)"/><ellipse cx="0.486" cy="13.696" rx="0.486" ry="13.696" transform="matrix(1, -0.024, 0.024, 1, 0, 10.754)"/><path d="M92.742,335.346c-.063-2.521.107-4.572.374-4.582s.537,2.024.6,4.545-.107,4.572-.374,4.582S92.8,337.867,92.742,335.346Z" transform="translate(-68.579 -311.808)"/><ellipse cx="0.486" cy="4.566" rx="0.486" ry="4.566" transform="matrix(1, -0.024, 0.024, 1, 37.953, 18.433)"/><ellipse cx="0.486" cy="4.566" rx="0.486" ry="4.566" transform="matrix(1, -0.024, 0.024, 1, 47.883, 18.051)"/><path d="M105.091,334.871c-.063-2.521.107-4.572.374-4.582s.535,2.024.6,4.545-.107,4.572-.376,4.582S105.151,337.393,105.091,334.871Z" transform="translate(-55.112 -312.325)"/></g><ellipse class="d" cx="37.387" cy="54.871" rx="37.387" ry="54.871" transform="matrix(1, -0.012, 0.012, 1, 0, 0.907)"/></g><path d="M135.821,327.664c-.027-.011-.052-.019-.079-.027a2.1,2.1,0,0,0-1.277,4,2,2,0,0,0,.61.094,2.1,2.1,0,0,0,.746-4.066Z" transform="translate(23.26 3.281)"/><path class="i" d="M332.137,357.675a2.1,2.1,0,1,0-1.091,3.884,2.034,2.034,0,0,0,.539-.071A2.142,2.142,0,0,0,333.1,359.1c0-.027-.01-.054-.017-.084A2.142,2.142,0,0,0,332.137,357.675Z" transform="translate(236.928 35.807)"/><path d="M269.218,391.591a2.1,2.1,0,0,0-2.237,3.554,2.121,2.121,0,0,0,1.146.33,2.032,2.032,0,0,0,.539-.071,2.141,2.141,0,0,0,1.518-2.387l-.017-.086A2.142,2.142,0,0,0,269.218,391.591Z" transform="translate(168.31 72.796)"/><path d="M323.9,244.564a2.1,2.1,0,1,0-1.775,3.8,2.025,2.025,0,0,0,.845.18,2.136,2.136,0,0,0,1.867-1.079l.015-.025.006-.013a2.095,2.095,0,0,0-.957-2.864Z" transform="translate(228.159 -87.423)"/><path d="M225.463,373.331a2.132,2.132,0,0,0-.134,3.006,2.134,2.134,0,0,0,2.916.138l.048-.046a2.1,2.1,0,0,0-2.831-3.1Z" transform="translate(123.327 52.657)"/><path d="M258.348,234.356a2.1,2.1,0,0,0-1.7,3.84,2.143,2.143,0,0,0,1.639.021l.019-.006.006,0,.006,0a2.1,2.1,0,0,0,.027-3.849Z" transform="translate(156.734 -98.534)"/><path d="M186.065,185.813a2.1,2.1,0,1,0,.006,4.2c.029,0,.056,0,.086,0a2.1,2.1,0,0,0-.092-4.194Z" transform="translate(78.828 -151.28)"/><path d="M288.163,316.625a2.1,2.1,0,1,0-1.593-.47l.023.019.031.025a2.153,2.153,0,0,0,1.3.441A2.267,2.267,0,0,0,288.163,316.625Z" transform="translate(189.911 -13.183)"/><path d="M133.062,259.458a2.1,2.1,0,1,0,3.136-2.26,2.1,2.1,0,0,0-3.14,2.243Z" transform="translate(23.258 -73.758)"/><path d="M85.55,299.967a2.108,2.108,0,0,0,.345.027,2.1,2.1,0,1,0-2.055-2.454l-.013.088a2.1,2.1,0,0,0,1.723,2.339Z" transform="translate(-30.399 -31.328)"/><path d="M128.255,297.748l.029.006a2,2,0,0,0,.993.408c.056,0,.115.006.174.006a2.08,2.08,0,0,0,.926-3.955,2.1,2.1,0,0,0-.347-.266,2.144,2.144,0,0,0-2.743.884l-.021.036a2.1,2.1,0,0,0,.989,2.881Z" transform="translate(16.734 -33.565)"/><path d="M193.161,423.7a2.134,2.134,0,0,0-2.918-.136l-.048.044a2.128,2.128,0,0,0-.09,2.964,2.133,2.133,0,0,0,2.872.174,2.094,2.094,0,0,0,.184-3.046Z" transform="translate(84.912 107.442)"/><path d="M187.03,237.559a2.131,2.131,0,0,0-2.688-1.254c-.036.015-.071.027-.107.044a2.1,2.1,0,0,0-.008,3.855,2.137,2.137,0,0,0,1.549.046A2.136,2.136,0,0,0,187.03,237.559Z" transform="translate(77.737 -96.348)"/><path class="f" d="M194.374,383.369a2.1,2.1,0,0,0,.1,4.194c.029,0,.059,0,.086,0a2.1,2.1,0,0,0-.182-4.192Z" transform="translate(87.989 64.16)"/><path d="M179.993,353.045,179.98,353a2.1,2.1,0,1,0-2,2.645,1.984,1.984,0,0,0,.426-.046,2.1,2.1,0,0,0,1.6-2.5Z" transform="translate(69.985 29.357)"/><path d="M313.213,282.57l-.013-.046a2.092,2.092,0,1,0-.228,1.637,2.151,2.151,0,0,0,.255-1.535Z" transform="translate(215.27 -47.5)"/><path class="i" d="M207.045,255.041l-.017-.061a2.723,2.723,0,1,0-2.6,3.433,2.514,2.514,0,0,0,.554-.061,2.718,2.718,0,0,0,2.08-3.238Z" transform="translate(98.143 -78.04)"/><path class="i" d="M264.781,285.888l-.017-.061a2.723,2.723,0,1,0-2.6,3.433,2.639,2.639,0,0,0,.554-.059,2.719,2.719,0,0,0,2.08-3.24Z" transform="translate(161.107 -44.399)"/><path class="i" d="M250.106,336.522l-.015-.061a2.723,2.723,0,1,0-2.6,3.433,2.515,2.515,0,0,0,.554-.061,2.718,2.718,0,0,0,2.08-3.238Z" transform="translate(145.105 10.819)"/><path class="i" d="M178.536,323.258l-.015-.061a2.723,2.723,0,1,0-2.6,3.433,2.643,2.643,0,0,0,.554-.059,2.719,2.719,0,0,0,2.08-3.24Z" transform="translate(67.055 -3.645)"/><path class="d" d="M253.147,328.868c-6.508-10.145-5.46-22.977-7.942-32.075-3.753-13.762-11.473-20.9-30.572-28.126-14.676-5.555-29.83-6.936-55.847-7.649-18.06-.493-46.573-3.435-60.551-18.219-4.712-4.982-8.87-10.791-8.87-17.625,0-7.476,5.918-10.016,12.556-9.83" transform="translate(-24.342 -119.087)"/><path class="d" d="M365.865,204.714c13.154,19.005,10.1,47.476-6.784,63.26-14.891,13.923-36.514,17.076-56.556,20.8s-38.265,8.784-51.057,24.365" transform="translate(152.44 -130.668)"/><path class="j" d="M259.708,322.491c20.013,10.557,9.46,22.4,18.474,34.235a43.334,43.334,0,0,0,39.327,16.363c10.693-1.409,21.564-6.849,31.766-3.343,14.805,5.086,17.855,24.771,28.933,35.832,10.5,10.486,29.029,11.5,40.617,2.226,10.451-8.368,13.967-24.079,8.73-36.281" transform="translate(161.426 -2.226)"/><path class="d" d="M98.506,409.56a58.091,58.091,0,0,0,57.952-42.2c3.556-12.539,3.094-26.7,10.706-37.285,5.6-7.787,14.866-12.307,24.284-14.138s28.339-1.158,37.916-.585" transform="translate(-14.373 -10.672)"/><path class="d" d="M235.067,357.746c2.2,12.154-2.757,24.53-9.416,34.933s-15.092,19.643-21.108,30.428-9.453,23.962-5.1,35.521c2.553,6.775,7.564,12.439,9.907,19.289,2.849,8.329,1.495,17.611,4.11,26.015,2.939,9.441,11.818,17.3,21.7,17.153s19.078-9.959,16.956-19.618" transform="translate(93.568 36.221)"/><path class="f" d="M307.753,208.264a2.1,2.1,0,1,0-1.593-.47l.023.019.029.023a2.152,2.152,0,0,0,1.3.443A2.28,2.28,0,0,0,307.753,208.264Z" transform="translate(211.273 -131.356)"/><path d="M293.348,244.309a2.1,2.1,0,1,0-1.593-.47l.021.019.031.025a2.15,2.15,0,0,0,1.3.441A1.859,1.859,0,0,0,293.348,244.309Z" transform="translate(195.564 -92.047)"/><path d="M252.8,259.756a2.1,2.1,0,1,0-1.593-.47l.023.019.031.023a2.139,2.139,0,0,0,1.3.441A2.27,2.27,0,0,0,252.8,259.756Z" transform="translate(151.349 -75.202)"/><path class="i" d="M341.332,348.593a2.1,2.1,0,1,0-1.593-.47l.023.019.031.025a2.146,2.146,0,0,0,1.3.441A1.833,1.833,0,0,0,341.332,348.593Z" transform="translate(247.894 21.682)"/><path class="i" d="M316.194,363.294a2.1,2.1,0,1,0-1.591-.47l.021.019.031.025a2.15,2.15,0,0,0,1.3.441A1.794,1.794,0,0,0,316.194,363.294Z" transform="translate(220.48 37.712)"/><path class="i" d="M291.163,349.6a2.1,2.1,0,1,0-1.593-.47l.023.019.031.023a2.142,2.142,0,0,0,1.3.443A2.293,2.293,0,0,0,291.163,349.6Z" transform="translate(193.182 22.776)"/><path class="i" d="M261.043,325.667a2.1,2.1,0,0,0-.5-4.167,2.1,2.1,0,0,0-1.089,3.7l.021.019.031.025a2.146,2.146,0,0,0,1.3.441A1.821,1.821,0,0,0,261.043,325.667Z" transform="translate(160.335 -3.32)"/><path d="M216.947,361.547a2.1,2.1,0,1,0-1.593-.472l.023.021.031.023a2.14,2.14,0,0,0,1.3.441A2.285,2.285,0,0,0,216.947,361.547Z" transform="translate(112.245 35.806)"/><path d="M162.436,318.215a2.1,2.1,0,0,0,1.091-3.7,2.175,2.175,0,0,0-1.593-.47,2.1,2.1,0,0,0-1.089,3.7l.021.019.031.025a2.146,2.146,0,0,0,1.3.441A2.263,2.263,0,0,0,162.436,318.215Z" transform="translate(52.799 -11.449)"/><path d="M131.57,327.039a2.1,2.1,0,1,0-1.593-.47l.023.019.031.025a2.14,2.14,0,0,0,1.3.441A1.831,1.831,0,0,0,131.57,327.039Z" transform="translate(19.139 -1.824)"/><path d="M169.044,272.819a2.1,2.1,0,0,0,1.091-3.7,2.176,2.176,0,0,0-1.593-.47,2.1,2.1,0,0,0-1.091,3.7l.023.019.031.025a2.145,2.145,0,0,0,1.3.441A2.287,2.287,0,0,0,169.044,272.819Z" transform="translate(60.006 -60.955)"/><path d="M145.679,242.629a2.1,2.1,0,1,0-1.593-.47l.023.019.031.025a2.153,2.153,0,0,0,1.3.441A2.271,2.271,0,0,0,145.679,242.629Z" transform="translate(34.525 -93.879)"/><path d="M96.934,218.426a2.1,2.1,0,0,0,1.091-3.7,2.173,2.173,0,0,0-1.593-.472,2.1,2.1,0,0,0-1.091,3.7l.023.019L95.4,218a2.144,2.144,0,0,0,1.3.441A1.834,1.834,0,0,0,96.934,218.426Z" transform="translate(-18.634 -120.274)"/><path d="M99.841,363.294a2.1,2.1,0,1,0-1.593-.47l.023.019.031.025a2.146,2.146,0,0,0,1.3.441A1.816,1.816,0,0,0,99.841,363.294Z" transform="translate(-15.464 37.712)"/><path class="f" d="M202.4,392.155a2.1,2.1,0,1,0-1.593-.47l.023.019.031.025a2.144,2.144,0,0,0,1.3.441A1.83,1.83,0,0,0,202.4,392.155Z" transform="translate(96.38 69.186)"/><path d="M225.1,429.993a2.1,2.1,0,1,0-1.591-.47l.021.019.031.025a2.146,2.146,0,0,0,1.3.441A1.81,1.81,0,0,0,225.1,429.993Z" transform="translate(121.14 110.452)"/><path class="k" d="M12.695,15.1q.809-1.669,1.872-3.668t2.277-4.047Q18.057,5.337,19.4,3.313T22.206-.531a10.046,10.046,0,0,1,2.959-2.555,6.068,6.068,0,0,1,2.808-.784,4.337,4.337,0,0,1,3.9,1.922,8.47,8.47,0,0,1,1.265,4.755q0,.658-.076,1.594t-.152,2q-.076,1.062-.152,2.15T32.678,10.6a20.616,20.616,0,0,0,.126,2.327,7.011,7.011,0,0,0,.481,1.948A3.071,3.071,0,0,0,34.3,16.188a2.846,2.846,0,0,0,1.72.481,5.864,5.864,0,0,0,3.744-1.492,20.455,20.455,0,0,0,3.364-3.541,32.29,32.29,0,0,0,2.681-4.174q1.138-2.125,1.695-3.44a1.935,1.935,0,0,1,.734-.86,1.907,1.907,0,0,1,1.037-.3,1.729,1.729,0,0,1,1.391.632,2.054,2.054,0,0,1,.531,1.341,1.785,1.785,0,0,1-.152.708q-.2.4-.809,1.669t-1.594,2.909q-.986,1.644-2.3,3.491a23.292,23.292,0,0,1-2.909,3.364,16.422,16.422,0,0,1-3.44,2.529,7.943,7.943,0,0,1-3.87,1.012,6.882,6.882,0,0,1-3.693-.885A6.4,6.4,0,0,1,30.2,17.3a9.511,9.511,0,0,1-1.088-3.187,22.3,22.3,0,0,1-.278-3.516q0-.759.076-1.72t.2-2.024q.126-1.062.2-2.125t.076-2.024a3.474,3.474,0,0,0-.506-2.2,1.352,1.352,0,0,0-.911-.582A2.956,2.956,0,0,0,26.126.86a17.266,17.266,0,0,0-2.175,2.454q-1.138,1.518-2.327,3.415T19.4,10.5q-1.037,1.872-1.922,3.567t-1.391,2.808a7.534,7.534,0,0,1-2.024,2.858,3.5,3.5,0,0,1-2.074.734,3.18,3.18,0,0,1-2.352-.885,3.387,3.387,0,0,1-.885-2.5q0-.354.1-1.391T9.1,13.2q.152-1.442.3-3.111t.3-3.314q.152-1.644.253-3.061t.1-2.378q0-1.265-.1-2.428a2.316,2.316,0,0,0-.4-1.417Q9.1-2.353,7.94-.607A39.561,39.561,0,0,0,4.955,5.539,1.887,1.887,0,0,1,4.2,6.4a2.034,2.034,0,0,1-1.062.3,1.718,1.718,0,0,1-1.366-.582A1.983,1.983,0,0,1,1.262,4.78a2.168,2.168,0,0,1,.152-.759A36.309,36.309,0,0,1,5.688-3.946Q7.687-6.5,9.66-6.5a3.291,3.291,0,0,1,1.973.582,4.141,4.141,0,0,1,1.29,1.543,8.284,8.284,0,0,1,.708,2.125A12.354,12.354,0,0,1,13.858.126q0,.911-.126,2.833T13.4,7.082q-.2,2.2-.379,4.376T12.695,15.1ZM53.166.936q-.3.809-.734,1.821t-.986,2.125a5.6,5.6,0,0,1-.936,1.341,1.677,1.677,0,0,1-1.239.481,1.8,1.8,0,0,1-1.366-.531A1.741,1.741,0,0,1,47.4,4.932a1.583,1.583,0,0,1,.051-.43A3.976,3.976,0,0,1,47.7,3.92,31.369,31.369,0,0,0,49.65-.506a31.812,31.812,0,0,0,1.037-3.971,19.031,19.031,0,0,1-.506-1.973A9.041,9.041,0,0,1,50.03-8.12a4.709,4.709,0,0,1,.708-2.707,2.258,2.258,0,0,1,1.973-1.037,2.122,2.122,0,0,1,1.847,1.012,4.329,4.329,0,0,1,.683,2.479,8.767,8.767,0,0,1-.152,1.619q-.152.809-.4,2.024,1.164,2.884,2.327,5.11t2.074,4.072a33.538,33.538,0,0,1,1.492,3.465,9.519,9.519,0,0,1,.582,3.238A9.8,9.8,0,0,1,60.3,15.2a7.626,7.626,0,0,1-2.833,3.238,2.574,2.574,0,0,0,.506.051h.506a10.973,10.973,0,0,0,5.312-1.315,16.97,16.97,0,0,0,4.376-3.415,27.368,27.368,0,0,0,3.465-4.654,47.134,47.134,0,0,0,2.631-5.084q.506-1.164,1.417-1.164a1.613,1.613,0,0,1,1.341.607A2.077,2.077,0,0,1,77.5,4.78a1.906,1.906,0,0,1-.152.759q-.556,1.366-1.442,3.111a34.378,34.378,0,0,1-2.125,3.592,30.857,30.857,0,0,1-2.858,3.617,21.623,21.623,0,0,1-3.617,3.162,18.123,18.123,0,0,1-4.376,2.226,15.634,15.634,0,0,1-5.211.835,16.488,16.488,0,0,1-6.3-1.189,10.262,10.262,0,0,1-4.73-3.921,1.7,1.7,0,0,1-.3-.961,1.932,1.932,0,0,1,3.288-1.366,1.366,1.366,0,0,0,.354.329q.3.228.734.506a4.7,4.7,0,0,0,1.012.481,3.6,3.6,0,0,0,1.189.2,3.886,3.886,0,0,0,2.049-.506,4.316,4.316,0,0,0,1.341-1.239,5.119,5.119,0,0,0,.734-1.568,5.605,5.605,0,0,0,.228-1.442,8.259,8.259,0,0,0-.4-2.529,17.762,17.762,0,0,0-1.037-2.529q-.632-1.265-1.366-2.605A28.723,28.723,0,0,1,53.166.936Zm49.476,4.7Q102.086,6.8,101.251,8.4t-1.9,3.314a39.01,39.01,0,0,1-2.378,3.415,21.325,21.325,0,0,1-2.858,3.035,14.631,14.631,0,0,1-3.288,2.175,8.509,8.509,0,0,1-3.718.835A7.723,7.723,0,0,1,81.9,19.3a15.518,15.518,0,0,1-3.693-4.907,32.495,32.495,0,0,1-2.454-6.905A71.52,71.52,0,0,1,74.313-.4q-.506-4.022-.683-7.816t-.177-6.728q0-4.25.278-8.8t.885-8.9q.607-4.351,1.543-8.246a40.608,40.608,0,0,1,2.226-6.83,15.69,15.69,0,0,1,2.959-4.654,5.159,5.159,0,0,1,3.794-1.72,5.851,5.851,0,0,1,3.01.784A6.043,6.043,0,0,1,90.4-50.767a16.535,16.535,0,0,1,1.416,4.6,40.232,40.232,0,0,1,.506,6.931A53.962,53.962,0,0,1,91.26-28.786a88.373,88.373,0,0,1-2.884,10.851,110.637,110.637,0,0,1-4.3,10.9Q81.6-1.594,78.765,3.566a33.287,33.287,0,0,0,3.389,10.093q2.125,3.668,5.11,3.668a5.955,5.955,0,0,0,3.9-1.594,21.188,21.188,0,0,0,3.44-3.769,37.584,37.584,0,0,0,2.757-4.427Q98.545,5.286,99.2,3.92a1.881,1.881,0,0,1,.708-.784,1.9,1.9,0,0,1,1.012-.278,1.76,1.76,0,0,1,1.391.607,2.021,2.021,0,0,1,.531,1.366A2.332,2.332,0,0,1,102.643,5.641ZM77.3-14.7q0,3.238.152,6.222t.4,5.717q2.125-4.1,4.047-8.727t3.389-9.359a85.253,85.253,0,0,0,2.352-9.41,48.071,48.071,0,0,0,.885-8.929q0-5.97-.961-8.55t-2.58-2.58q-1.062,0-2.049,1.467a17.18,17.18,0,0,0-1.847,4,50.181,50.181,0,0,0-1.568,5.97q-.708,3.44-1.189,7.386t-.759,8.246Q77.3-18.946,77.3-14.7Z" transform="translate(274.807 259.123)"/></g></g></svg>