<svg xmlns="http://www.w3.org/2000/svg" xmlns:xlink="http://www.w3.org/1999/xlink" width="1025" height="707" viewBox="0 0 1025 707">
  <defs>
    <clipPath id="clip-path">
      <rect id="Rectangle_5" data-name="Rectangle 5" width="1025" height="707" transform="translate(0 62)" fill="#fff" stroke="#707070" stroke-width="1"/>
    </clipPath>
  </defs>
  <g id="Mask_Group_2" data-name="Mask Group 2" transform="translate(0 -62)" clip-path="url(#clip-path)">
    <g id="Group_28455" data-name="Group 28455">
      <g id="Group_28422" data-name="Group 28422" transform="translate(-84.859 40.5)">
        <ellipse id="Ellipse_713" data-name="Ellipse 713" cx="5" cy="4.5" rx="5" ry="4.5" transform="translate(151.859 242.5)" fill="#fff"/>
        <circle id="Ellipse_721" data-name="Ellipse 721" cx="5" cy="5" r="5" transform="translate(497.859 589.5)" fill="#fff"/>
        <ellipse id="Ellipse_728" data-name="Ellipse 728" cx="8.5" cy="8" rx="8.5" ry="8" transform="translate(145.859 240.5)" fill="#fff"/>
        <line id="Line_745" data-name="Line 745" x1="1119.859" y2="338.059" transform="translate(-10.5 6)" fill="none" stroke="#c7c7c7" stroke-width="0.5"/>
        <path id="Path_31145" data-name="Path 31145" d="M224.29,0-.7,278.758" transform="translate(135.055 21)" fill="none" stroke="#c7c7c7" stroke-width="0.5"/>
        <path id="Path_31144" data-name="Path 31144" d="M-3.66-3.148,134.8,322.875" transform="translate(88.519 186.996)" fill="none" stroke="#c7c7c7" stroke-width="0.5"/>
        <line id="Line_744" data-name="Line 744" x1="132.195" y2="706.5" transform="translate(183.164 21)" fill="none" stroke="#c7c7c7" stroke-width="0.5"/>
        <line id="Line_742" data-name="Line 742" x2="435.485" y2="426.5" transform="translate(134.359 301)" fill="none" stroke="#c7c7c7" stroke-width="0.5"/>
        <line id="Line_743" data-name="Line 743" x2="935.933" y2="286.933" transform="translate(-3.375 440.567)" fill="none" stroke="#c7c7c7" stroke-width="0.5"/>
        <line id="Line_740" data-name="Line 740" x1="758.44" y2="103.5" transform="translate(350.919 624)" fill="none" stroke="#c7c7c7" stroke-width="0.5"/>
        <circle id="Ellipse_712" data-name="Ellipse 712" cx="3.5" cy="3.5" r="3.5" transform="translate(130.859 297.5)" fill="#ff8900"/>
        <circle id="Ellipse_745" data-name="Ellipse 745" cx="3.5" cy="3.5" r="3.5" transform="translate(219.859 506.5)" fill="#ff8900"/>
        <circle id="Ellipse_722" data-name="Ellipse 722" cx="2.5" cy="2.5" r="2.5" transform="translate(455.859 615.5)" fill="#ff2b2b"/>
        <g id="Group_28424" data-name="Group 28424" transform="translate(15 -20)">
          <circle id="Ellipse_747" data-name="Ellipse 747" cx="4.5" cy="4.5" r="4.5" transform="translate(488.859 202.5)" fill="#bc0000"/>
          <ellipse id="Ellipse_748" data-name="Ellipse 748" cx="4" cy="1" rx="4" ry="1" transform="translate(489.859 213.5)" fill="#c7c7c7"/>
        </g>
        <g id="Group_28341" data-name="Group 28341" transform="translate(237.895 403.972)">
          <ellipse id="Ellipse_741" data-name="Ellipse 741" cx="4.5" cy="5" rx="4.5" ry="5" transform="translate(-0.036 -0.472)" fill="#bc0000"/>
          <ellipse id="Ellipse_749" data-name="Ellipse 749" cx="4" cy="1" rx="4" ry="1" transform="translate(-0.036 12.528)" fill="#c7c7c7" style="mix-blend-mode: multiply;isolation: isolate"/>
        </g>
        <ellipse id="Ellipse_750" data-name="Ellipse 750" cx="3.5" cy="1" rx="3.5" ry="1" transform="translate(130.859 306.5)" fill="#c7c7c7" style="mix-blend-mode: multiply;isolation: isolate"/>
        <g id="Group_28429" data-name="Group 28429" transform="translate(9 2)">
          <circle id="Ellipse_716" data-name="Ellipse 716" cx="3" cy="3" r="3" transform="translate(169.616 234.5) rotate(-45)" fill="#ff2b2b"/>
          <ellipse id="Ellipse_753" data-name="Ellipse 753" cx="3" cy="0.5" rx="3" ry="0.5" transform="translate(170.859 239.5)" fill="#c7c7c7" style="mix-blend-mode: multiply;isolation: isolate"/>
        </g>
        <g id="Group_28336" data-name="Group 28336" transform="translate(547.497 607.351)">
          <circle id="Ellipse_740" data-name="Ellipse 740" cx="2.5" cy="2.5" r="2.5" transform="translate(0.361 0.149)" fill="#ff2b2b"/>
          <ellipse id="Ellipse_756" data-name="Ellipse 756" cx="2.5" cy="1" rx="2.5" ry="1" transform="translate(0.361 6.149)" fill="#c7c7c7" style="mix-blend-mode: multiply;isolation: isolate"/>
        </g>
        <ellipse id="Ellipse_758" data-name="Ellipse 758" cx="2" cy="1" rx="2" ry="1" transform="translate(455.859 621.5)" fill="#c7c7c7" style="mix-blend-mode: multiply;isolation: isolate"/>
        <g id="Group_28425" data-name="Group 28425" transform="translate(7 12)">
          <circle id="Ellipse_715" data-name="Ellipse 715" cx="2" cy="2" r="2" transform="translate(94.859 212.5)" fill="#ff2b2b"/>
          <ellipse id="Ellipse_754" data-name="Ellipse 754" cx="2" cy="0.5" rx="2" ry="0.5" transform="translate(94.859 218.5)" fill="#c7c7c7" style="mix-blend-mode: multiply;isolation: isolate"/>
        </g>
        <g id="Group_28426" data-name="Group 28426" transform="translate(29 2)">
          <circle id="Ellipse_743" data-name="Ellipse 743" cx="2" cy="2" r="2" transform="translate(211.859 160.5)" fill="#ff2b2b"/>
          <ellipse id="Ellipse_755" data-name="Ellipse 755" cx="2" cy="0.5" rx="2" ry="0.5" transform="translate(211.859 165.5)" fill="#c7c7c7" style="mix-blend-mode: multiply;isolation: isolate"/>
        </g>
        <g id="Group_28428" data-name="Group 28428">
          <circle id="Ellipse_744" data-name="Ellipse 744" cx="2" cy="2" r="2" transform="translate(203.859 603.5)" fill="#ff2b2b"/>
          <ellipse id="Ellipse_757" data-name="Ellipse 757" cx="2" cy="0.5" rx="2" ry="0.5" transform="translate(203.859 608.5)" fill="#c7c7c7" style="mix-blend-mode: multiply;isolation: isolate"/>
        </g>
        <ellipse id="Ellipse_751" data-name="Ellipse 751" cx="3.5" cy="1" rx="3.5" ry="1" transform="translate(219.859 515.5)" fill="#c7c7c7" style="mix-blend-mode: multiply;isolation: isolate"/>
        <g id="Group_28427" data-name="Group 28427">
          <circle id="Ellipse_732" data-name="Ellipse 732" cx="2.5" cy="2.5" r="2.5" transform="translate(134.859 481.5)" fill="#ff2b2b"/>
          <ellipse id="Ellipse_762" data-name="Ellipse 762" cx="2.5" cy="1" rx="2.5" ry="1" transform="translate(134.859 487.5)" fill="#c7c7c7" style="mix-blend-mode: multiply;isolation: isolate"/>
        </g>
        <g id="Group_28334" data-name="Group 28334" transform="translate(399.821 562.011)">
          <circle id="Ellipse_746" data-name="Ellipse 746" cx="3" cy="3" r="3" transform="translate(0.038 0.489)" fill="#ff8900"/>
          <ellipse id="Ellipse_752" data-name="Ellipse 752" cx="3.5" cy="1.5" rx="3.5" ry="1.5" transform="translate(0.038 8.489)" fill="#c7c7c7" style="mix-blend-mode: multiply;isolation: isolate"/>
        </g>
      </g>
      <line id="Line_739" data-name="Line 739" x1="38" y2="713" transform="translate(967.5 55.5)" fill="none" stroke="#c7c7c7" stroke-width="0.5"/>
      <g id="Group_28351" data-name="Group 28351" transform="translate(-176 -118)">
        <circle id="Ellipse_729" data-name="Ellipse 729" cx="2.5" cy="2.5" r="2.5" transform="translate(1176 206)" fill="#ff2b2b"/>
        <ellipse id="Ellipse_760" data-name="Ellipse 760" cx="2.5" cy="1" rx="2.5" ry="1" transform="translate(1176 212)" fill="#c7c7c7" style="mix-blend-mode: multiply;isolation: isolate"/>
      </g>
    </g>
  </g>
</svg>
